const wsans = {"glyphs":{"0":{"ha":958,"x_min":35,"x_max":924,"o":"m 802 938 q 863 861 802 938 q 924 535 924 785 q 802 132 924 285 q 479 -21 681 -21 q 156 132 278 -21 q 35 535 35 285 q 156 938 35 785 q 479 1090 278 1090 q 802 938 681 1090 m 613 302 q 637 344 613 302 q 661 535 661 386 q 613 767 661 683 q 479 851 565 851 q 345 767 393 851 q 297 535 297 683 q 345 302 297 386 q 479 218 393 218 q 613 302 565 218 z "},"1":{"ha":486,"x_min":10,"x_max":458,"o":"m 181 0 l 181 833 l 10 833 l 117 1069 l 458 1069 l 458 0 l 181 0 z "},"2":{"ha":864,"x_min":19,"x_max":850,"o":"m 431 1090 q 728 999 619 1090 q 836 772 836 907 q 813 653 836 713 q 765 556 790 593 q 692 463 739 519 l 496 222 l 850 222 l 850 0 l 19 0 l 19 3 l 453 547 q 532 731 532 644 q 497 814 532 776 q 410 851 461 851 q 247 731 299 851 l 25 858 q 431 1090 125 1090 z "},"3":{"ha":861,"x_min":7,"x_max":850,"o":"m 421 218 q 544 249 500 218 q 588 338 588 281 q 438 451 588 451 l 253 451 l 253 668 l 439 668 q 557 760 557 668 q 522 828 557 804 q 435 851 488 851 q 271 757 319 851 l 46 888 q 188 1035 88 981 q 429 1090 288 1090 q 722 999 625 1090 q 819 772 819 908 q 708 561 819 635 q 850 321 850 472 q 735 74 850 168 q 413 -21 621 -21 q 7 210 107 -21 l 229 339 q 421 218 279 218 z "},"4":{"ha":864,"x_min":8,"x_max":856,"o":"m 733 1083 l 733 425 l 856 425 l 856 189 l 733 189 l 733 0 l 456 0 l 456 189 l 8 189 l 8 369 l 550 1083 l 733 1083 m 333 425 l 456 425 l 456 594 l 333 425 z "},"5":{"ha":861,"x_min":7,"x_max":850,"o":"m 794 833 l 346 833 l 346 708 q 475 732 414 732 q 749 626 649 732 q 850 356 850 519 q 739 84 850 189 q 413 -21 628 -21 q 7 210 107 -21 l 229 339 q 298 247 256 276 q 413 218 340 218 q 532 255 490 218 q 574 356 574 292 q 531 456 574 418 q 413 493 489 493 q 271 447 313 493 l 68 572 l 68 1069 l 794 1069 l 794 833 z "},"6":{"ha":847,"x_min":14,"x_max":833,"o":"m 671 1069 l 472 740 q 735 618 636 725 q 833 361 833 511 q 720 90 833 200 q 424 -21 607 -21 q 127 90 240 -21 q 14 361 14 200 q 68 560 14 472 l 365 1069 l 671 1069 m 528 260 q 549 281 528 260 q 571 361 571 301 q 528 463 571 421 q 424 504 485 504 q 319 463 363 504 q 276 361 276 421 q 319 260 276 301 q 424 218 363 218 q 528 260 485 218 z "},"7":{"ha":897,"x_min":14,"x_max":889,"o":"m 119 0 l 503 847 l 14 847 l 14 1069 l 889 1069 l 889 1067 l 410 0 l 119 0 z "},"8":{"ha":811,"x_min":17,"x_max":794,"o":"m 692 72 q 640 25 692 72 q 406 -21 589 -21 q 119 72 222 -21 q 17 315 17 164 q 146 564 17 461 q 47 778 47 649 q 138 1000 47 911 q 406 1089 228 1089 q 674 1000 583 1089 q 764 778 764 911 q 664 564 764 650 q 794 315 794 461 q 692 72 794 164 m 313 250 q 330 234 313 250 q 406 218 347 218 q 498 250 464 218 q 532 333 532 282 q 498 417 532 385 q 406 449 464 449 q 313 417 347 449 q 279 333 279 385 q 313 250 279 282 m 475 696 q 488 708 475 696 q 501 761 501 721 q 475 826 501 801 q 406 851 449 851 q 336 826 363 851 q 310 761 310 801 q 336 696 310 721 q 406 671 363 671 q 475 696 449 671 z "},"9":{"ha":847,"x_min":14,"x_max":833,"o":"m 176 0 l 374 328 q 112 451 210 343 q 14 708 14 558 q 127 980 14 869 q 424 1090 240 1090 q 720 980 607 1090 q 833 708 833 869 q 785 519 833 608 l 482 0 l 176 0 m 319 810 q 298 789 319 810 q 276 708 276 768 q 319 607 276 649 q 424 565 363 565 q 528 607 485 565 q 571 708 571 649 q 528 810 571 768 q 424 851 485 851 q 319 810 363 851 z "}," ":{"ha":333,"x_min":0,"x_max":0,"o":""},"!":{"ha":317,"x_min":6,"x_max":311,"o":"m 311 1069 l 256 319 l 61 319 l 6 1069 l 311 1069 m 60 27 q 40 48 60 27 q 19 125 19 68 q 60 223 19 182 q 158 264 101 264 q 256 223 215 264 q 297 125 297 182 q 256 27 297 68 q 158 -14 215 -14 q 60 27 101 -14 z "},"\"":{"ha":622,"x_min":26,"x_max":596,"o":"m 26 1083 l 290 1083 l 269 722 l 47 722 l 26 1083 m 332 1083 l 596 1083 l 575 722 l 353 722 l 332 1083 z "},"#":{"ha":872,"x_min":26,"x_max":846,"o":"m 82 789 l 221 789 l 282 1069 l 504 1069 l 443 789 l 540 789 l 601 1069 l 824 1069 l 763 789 l 846 789 l 846 586 l 718 586 l 696 483 l 790 483 l 790 281 l 651 281 l 590 0 l 368 0 l 429 281 l 332 281 l 271 0 l 49 0 l 110 281 l 26 281 l 26 483 l 154 483 l 176 586 l 82 586 l 82 789 m 399 586 l 376 483 l 474 483 l 496 586 l 399 586 z "},"$":{"ha":668,"x_min":8,"x_max":660,"o":"m 660 383 q 570 206 660 275 q 353 131 481 136 l 294 0 l 96 0 l 165 154 q 8 249 71 183 l 156 393 q 318 329 229 329 q 384 344 360 329 q 408 383 408 358 q 386 431 408 414 q 299 467 364 449 q 113 557 163 506 q 63 706 63 608 q 133 863 63 797 q 335 938 204 929 l 394 1069 l 593 1069 l 522 914 q 649 829 597 885 l 519 696 q 382 740 458 740 q 311 697 311 740 q 337 663 311 675 q 436 631 363 650 q 608 545 557 600 q 660 383 660 490 z "},"%":{"ha":1322,"x_min":31,"x_max":1292,"o":"m 108 641 q 69 680 108 641 q 31 826 31 718 q 108 1012 31 935 q 293 1089 185 1089 q 478 1012 401 1089 q 556 826 556 935 q 478 641 556 718 q 293 564 401 564 q 108 641 185 564 m 222 901 q 208 887 222 901 q 193 826 193 872 q 222 751 193 781 q 293 722 251 722 q 364 751 335 722 q 393 826 393 781 q 364 901 393 872 q 293 931 335 931 q 222 901 251 931 m 1071 1069 l 450 0 l 251 0 l 872 1069 l 1071 1069 m 1215 428 q 1253 390 1215 428 q 1292 243 1292 351 q 1215 58 1292 135 q 1029 -19 1138 -19 q 844 58 921 -19 q 767 243 767 135 q 844 428 767 351 q 1029 506 921 506 q 1215 428 1138 506 m 1100 168 q 1115 183 1100 168 q 1129 243 1129 197 q 1100 318 1129 289 q 1029 347 1071 347 q 958 318 988 347 q 929 243 929 289 q 958 168 929 197 q 1029 139 988 139 q 1100 168 1071 139 z "},"&":{"ha":1015,"x_min":3,"x_max":1060,"o":"m 782 815 q 729 669 782 725 q 561 549 676 614 l 701 381 q 829 664 788 492 l 1060 536 q 869 178 1013 321 l 1018 0 l 678 0 l 650 33 q 393 -19 521 -19 q 107 61 211 -19 q 3 281 3 142 q 49 456 3 389 q 194 582 94 524 q 131 692 150 639 q 113 815 113 744 q 208 1018 113 947 q 449 1089 304 1089 q 687 1018 592 1089 q 782 815 782 947 m 393 214 q 488 229 440 214 l 331 418 q 276 310 276 376 q 310 241 276 268 q 393 214 343 214 m 372 807 q 429 708 372 775 q 519 769 504 750 q 533 807 533 786 q 513 858 533 839 q 454 878 492 878 q 372 807 372 878 z "},"'":{"ha":317,"x_min":26,"x_max":290,"o":"m 26 1083 l 290 1083 l 269 722 l 47 722 l 26 1083 z "},"(":{"ha":494,"x_min":25,"x_max":481,"o":"m 200 -250 q 25 451 25 89 q 200 1153 25 814 l 481 1153 q 300 451 300 819 q 481 -250 300 83 l 200 -250 z "},")":{"ha":494,"x_min":14,"x_max":469,"o":"m 294 1153 q 469 451 469 814 q 294 -250 469 89 l 14 -250 q 194 451 194 83 q 14 1153 194 819 l 294 1153 z "},"*":{"ha":514,"x_min":18,"x_max":496,"o":"m 74 1001 l 189 939 l 167 1069 l 347 1069 l 325 940 l 440 1001 l 496 831 l 367 811 l 461 721 l 314 614 l 257 731 l 200 614 l 53 721 l 147 811 l 18 831 l 74 1001 z "},"+":{"ha":750,"x_min":35,"x_max":715,"o":"m 281 194 l 281 440 l 35 440 l 35 629 l 281 629 l 281 875 l 469 875 l 469 629 l 715 629 l 715 440 l 469 440 l 469 194 l 281 194 z "},",":{"ha":326,"x_min":-3,"x_max":318,"o":"m 318 250 l 213 -208 l -3 -208 l 36 250 l 318 250 z "},"-":{"ha":403,"x_min":29,"x_max":374,"o":"m 374 658 l 374 464 l 29 464 l 29 658 l 374 658 z "},".":{"ha":300,"x_min":11,"x_max":289,"o":"m 52 27 q 32 48 52 27 q 11 125 11 68 q 52 223 11 182 q 150 264 93 264 q 248 223 207 264 q 289 125 289 182 q 248 27 289 68 q 150 -14 207 -14 q 52 27 93 -14 z "},"/":{"ha":814,"x_min":-31,"x_max":813,"o":"m 813 1153 l 194 -250 l -31 -250 l 588 1153 l 813 1153 z "},":":{"ha":300,"x_min":11,"x_max":289,"o":"m 52 27 q 32 48 52 27 q 11 125 11 68 q 52 223 11 182 q 150 264 93 264 q 248 223 207 264 q 289 125 289 182 q 248 27 289 68 q 150 -14 207 -14 q 52 27 93 -14 m 52 463 q 32 484 52 463 q 11 561 11 504 q 52 659 11 618 q 150 700 93 700 q 248 659 207 700 q 289 561 289 618 q 248 463 289 504 q 150 422 207 422 q 52 463 93 422 z "},";":{"ha":326,"x_min":-3,"x_max":318,"o":"m 73 463 q 52 484 73 463 q 32 561 32 504 q 73 659 32 618 q 171 700 114 700 q 269 659 228 700 q 310 561 310 618 q 269 463 310 504 q 171 422 228 422 q 73 463 114 422 m 318 250 l 213 -208 l -3 -208 l 36 250 l 318 250 z "},"<":{"ha":749,"x_min":29,"x_max":710,"o":"m 29 629 l 710 890 l 710 660 l 325 535 l 710 410 l 710 179 l 29 440 l 29 629 z "},"=":{"ha":750,"x_min":35,"x_max":715,"o":"m 35 775 l 715 775 l 715 586 l 35 586 l 35 775 m 35 483 l 715 483 l 715 294 l 35 294 l 35 483 z "},">":{"ha":749,"x_min":39,"x_max":719,"o":"m 39 890 l 719 629 l 719 440 l 39 179 l 39 410 l 422 535 l 39 660 l 39 890 z "},"?":{"ha":857,"x_min":7,"x_max":850,"o":"m 421 851 q 229 731 279 851 l 7 860 q 426 1090 107 1090 q 742 997 633 1090 q 850 749 850 903 q 760 522 850 600 q 532 422 671 443 l 524 319 l 329 319 l 306 618 l 438 618 q 552 647 517 619 q 588 732 588 675 q 544 820 588 789 q 421 851 500 851 m 328 27 q 308 48 328 27 q 288 125 288 68 q 328 223 288 182 q 426 264 369 264 q 524 223 483 264 q 565 125 565 182 q 524 27 565 68 q 426 -14 483 -14 q 328 27 369 -14 z "},"@":{"ha":1338,"x_min":26,"x_max":1313,"o":"m 1007 81 q 796 186 844 81 q 576 81 706 81 q 365 170 449 81 q 282 396 282 260 q 365 621 282 532 q 576 710 449 710 q 776 621 696 710 l 776 693 l 989 693 l 989 303 q 1065 224 989 224 q 1160 285 1114 224 q 1206 486 1206 347 q 1190 611 1206 550 q 1137 733 1175 672 q 1041 840 1099 794 q 892 913 983 885 q 685 940 800 940 q 289 783 444 940 q 133 396 133 625 q 293 11 133 171 q 678 -149 453 -149 q 768 -144 725 -149 q 847 -131 811 -140 q 910 -115 882 -122 q 967 -91 939 -107 q 1010 -67 994 -75 q 1048 -40 1026 -58 q 1076 -15 1069 -21 q 1101 8 1083 -10 l 1119 28 l 1200 -43 q 1152 -90 1169 -74 q 1083 -141 1135 -106 q 983 -196 1032 -176 q 851 -233 933 -215 q 678 -250 769 -250 q 218 -60 410 -250 q 26 396 26 129 q 110 721 26 574 q 346 955 194 868 q 685 1042 497 1042 q 923 1006 811 1042 q 1122 904 1035 971 q 1261 729 1210 838 q 1313 486 1313 621 q 1285 299 1313 381 q 1211 172 1257 218 q 1114 103 1165 126 q 1007 81 1063 81 m 538 497 q 518 479 538 497 q 499 396 499 461 q 538 294 499 331 q 636 257 576 257 q 737 294 697 257 q 776 396 776 331 q 737 497 776 461 q 636 533 697 533 q 538 497 576 533 z "},"A":{"ha":1125,"x_min":0,"x_max":1125,"o":"m 835 0 l 767 139 l 357 139 l 290 0 l 0 0 l 560 1083 l 565 1083 l 1125 0 l 835 0 m 563 558 l 472 375 l 651 375 l 563 558 z "},"B":{"ha":847,"x_min":35,"x_max":826,"o":"m 35 0 l 35 1069 l 479 1069 q 690 989 610 1069 q 771 778 771 908 q 667 563 771 644 q 783 458 739 526 q 826 306 826 390 q 740 87 826 174 q 521 0 653 0 l 35 0 m 440 431 l 313 431 l 313 236 l 440 236 q 518 263 488 236 q 549 333 549 289 q 518 404 549 378 q 440 431 488 431 m 401 833 l 313 833 l 313 667 l 401 667 q 467 690 440 667 q 493 750 493 713 q 467 810 493 788 q 401 833 440 833 z "},"C":{"ha":996,"x_min":14,"x_max":989,"o":"m 169 132 q 92 208 169 132 q 14 535 14 285 q 169 938 14 785 q 576 1090 325 1090 q 988 932 832 1090 l 794 739 q 576 833 715 833 q 369 753 447 833 q 292 535 292 672 q 369 317 292 397 q 576 236 447 236 q 794 331 717 236 l 989 136 q 576 -21 832 -21 q 169 132 325 -21 z "},"D":{"ha":1035,"x_min":35,"x_max":1021,"o":"m 872 919 q 947 843 872 919 q 1021 535 1021 768 q 872 151 1021 301 q 500 0 724 0 l 35 0 l 35 1069 l 500 1069 q 872 919 724 1069 m 451 833 l 313 833 l 313 236 l 451 236 q 664 317 585 236 q 743 535 743 399 q 664 752 743 671 q 451 833 585 833 z "},"E":{"ha":803,"x_min":35,"x_max":785,"o":"m 785 236 l 785 0 l 35 0 l 35 1069 l 785 1069 l 785 833 l 313 833 l 313 667 l 701 667 l 701 431 l 313 431 l 313 236 l 785 236 z "},"F":{"ha":771,"x_min":35,"x_max":757,"o":"m 674 639 l 674 403 l 313 403 l 313 0 l 35 0 l 35 1069 l 757 1069 l 757 833 l 313 833 l 313 639 l 674 639 z "},"G":{"ha":1097,"x_min":14,"x_max":1083,"o":"m 583 389 l 583 625 l 1083 625 l 1083 535 q 948 122 1083 264 q 560 -21 813 -21 q 169 133 325 -21 q 14 535 14 288 q 169 938 14 785 q 576 1090 325 1090 q 988 932 832 1090 l 794 739 q 576 833 715 833 q 369 753 447 833 q 292 535 292 672 q 369 317 292 399 q 568 236 447 236 q 717 272 663 236 q 793 389 772 308 l 583 389 z "},"H":{"ha":1042,"x_min":35,"x_max":1007,"o":"m 1007 1069 l 1007 0 l 729 0 l 729 431 l 313 431 l 313 0 l 35 0 l 35 1069 l 313 1069 l 313 667 l 729 667 l 729 1069 l 1007 1069 z "},"I":{"ha":347,"x_min":35,"x_max":313,"o":"m 313 1069 l 313 0 l 35 0 l 35 1069 l 313 1069 z "},"J":{"ha":696,"x_min":3,"x_max":664,"o":"m 386 354 l 386 1069 l 664 1069 l 664 328 q 565 69 664 158 q 303 -21 467 -21 q 118 20 200 -21 q 3 121 36 61 l 185 303 q 282 249 225 249 q 356 278 326 249 q 386 354 386 307 z "},"K":{"ha":1063,"x_min":35,"x_max":1049,"o":"m 313 1069 l 313 685 l 654 1069 l 1007 1069 l 585 626 l 1049 0 l 696 0 l 393 425 l 313 340 l 313 0 l 35 0 l 35 1069 l 313 1069 z "},"L":{"ha":740,"x_min":35,"x_max":729,"o":"m 729 236 l 729 0 l 35 0 l 35 1069 l 313 1069 l 313 236 l 729 236 z "},"M":{"ha":1208,"x_min":35,"x_max":1174,"o":"m 896 0 l 908 429 l 607 96 l 601 96 l 300 429 l 313 0 l 35 0 l 35 1083 l 40 1083 l 604 465 l 1168 1083 l 1174 1083 l 1174 0 l 896 0 z "},"N":{"ha":1069,"x_min":35,"x_max":1035,"o":"m 40 1083 l 771 514 l 757 1069 l 1035 1069 l 1035 -14 l 1029 -14 l 299 556 l 313 0 l 35 0 l 35 1083 l 40 1083 z "},"O":{"ha":1153,"x_min":14,"x_max":1139,"o":"m 783 317 q 822 357 783 317 q 861 535 861 397 q 783 753 861 672 q 576 833 706 833 q 369 753 447 833 q 292 535 292 672 q 369 317 292 397 q 576 236 447 236 q 783 317 706 236 m 983 938 q 1061 861 983 938 q 1139 535 1139 785 q 983 132 1139 285 q 576 -21 828 -21 q 169 132 325 -21 q 14 535 14 285 q 169 938 14 785 q 576 1090 325 1090 q 983 938 828 1090 z "},"P":{"ha":864,"x_min":35,"x_max":854,"o":"m 35 0 l 35 1069 l 486 1069 q 747 961 639 1069 q 854 701 854 853 q 747 442 854 550 q 486 333 639 333 l 313 333 l 313 0 l 35 0 m 444 833 l 313 833 l 313 569 l 444 569 q 538 608 499 569 q 576 701 576 647 q 538 794 576 756 q 444 833 499 833 z "},"Q":{"ha":1153,"x_min":14,"x_max":1139,"o":"m 1139 535 q 1069 245 1139 371 q 875 51 1000 119 l 972 -162 l 724 -162 l 657 -17 q 576 -21 617 -21 q 169 132 325 -21 q 14 535 14 285 q 169 938 14 785 q 576 1090 325 1090 q 983 938 828 1090 q 1139 535 1139 785 m 458 428 l 707 428 l 764 299 q 861 535 861 381 q 783 753 861 672 q 576 833 706 833 q 369 753 447 833 q 292 535 292 672 q 360 327 292 406 q 543 238 428 249 l 458 428 z "},"R":{"ha":889,"x_min":35,"x_max":889,"o":"m 854 715 q 805 535 854 617 q 674 406 756 453 l 889 0 l 611 0 l 419 361 l 313 361 l 313 0 l 35 0 l 35 1069 l 500 1069 q 751 966 647 1069 q 854 715 854 863 m 458 833 l 313 833 l 313 597 l 458 597 q 542 632 507 597 q 576 715 576 667 q 542 799 576 764 q 458 833 507 833 z "},"S":{"ha":838,"x_min":7,"x_max":828,"o":"m 401 215 q 508 242 468 215 q 547 321 547 269 q 533 363 547 344 q 488 398 519 382 q 430 423 456 414 q 354 447 404 432 q 135 563 214 490 q 56 763 56 635 q 165 999 56 908 q 436 1089 275 1089 q 663 1037 567 1089 q 797 892 760 985 l 574 763 q 444 854 528 854 q 365 831 393 854 q 338 774 338 807 q 342 747 338 758 q 358 726 347 735 q 380 710 369 717 q 409 696 390 703 q 440 685 428 689 q 476 676 453 682 q 513 665 500 669 q 649 615 596 640 q 746 549 703 589 q 808 452 789 510 q 828 315 828 394 q 711 83 828 186 q 408 -19 594 -19 q 158 40 261 -19 q 7 210 56 99 l 229 339 q 401 215 275 215 z "},"T":{"ha":856,"x_min":11,"x_max":844,"o":"m 844 1069 l 844 833 l 567 833 l 567 0 l 289 0 l 289 833 l 11 833 l 11 1069 l 844 1069 z "},"U":{"ha":925,"x_min":32,"x_max":893,"o":"m 773 93 q 713 36 773 93 q 463 -21 653 -21 q 152 93 272 -21 q 32 401 32 207 l 32 1069 l 310 1069 l 310 389 q 351 276 310 317 q 463 236 393 236 q 574 276 532 236 q 615 389 615 317 l 615 1069 l 893 1069 l 893 401 q 773 93 893 207 z "},"V":{"ha":1125,"x_min":0,"x_max":1125,"o":"m 290 1069 l 563 511 l 835 1069 l 1125 1069 l 565 -14 l 560 -14 l 0 1069 l 290 1069 z "},"W":{"ha":1617,"x_min":7,"x_max":1610,"o":"m 814 1069 l 1096 549 l 1311 1069 l 1610 1069 l 1140 -14 l 1128 -14 l 808 583 l 489 -14 l 476 -14 l 7 1069 l 306 1069 l 519 549 l 803 1069 l 814 1069 z "},"X":{"ha":1078,"x_min":-3,"x_max":1081,"o":"m 775 0 l 539 339 l 303 0 l -3 0 l 386 560 l 32 1069 l 338 1069 l 539 779 l 740 1069 l 1046 1069 l 692 560 l 1081 0 l 775 0 z "},"Y":{"ha":1056,"x_min":-21,"x_max":1076,"o":"m 267 1069 l 528 592 l 789 1069 l 1076 1069 l 667 375 l 667 0 l 389 0 l 389 375 l -21 1069 l 267 1069 z "},"Z":{"ha":922,"x_min":17,"x_max":906,"o":"m 17 6 l 492 833 l 72 833 l 72 1069 l 906 1069 l 906 1064 l 431 236 l 892 236 l 892 0 l 17 0 l 17 6 z "},"[":{"ha":408,"x_min":33,"x_max":383,"o":"m 383 -61 l 383 -250 l 33 -250 l 33 1153 l 383 1153 l 383 964 l 279 964 l 279 -61 l 383 -61 z "},"\\":{"ha":814,"x_min":1,"x_max":844,"o":"m 619 -250 l 1 1153 l 226 1153 l 844 -250 l 619 -250 z "},"]":{"ha":408,"x_min":25,"x_max":375,"o":"m 25 -250 l 25 -61 l 129 -61 l 129 964 l 25 964 l 25 1153 l 375 1153 l 375 -250 l 25 -250 z "},"^":{"ha":769,"x_min":29,"x_max":740,"o":"m 479 1089 l 740 417 l 510 417 l 385 793 l 260 417 l 29 417 l 290 1089 l 479 1089 z "},"_":{"ha":608,"x_min":26,"x_max":582,"o":"m 582 -111 l 582 -292 l 26 -292 l 26 -111 l 582 -111 z "},"`":{"ha":524,"x_min":79,"x_max":357,"o":"m 357 876 l 336 840 l 79 917 l 156 1050 l 357 876 z "},"a":{"ha":922,"x_min":13,"x_max":904,"o":"m 127 103 q 70 164 127 103 q 13 396 13 224 q 127 688 13 568 q 411 808 242 808 q 658 738 547 808 l 658 792 l 904 792 l 904 0 l 660 0 l 660 56 q 411 -17 550 -17 q 127 103 242 -17 m 601 253 q 630 283 601 253 q 660 396 660 313 q 601 538 660 479 q 458 597 542 597 q 315 540 372 597 q 257 396 257 482 q 315 252 257 310 q 458 194 372 194 q 601 253 542 194 z "},"b":{"ha":922,"x_min":18,"x_max":910,"o":"m 795 688 q 852 628 795 688 q 910 396 910 568 q 795 103 910 224 q 511 -17 681 -17 q 263 56 372 -17 l 263 0 l 18 0 l 18 1097 l 268 1097 l 268 740 q 511 808 375 808 q 795 688 681 808 m 322 538 q 292 509 322 538 q 263 396 263 479 q 322 253 263 313 q 464 194 381 194 q 608 252 550 194 q 665 396 665 310 q 608 540 665 482 q 464 597 550 597 q 322 538 381 597 z "},"c":{"ha":758,"x_min":13,"x_max":750,"o":"m 306 533 q 282 508 306 533 q 257 396 257 483 q 306 258 257 308 q 438 208 356 208 q 582 282 536 208 l 750 114 q 438 -17 644 -17 q 131 99 250 -17 q 13 396 13 214 q 131 693 13 578 q 438 808 250 808 q 750 678 644 808 l 582 510 q 438 583 536 583 q 306 533 356 583 z "},"d":{"ha":922,"x_min":13,"x_max":904,"o":"m 127 103 q 70 164 127 103 q 13 396 13 224 q 127 688 13 568 q 411 808 242 808 q 654 740 547 808 l 654 1097 l 904 1097 l 904 0 l 660 0 l 660 56 q 411 -17 550 -17 q 127 103 242 -17 m 601 253 q 630 283 601 253 q 660 396 660 313 q 601 538 660 479 q 458 597 542 597 q 315 540 372 597 q 257 396 257 482 q 315 252 257 310 q 458 194 372 194 q 601 253 542 194 z "},"e":{"ha":847,"x_min":13,"x_max":835,"o":"m 454 189 q 696 286 611 189 l 835 149 q 447 -17 701 -17 q 128 103 243 -17 q 13 396 13 222 q 132 687 13 565 q 435 808 251 808 q 726 690 617 808 q 835 396 835 571 l 835 313 l 267 313 q 454 189 303 189 m 431 603 q 264 479 296 603 l 585 479 q 431 603 561 603 z "},"f":{"ha":563,"x_min":11,"x_max":569,"o":"m 518 792 l 518 597 l 365 597 l 365 0 l 115 0 l 115 597 l 11 597 l 11 792 l 115 792 l 115 853 q 188 1041 115 968 q 379 1114 261 1114 q 569 1053 497 1114 l 483 874 q 435 889 461 889 q 385 871 404 889 q 365 824 365 853 l 365 792 l 518 792 z "},"g":{"ha":883,"x_min":4,"x_max":865,"o":"m 865 54 l 864 54 q 727 -213 858 -115 q 399 -311 596 -311 q 4 -136 133 -311 l 150 11 q 250 -72 186 -39 q 393 -106 314 -106 q 551 -62 490 -106 q 615 47 613 -19 l 615 106 q 406 39 522 39 q 138 149 246 39 q 29 424 29 260 q 138 698 29 588 q 406 808 246 808 q 621 738 522 808 l 621 792 l 865 792 l 865 54 m 572 299 q 596 323 572 299 q 621 424 621 347 q 572 549 621 500 q 447 597 522 597 q 322 549 371 597 q 274 424 274 500 q 322 299 274 347 q 447 250 371 250 q 572 299 522 250 z "},"h":{"ha":790,"x_min":18,"x_max":774,"o":"m 268 1097 l 268 732 q 497 808 354 808 q 693 738 613 808 q 774 550 774 667 l 774 0 l 524 0 l 524 503 q 489 577 522 549 q 407 606 456 606 q 307 573 346 606 q 268 483 268 540 l 268 0 l 18 0 l 18 1097 l 268 1097 z "},"i":{"ha":306,"x_min":14,"x_max":292,"o":"m 278 792 l 278 0 l 28 0 l 28 792 l 278 792 m 55 877 q 34 898 55 877 q 14 975 14 918 q 55 1073 14 1032 q 153 1114 96 1114 q 251 1073 210 1114 q 292 975 292 1032 q 251 877 292 918 q 153 836 210 836 q 55 877 96 836 z "},"j":{"ha":306,"x_min":-176,"x_max":292,"o":"m 55 877 q 34 898 55 877 q 14 975 14 918 q 55 1073 14 1032 q 153 1114 96 1114 q 251 1073 210 1114 q 292 975 292 1032 q 251 877 292 918 q 153 836 210 836 q 55 877 96 836 m 28 -18 l 28 792 l 278 792 l 278 -47 q 205 -235 278 -162 q 14 -308 132 -308 q -176 -247 -104 -308 l -90 -68 q -42 -83 -67 -83 q 8 -65 -11 -83 q 28 -18 28 -47 z "},"k":{"ha":815,"x_min":18,"x_max":813,"o":"m 268 1097 l 268 554 l 479 792 l 782 792 l 493 490 l 813 0 l 515 0 l 332 321 l 268 253 l 268 0 l 18 0 l 18 1097 l 268 1097 z "},"l":{"ha":286,"x_min":18,"x_max":268,"o":"m 18 0 l 18 1097 l 268 1097 l 268 0 l 18 0 z "},"m":{"ha":1193,"x_min":18,"x_max":1176,"o":"m 263 792 l 263 726 q 485 808 347 808 q 603 778 549 808 q 689 694 658 749 q 939 808 775 808 q 1108 741 1039 808 q 1176 558 1176 674 l 1176 0 l 926 0 l 926 519 q 838 606 922 606 q 756 577 790 606 q 722 489 722 549 l 722 0 l 472 0 l 472 519 q 383 606 468 606 q 303 578 338 606 q 268 494 269 551 l 268 0 l 18 0 l 18 792 l 263 792 z "},"n":{"ha":790,"x_min":18,"x_max":774,"o":"m 524 0 l 524 499 q 490 576 524 546 q 407 606 457 606 q 308 574 347 606 q 268 489 269 543 l 268 0 l 18 0 l 18 792 l 263 792 l 263 728 q 497 808 350 808 q 693 738 613 808 q 774 550 774 667 l 774 0 l 524 0 z "},"o":{"ha":875,"x_min":13,"x_max":863,"o":"m 744 693 q 803 635 744 693 q 863 396 863 578 q 744 99 863 214 q 438 -17 625 -17 q 131 99 250 -17 q 13 396 13 214 q 131 693 13 578 q 438 808 250 808 q 744 693 625 808 m 306 533 q 282 508 306 533 q 257 396 257 483 q 306 258 257 308 q 438 208 356 208 q 569 258 519 208 q 618 396 618 308 q 569 533 618 483 q 438 583 519 583 q 306 533 356 583 z "},"p":{"ha":922,"x_min":18,"x_max":910,"o":"m 795 688 q 852 628 795 688 q 910 396 910 568 q 795 103 910 224 q 511 -17 681 -17 q 268 51 372 -17 l 268 -292 l 18 -292 l 18 792 l 263 792 l 263 736 q 511 808 372 808 q 795 688 681 808 m 322 538 q 292 509 322 538 q 263 396 263 479 q 322 253 263 313 q 464 194 381 194 q 608 252 550 194 q 665 396 665 310 q 608 540 665 482 q 464 597 550 597 q 322 538 381 597 z "},"q":{"ha":922,"x_min":13,"x_max":904,"o":"m 127 103 q 70 164 127 103 q 13 396 13 224 q 127 688 13 568 q 411 808 242 808 q 660 736 550 808 l 660 792 l 904 792 l 904 -292 l 654 -292 l 654 51 q 411 -17 550 -17 q 127 103 242 -17 m 601 253 q 630 283 601 253 q 660 396 660 313 q 601 538 660 479 q 458 597 542 597 q 315 540 372 597 q 257 396 257 482 q 315 252 257 310 q 458 194 372 194 q 601 253 542 194 z "},"r":{"ha":550,"x_min":18,"x_max":547,"o":"m 263 792 l 263 733 q 429 808 324 808 q 547 765 507 808 l 468 563 q 401 583 442 583 q 305 547 342 583 q 268 446 268 511 l 268 0 l 18 0 l 18 792 l 263 792 z "},"s":{"ha":696,"x_min":8,"x_max":686,"o":"m 353 -17 q 8 125 124 -17 l 156 269 q 340 181 228 181 q 444 238 444 181 q 415 286 444 271 q 300 315 385 301 q 110 400 174 336 q 46 547 46 464 q 138 737 46 665 q 361 808 229 808 q 534 773 458 808 q 650 672 610 738 l 521 546 q 375 611 474 611 q 288 557 288 611 q 296 533 288 543 q 329 515 304 524 q 373 503 354 507 q 440 489 392 499 q 622 407 558 465 q 686 239 686 349 q 588 56 686 128 q 353 -17 490 -17 z "},"t":{"ha":594,"x_min":11,"x_max":576,"o":"m 553 792 l 553 597 l 372 597 l 372 274 q 392 226 372 244 q 442 208 411 208 q 490 224 467 208 l 576 44 q 386 -17 504 -17 q 195 56 268 -17 q 122 244 122 129 l 122 597 l 11 597 l 11 792 l 122 792 l 122 975 l 372 975 l 372 792 l 553 792 z "},"u":{"ha":790,"x_min":17,"x_max":772,"o":"m 267 792 l 267 293 q 300 216 267 246 q 383 186 333 186 q 483 219 444 186 q 522 308 522 251 l 522 792 l 772 792 l 772 0 l 528 0 l 528 64 q 293 -17 443 -17 q 97 54 178 -17 q 17 242 17 125 l 17 792 l 267 792 z "},"v":{"ha":872,"x_min":6,"x_max":867,"o":"m 274 792 l 436 456 l 599 792 l 867 792 l 439 -17 l 433 -17 l 6 792 l 274 792 z "},"w":{"ha":1225,"x_min":8,"x_max":1217,"o":"m 615 800 l 838 438 l 972 792 l 1217 792 l 888 -17 l 882 -17 l 613 436 l 343 -17 l 338 -17 l 8 792 l 253 792 l 388 438 l 610 800 l 615 800 z "},"x":{"ha":933,"x_min":8,"x_max":925,"o":"m 8 0 l 317 404 l 22 792 l 321 792 l 467 600 l 613 792 l 911 792 l 615 404 l 925 0 l 626 0 l 467 208 l 307 0 l 8 0 z "},"y":{"ha":961,"x_min":3,"x_max":957,"o":"m 456 -292 l 161 -292 l 318 38 l 3 792 l 286 792 l 463 342 l 665 792 l 957 792 l 456 -292 z "},"z":{"ha":758,"x_min":11,"x_max":747,"o":"m 11 11 l 389 603 l 53 603 l 53 792 l 747 792 l 747 781 l 369 189 l 747 189 l 747 0 l 11 0 l 11 11 z "},"{":{"ha":454,"x_min":4,"x_max":429,"o":"m 336 313 l 336 10 q 356 -42 336 -22 q 407 -61 375 -61 l 429 -61 l 429 -250 l 264 -250 q 142 -197 194 -250 q 90 -76 90 -144 l 90 304 q 71 356 90 336 q 19 375 51 375 l 4 375 l 4 528 l 19 528 q 71 547 51 528 q 90 599 90 567 l 90 979 q 142 1100 90 1047 q 264 1153 194 1153 l 429 1153 l 429 964 l 407 964 q 356 944 375 964 q 336 893 336 925 l 336 590 q 263 451 336 506 q 336 313 336 394 z "},"|":{"ha":299,"x_min":26,"x_max":272,"o":"m 26 -250 l 26 1153 l 272 1153 l 272 -250 l 26 -250 z "},"}":{"ha":454,"x_min":25,"x_max":450,"o":"m 118 10 l 118 313 q 190 451 118 396 q 118 590 118 506 l 118 893 q 99 944 118 925 q 47 964 79 964 l 25 964 l 25 1153 l 190 1153 q 311 1100 258 1153 q 364 979 364 1047 l 364 599 q 383 547 364 567 q 435 528 403 528 l 450 528 l 450 375 l 435 375 q 383 356 403 375 q 364 304 364 336 l 364 -76 q 311 -197 364 -144 q 190 -250 258 -250 l 25 -250 l 25 -61 l 47 -61 q 99 -42 79 -61 q 118 10 118 -22 z "},"~":{"ha":682,"x_min":6,"x_max":678,"o":"m 506 674 l 678 674 q 622 490 678 558 q 465 421 567 421 q 369 445 413 421 q 292 494 326 469 q 228 519 258 519 q 178 449 178 519 l 6 449 q 61 633 6 564 q 218 701 117 701 q 314 677 271 701 q 391 628 357 653 q 456 603 425 603 q 506 674 506 603 z "},"¡":{"ha":317,"x_min":6,"x_max":311,"o":"m 6 -292 l 61 472 l 256 472 l 311 -292 l 6 -292 m 256 765 q 277 744 256 765 q 297 667 297 724 q 256 569 297 610 q 158 528 215 528 q 60 569 101 528 q 19 667 19 610 q 60 765 19 724 q 158 806 101 806 q 256 765 215 806 z "},"¢":{"ha":658,"x_min":8,"x_max":644,"o":"m 8 535 q 106 826 8 722 q 350 938 204 929 l 408 1069 l 607 1069 l 532 903 q 644 800 592 868 l 500 663 q 381 740 438 740 q 292 688 324 740 q 260 535 260 636 q 292 381 260 433 q 381 329 324 329 q 500 407 438 329 l 644 269 q 530 165 590 200 q 378 131 469 131 q 339 132 351 131 l 281 0 l 82 0 l 168 192 q 8 535 8 297 z "},"£":{"ha":888,"x_min":14,"x_max":874,"o":"m 14 626 l 107 626 q 93 772 93 699 q 197 1002 93 914 q 483 1090 301 1090 q 730 1034 638 1090 q 874 858 822 978 l 651 731 q 503 851 600 851 q 417 815 451 851 q 383 731 383 779 q 394 626 383 678 l 664 626 l 664 404 l 449 404 q 467 222 465 321 l 872 222 l 872 0 l 14 0 l 14 222 l 190 222 q 164 404 185 317 l 14 404 l 14 626 z "},"¥":{"ha":1003,"x_min":-6,"x_max":1008,"o":"m 279 1069 l 501 633 l 724 1069 l 1008 1069 l 715 554 l 918 554 l 918 393 l 635 393 l 635 329 l 918 329 l 918 168 l 636 168 l 639 0 l 364 0 l 365 168 l 85 168 l 85 329 l 367 329 l 368 393 l 85 393 l 85 554 l 288 554 l -6 1069 l 279 1069 z "},"¦":{"ha":299,"x_min":26,"x_max":272,"o":"m 26 -250 l 26 400 l 272 400 l 272 -250 l 26 -250 m 26 503 l 26 1153 l 272 1153 l 272 503 l 26 503 z "},"§":{"ha":2446,"x_min":-112,"x_max":2440,"o":"m 972 5782 l 972 4713 l 694 4713 l 694 5143 l 278 5143 l 278 4713 l 0 4713 l 0 5782 l 278 5782 l 278 5379 l 694 5379 l 694 5782 l 972 5782 m 832 3528 l 832 4597 l 1325 4597 q 1585 4489 1478 4597 q 1693 4229 1693 4381 q 1585 3969 1693 4078 q 1325 3861 1478 3861 l 1110 3861 l 1110 3528 l 832 3528 m 750 2579 l 750 2343 l 0 2343 l 0 3413 l 750 3413 l 750 3176 l 278 3176 l 278 3010 l 667 3010 l 667 2774 l 278 2774 l 278 2579 l 750 2579 m 842 3426 l 1572 2857 l 1558 3413 l 1836 3413 l 1836 3161 l 1561 2539 l 1100 2899 l 1114 2343 l 836 2343 l 836 3426 l 842 3426 m 1846 4713 l 1778 4851 l 1368 4851 l 1301 4713 l 1011 4713 l 1571 5796 l 1576 5796 l 2136 4713 l 1846 4713 m 411 2242 l 1142 1672 l 1128 2228 l 1406 2228 l 1406 2183 l 1063 1407 l 669 1714 l 683 1158 l 406 1158 l 406 2242 l 411 2242 m 450 208 q 542 222 499 208 l 422 -49 q 45 118 203 -40 q -112 507 -112 276 q 50 902 -112 742 q 450 1063 213 1063 q 847 917 690 1063 l 740 675 q 617 775 681 744 q 450 806 553 806 q 247 719 329 806 q 165 507 165 633 q 247 294 165 381 q 450 208 329 208 m 2219 4097 q 2250 4101 2236 4097 l 2144 3861 l 2046 3861 l 2046 3636 l 1997 3528 l 1768 3528 l 1768 4597 l 2261 4597 q 2440 4536 2375 4597 l 2335 4293 q 2219 4361 2294 4361 l 2046 4361 l 2046 4097 l 2219 4097 m 278 2228 l 278 1158 l 0 1158 l 0 2228 l 278 2228 m 1283 4361 l 1110 4361 l 1110 4097 l 1283 4097 q 1376 4136 1338 4097 q 1415 4229 1415 4175 q 1376 4322 1415 4283 q 1283 4361 1338 4361 m 457 361 l 457 597 l 707 597 l 603 361 l 457 361 m 1574 5271 l 1483 5088 l 1663 5088 l 1574 5271 z "},"¨":{"ha":750,"x_min":56,"x_max":694,"o":"m 97 877 q 76 898 97 877 q 56 975 56 918 q 97 1073 56 1032 q 194 1114 138 1114 q 292 1073 251 1114 q 333 975 333 1032 q 292 877 333 918 q 194 836 251 836 q 97 877 138 836 m 458 877 q 437 898 458 877 q 417 975 417 918 q 458 1073 417 1032 q 556 1114 499 1114 q 653 1073 613 1114 q 694 975 694 1032 q 653 877 694 918 q 556 836 613 836 q 458 877 499 836 z "},"©":{"ha":1144,"x_min":24,"x_max":1121,"o":"m 184 147 q 104 228 184 147 q 24 535 24 308 q 184 922 24 761 q 572 1083 344 1083 q 960 922 800 1083 q 1121 535 1121 761 q 960 147 1121 308 q 572 -14 800 -14 q 184 147 344 -14 m 243 864 q 175 796 243 864 q 107 535 107 728 q 243 206 107 342 q 572 69 379 69 q 901 206 765 69 q 1038 535 1038 342 q 901 864 1038 728 q 572 1000 765 1000 q 243 864 379 1000 m 492 631 q 475 613 492 631 q 457 535 457 596 q 492 439 457 474 q 585 404 528 404 q 689 456 658 404 l 807 336 q 585 244 735 244 q 369 326 453 244 q 285 535 285 407 q 369 744 285 663 q 585 825 453 825 q 807 733 735 825 l 689 614 q 585 665 658 665 q 492 631 528 665 z "},"ª":{"ha":490,"x_min":11,"x_max":474,"o":"m 333 681 l 333 728 q 203 669 282 669 q 65 728 119 669 q 11 875 11 786 q 65 1022 11 964 q 203 1081 119 1081 q 333 1022 282 1081 l 333 1069 l 474 1069 l 474 681 l 333 681 m 161 875 q 185 815 161 838 q 243 793 208 793 q 301 815 278 793 q 324 875 324 838 q 301 935 324 914 q 243 956 279 956 q 184 935 207 956 q 161 875 161 914 z "},"«":{"ha":624,"x_min":29,"x_max":585,"o":"m 307 611 l 144 451 l 307 292 l 307 125 l 29 326 l 29 576 l 307 778 l 307 611 m 585 625 l 422 451 l 585 278 l 585 111 l 307 340 l 307 563 l 585 792 l 585 625 z "},"®":{"ha":542,"x_min":21,"x_max":521,"o":"m 447 769 q 410 732 447 769 q 271 696 374 696 q 94 769 168 696 q 21 943 21 842 q 94 1117 21 1044 q 271 1190 168 1190 q 447 1117 374 1190 q 521 943 521 1044 q 447 769 521 842 m 122 794 q 152 763 122 794 q 271 732 183 732 q 420 794 358 732 q 482 943 482 856 q 420 1092 482 1031 q 271 1154 358 1154 q 122 1092 183 1154 q 60 943 60 1031 q 122 794 60 856 m 394 996 q 347 910 394 940 l 400 792 l 321 792 l 275 894 l 240 894 l 240 792 l 160 792 l 160 1097 l 293 1097 q 365 1067 335 1097 q 394 996 394 1038 m 282 1031 l 240 1031 l 240 963 l 282 963 q 306 972 296 963 q 315 996 315 982 q 306 1020 315 1010 q 282 1031 296 1031 z "},"¯":{"ha":592,"x_min":101,"x_max":490,"o":"m 490 990 l 490 876 l 101 876 l 101 990 l 490 990 z "},"°":{"ha":586,"x_min":31,"x_max":556,"o":"m 108 641 q 69 680 108 641 q 31 826 31 718 q 108 1012 31 935 q 293 1089 185 1089 q 478 1012 401 1089 q 556 826 556 935 q 478 641 556 718 q 293 564 401 564 q 108 641 185 564 m 222 901 q 208 887 222 901 q 193 826 193 872 q 222 751 193 781 q 293 722 251 722 q 364 751 335 722 q 393 826 393 781 q 364 901 393 872 q 293 931 335 931 q 222 901 251 931 z "},"±":{"ha":750,"x_min":35,"x_max":715,"o":"m 281 444 l 281 579 l 35 579 l 35 768 l 281 768 l 281 903 l 469 903 l 469 768 l 715 768 l 715 579 l 469 579 l 469 444 l 281 444 m 35 356 l 715 356 l 715 167 l 35 167 l 35 356 z "},"²":{"ha":449,"x_min":18,"x_max":433,"o":"m 224 1079 q 372 1034 318 1079 q 426 921 426 989 q 415 861 426 892 q 390 813 403 831 q 354 765 378 796 l 256 646 l 433 646 l 433 535 l 18 535 l 18 536 l 235 808 q 274 900 274 856 q 256 942 274 924 q 213 960 239 960 q 132 900 157 960 l 21 964 q 224 1079 71 1079 z "},"³":{"ha":447,"x_min":11,"x_max":433,"o":"m 218 643 q 301 703 301 643 q 226 760 301 760 l 135 760 l 135 868 l 228 868 q 286 914 286 868 q 225 960 286 960 q 143 913 168 960 l 31 978 q 101 1052 51 1025 q 222 1079 151 1079 q 369 1033 319 1079 q 418 921 418 988 q 363 815 418 851 q 433 694 433 769 q 376 571 433 618 q 214 524 318 524 q 11 639 61 524 l 122 704 q 218 643 147 643 z "},"´":{"ha":524,"x_min":167,"x_max":444,"o":"m 188 840 l 167 876 l 368 1050 l 444 917 l 188 840 z "},"¶":{"ha":4829,"x_min":0,"x_max":4829,"o":"m 1624 3192 l 461 5879 l 982 5879 l 1629 4339 l 2400 5982 l 3176 4339 l 3838 5879 l 4358 5879 l 3169 3186 l 2400 4883 l 1624 3192 m 1629 1718 q 1540 1456 1629 1558 q 1285 1354 1450 1354 q 1037 1453 1129 1354 q 944 1713 944 1551 q 1045 1978 944 1888 q 1289 2068 1146 2068 q 1533 1974 1436 2068 q 1629 1718 1629 1879 m 1531 1717 q 1467 1919 1531 1843 q 1289 1996 1404 1996 q 1105 1915 1167 1996 q 1043 1710 1043 1835 q 1106 1510 1043 1593 q 1289 1426 1168 1426 q 1433 1472 1376 1426 q 1510 1578 1489 1517 q 1531 1717 1531 1640 m 4600 1674 l 4544 1685 q 4500 1695 4514 1692 q 4456 1708 4486 1699 q 4408 1726 4425 1718 q 4369 1750 4392 1735 q 4334 1783 4346 1765 q 4313 1825 4322 1800 q 4304 1879 4304 1850 q 4378 2018 4304 1968 q 4550 2068 4453 2068 q 4818 1858 4793 2068 l 4725 1851 q 4550 1999 4713 1999 q 4442 1971 4486 1999 q 4397 1893 4397 1943 q 4407 1853 4397 1871 q 4426 1827 4417 1836 q 4459 1808 4435 1818 q 4492 1796 4483 1799 q 4531 1786 4501 1793 l 4606 1767 q 4633 1759 4608 1765 q 4665 1751 4658 1753 q 4694 1741 4671 1749 q 4725 1729 4717 1733 q 4752 1715 4733 1725 q 4778 1697 4771 1706 q 4798 1674 4785 1688 q 4816 1644 4811 1660 q 4825 1610 4821 1629 q 4829 1568 4829 1590 q 4752 1406 4829 1458 q 4560 1354 4675 1354 q 4506 1357 4532 1354 q 4437 1373 4481 1360 q 4361 1409 4393 1386 q 4302 1478 4329 1432 q 4271 1589 4275 1525 l 4368 1603 q 4425 1472 4369 1519 q 4564 1424 4481 1424 q 4684 1460 4636 1424 q 4732 1561 4732 1497 q 4700 1636 4732 1614 q 4600 1674 4668 1658 m 525 1372 l 525 1683 l 160 1683 l 160 1372 l 65 1372 l 65 2051 l 160 2051 l 160 1764 l 525 1764 l 525 2051 l 618 2051 l 618 1372 l 525 1372 m 3163 1682 l 2838 1682 l 2838 1451 l 3229 1451 l 3229 1372 l 2744 1372 l 2744 2051 l 3215 2051 l 3215 1971 l 2838 1971 l 2838 1761 l 3163 1761 l 3163 1682 m 940 426 q 1092 367 1036 426 q 1149 208 1149 307 q 1092 50 1149 110 q 940 -10 1036 -10 q 787 50 843 -10 q 731 208 731 110 q 787 367 731 307 q 940 426 843 426 m 2372 0 l 2372 417 l 2532 417 q 2670 360 2622 417 q 2718 208 2718 303 q 2670 57 2718 114 q 2532 0 2622 0 l 2372 0 m 3963 0 l 3963 417 l 4118 417 q 4256 360 4208 417 q 4304 208 4304 303 q 4256 57 4304 114 q 4118 0 4208 0 l 3963 0 m 2382 1971 l 2176 1971 l 2176 1372 l 2089 1372 l 2089 1971 l 1885 1971 l 1885 2051 l 2382 2051 l 2382 1971 m 1358 0 l 1358 417 l 1544 417 q 1640 388 1601 417 q 1679 297 1679 360 q 1582 181 1679 194 l 1699 0 l 1633 0 l 1521 176 l 1414 176 l 1414 0 l 1358 0 m 3707 2051 l 3707 1453 l 4032 1453 l 4032 1372 l 3614 1372 l 3614 2051 l 3707 2051 m 131 0 l 0 417 l 61 417 l 160 89 l 265 417 l 321 417 l 428 89 l 525 417 l 582 417 l 456 0 l 399 0 l 293 339 l 186 0 l 131 0 m 940 33 q 1051 83 1013 33 q 1089 208 1089 133 q 1051 332 1089 282 q 940 382 1014 382 q 827 332 867 382 q 788 208 788 282 q 827 84 788 135 q 940 33 867 33 m 3010 0 l 2885 417 l 2944 417 l 3043 89 l 3146 417 l 3200 417 l 3308 89 l 3406 417 l 3465 417 l 3335 0 l 3285 0 l 3172 339 l 3067 0 l 3010 0 m 2429 368 l 2429 49 l 2522 49 q 2656 211 2656 49 q 2526 368 2656 368 l 2429 368 m 4018 368 l 4018 49 l 4108 49 q 4242 211 4242 49 q 4111 368 4242 368 l 4018 368 m 4490 0 l 4490 417 l 4782 417 l 4782 368 l 4544 368 l 4544 240 l 4749 240 l 4749 192 l 4544 192 l 4544 49 l 4786 49 l 4786 0 l 4490 0 m 1899 0 l 1899 417 l 1954 417 l 1954 49 l 2164 49 l 2164 0 l 1899 0 m 1414 368 l 1414 225 l 1536 225 q 1624 297 1624 225 q 1536 368 1624 368 l 1414 368 m 3667 1 l 3667 417 l 3721 417 l 3721 1 l 3667 1 z "},"·":{"ha":319,"x_min":21,"x_max":299,"o":"m 258 659 q 278 639 258 659 q 299 561 299 618 q 258 463 299 504 q 160 422 217 422 q 62 463 103 422 q 21 561 21 504 q 62 659 21 618 q 160 700 103 700 q 258 659 217 700 z "},"¸":{"ha":506,"x_min":121,"x_max":454,"o":"m 271 -224 q 338 -181 338 -224 q 208 -108 338 -126 l 244 22 l 297 22 l 281 -40 q 408 -91 361 -56 q 454 -175 454 -126 q 403 -262 454 -233 q 278 -292 353 -292 q 121 -249 178 -292 l 144 -197 q 271 -224 201 -224 z "},"¹":{"ha":258,"x_min":13,"x_max":238,"o":"m 99 535 l 99 951 l 13 951 l 67 1069 l 238 1069 l 238 535 l 99 535 z "},"º":{"ha":472,"x_min":11,"x_max":461,"o":"m 398 1024 q 430 995 398 1024 q 461 875 461 967 q 398 726 461 783 q 236 669 335 669 q 74 726 138 669 q 11 875 11 783 q 74 1024 11 967 q 236 1081 138 1081 q 398 1024 335 1081 m 294 816 q 306 827 294 816 q 318 875 318 839 q 294 934 318 911 q 236 957 271 957 q 178 934 201 957 q 154 875 154 911 q 178 816 154 839 q 236 793 201 793 q 294 816 271 793 z "},"»":{"ha":624,"x_min":39,"x_max":594,"o":"m 479 451 l 317 611 l 317 778 l 594 576 l 594 326 l 317 125 l 317 292 l 479 451 m 201 451 l 39 625 l 39 792 l 317 563 l 317 340 l 39 111 l 39 278 l 201 451 z "},"¼":{"ha":1038,"x_min":13,"x_max":1025,"o":"m 821 1069 l 200 0 l 43 0 l 664 1069 l 821 1069 m 964 542 l 964 213 l 1025 213 l 1025 94 l 964 94 l 964 0 l 825 0 l 825 94 l 601 94 l 601 185 l 872 542 l 964 542 m 99 535 l 99 951 l 13 951 l 67 1069 l 238 1069 l 238 535 l 99 535 m 765 213 l 825 213 l 825 294 l 765 213 z "},"½":{"ha":1047,"x_min":13,"x_max":1032,"o":"m 821 1069 l 200 0 l 43 0 l 664 1069 l 821 1069 m 822 544 q 971 499 917 544 q 1025 386 1025 454 q 1013 326 1025 357 q 989 278 1001 296 q 953 231 976 261 l 854 111 l 1032 111 l 1032 0 l 617 0 l 617 1 l 833 274 q 872 365 872 321 q 855 407 872 389 q 811 425 838 425 q 731 365 756 425 l 619 429 q 822 544 669 544 m 99 535 l 99 951 l 13 951 l 67 1069 l 238 1069 l 238 535 l 99 535 z "},"¾":{"ha":1213,"x_min":11,"x_max":1200,"o":"m 996 1069 l 375 0 l 218 0 l 839 1069 l 996 1069 m 218 643 q 301 703 301 643 q 226 760 301 760 l 135 760 l 135 868 l 228 868 q 286 914 286 868 q 225 960 286 960 q 143 913 168 960 l 31 978 q 101 1052 51 1025 q 222 1079 151 1079 q 369 1033 319 1079 q 418 921 418 988 q 363 815 418 851 q 433 694 433 769 q 376 571 433 618 q 214 524 318 524 q 11 639 61 524 l 122 704 q 218 643 147 643 m 1139 542 l 1139 213 l 1200 213 l 1200 94 l 1139 94 l 1139 0 l 1000 0 l 1000 94 l 776 94 l 776 185 l 1047 542 l 1139 542 m 940 213 l 1000 213 l 1000 294 l 940 213 z "},"¿":{"ha":857,"x_min":7,"x_max":850,"o":"m 436 -72 q 628 49 578 -72 l 850 -81 q 431 -311 750 -311 q 115 -217 224 -311 q 7 31 7 -124 q 97 258 7 179 q 324 356 186 336 l 333 478 l 528 478 l 551 161 l 418 161 q 304 131 339 158 q 269 47 269 103 q 313 -41 269 -10 q 436 -72 357 -72 m 528 770 q 549 750 528 770 q 569 672 569 729 q 528 574 569 615 q 431 533 488 533 q 333 574 374 533 q 292 672 292 615 q 333 770 292 729 q 431 811 374 811 q 528 770 488 811 z "},"À":{"ha":1125,"x_min":0,"x_max":1125,"o":"m 835 0 l 767 139 l 357 139 l 290 0 l 0 0 l 560 1083 l 565 1083 l 1125 0 l 835 0 m 563 558 l 472 375 l 651 375 l 563 558 m 642 1150 l 633 1097 l 383 1117 l 400 1222 l 642 1150 z "},"Á":{"ha":1125,"x_min":0,"x_max":1125,"o":"m 835 0 l 767 139 l 357 139 l 290 0 l 0 0 l 560 1083 l 565 1083 l 1125 0 l 835 0 m 563 558 l 472 375 l 651 375 l 563 558 m 493 1097 l 485 1150 l 726 1222 l 743 1117 l 493 1097 z "},"Â":{"ha":1125,"x_min":0,"x_max":1125,"o":"m 835 0 l 767 139 l 357 139 l 290 0 l 0 0 l 560 1083 l 565 1083 l 1125 0 l 835 0 m 325 1090 l 317 1143 l 563 1236 l 808 1143 l 800 1090 l 563 1142 l 325 1090 m 563 558 l 472 375 l 651 375 l 563 558 z "},"Ã":{"ha":1125,"x_min":0,"x_max":1125,"o":"m 835 0 l 767 139 l 357 139 l 290 0 l 0 0 l 560 1083 l 565 1083 l 1125 0 l 835 0 m 563 558 l 472 375 l 651 375 l 563 558 m 675 1178 q 753 1221 731 1178 l 808 1221 q 760 1127 796 1164 q 668 1090 725 1090 q 555 1120 622 1090 q 453 1150 488 1150 q 375 1107 397 1150 l 319 1107 q 367 1201 332 1164 q 460 1238 403 1238 q 573 1208 506 1238 q 675 1178 640 1178 z "},"Ä":{"ha":1125,"x_min":0,"x_max":1125,"o":"m 835 0 l 767 139 l 357 139 l 290 0 l 0 0 l 560 1083 l 565 1083 l 1125 0 l 835 0 m 563 558 l 472 375 l 651 375 l 563 558 m 376 1110 q 366 1120 376 1110 q 356 1160 356 1131 q 376 1209 356 1189 q 425 1229 396 1229 q 474 1209 454 1229 q 494 1160 494 1189 q 474 1110 494 1131 q 425 1090 454 1090 q 376 1110 396 1090 m 653 1110 q 643 1120 653 1110 q 633 1160 633 1131 q 653 1209 633 1189 q 703 1229 674 1229 q 752 1209 732 1229 q 772 1160 772 1189 q 752 1110 772 1131 q 703 1090 732 1090 q 653 1110 674 1090 z "},"Å":{"ha":1125,"x_min":0,"x_max":1125,"o":"m 563 558 l 472 375 l 651 375 l 563 558 m 612 1056 q 622 1066 612 1056 q 632 1104 632 1076 q 612 1152 632 1132 q 564 1172 592 1172 q 516 1152 536 1172 q 496 1104 496 1132 q 516 1056 496 1076 q 564 1036 536 1036 q 612 1056 592 1036 m 440 1104 q 476 1192 440 1156 q 564 1228 513 1228 q 651 1192 615 1228 q 688 1104 688 1156 q 613 990 688 1024 l 1125 0 l 835 0 l 767 139 l 357 139 l 290 0 l 0 0 l 513 992 q 460 1037 479 1007 q 440 1104 440 1067 z "},"Æ":{"ha":1449,"x_min":0,"x_max":1431,"o":"m 835 0 l 767 139 l 357 139 l 290 0 l 0 0 l 553 1069 l 1431 1069 l 1431 833 l 694 833 l 781 667 l 1347 667 l 1347 431 l 903 431 l 1003 236 l 1431 236 l 1431 0 l 835 0 m 563 558 l 472 375 l 651 375 l 563 558 z "},"Ç":{"ha":996,"x_min":14,"x_max":989,"o":"m 561 -224 q 628 -181 628 -224 q 499 -108 628 -126 l 524 -19 q 153 148 293 -3 q 14 535 14 299 q 169 938 14 785 q 576 1090 325 1090 q 988 932 832 1090 l 794 739 q 576 833 715 833 q 369 753 447 833 q 292 535 292 672 q 369 317 292 397 q 576 236 447 236 q 794 331 717 236 l 989 136 q 576 -21 832 -21 l 575 -21 l 571 -40 q 698 -91 651 -56 q 744 -175 744 -126 q 694 -262 744 -233 q 568 -292 643 -292 q 411 -249 468 -292 l 435 -197 q 561 -224 492 -224 z "},"È":{"ha":803,"x_min":35,"x_max":785,"o":"m 785 236 l 785 0 l 35 0 l 35 1069 l 785 1069 l 785 833 l 313 833 l 313 667 l 701 667 l 701 431 l 313 431 l 313 236 l 785 236 m 489 1150 l 481 1097 l 231 1117 l 247 1222 l 489 1150 z "},"É":{"ha":803,"x_min":35,"x_max":785,"o":"m 785 236 l 785 0 l 35 0 l 35 1069 l 785 1069 l 785 833 l 313 833 l 313 667 l 701 667 l 701 431 l 313 431 l 313 236 l 785 236 m 340 1097 l 332 1150 l 574 1222 l 590 1117 l 340 1097 z "},"Ê":{"ha":803,"x_min":35,"x_max":785,"o":"m 785 236 l 785 0 l 35 0 l 35 1069 l 785 1069 l 785 833 l 313 833 l 313 667 l 701 667 l 701 431 l 313 431 l 313 236 l 785 236 m 172 1090 l 164 1143 l 410 1236 l 656 1143 l 647 1090 l 410 1142 l 172 1090 z "},"Ë":{"ha":803,"x_min":35,"x_max":785,"o":"m 785 236 l 785 0 l 35 0 l 35 1069 l 785 1069 l 785 833 l 313 833 l 313 667 l 701 667 l 701 431 l 313 431 l 313 236 l 785 236 m 223 1110 q 213 1120 223 1110 q 203 1160 203 1131 q 223 1209 203 1189 q 272 1229 243 1229 q 322 1209 301 1229 q 342 1160 342 1189 q 322 1110 342 1131 q 272 1090 301 1090 q 223 1110 243 1090 m 501 1110 q 491 1120 501 1110 q 481 1160 481 1131 q 501 1209 481 1189 q 550 1229 521 1229 q 599 1209 579 1229 q 619 1160 619 1189 q 599 1110 619 1131 q 550 1090 579 1090 q 501 1110 521 1090 z "},"Ì":{"ha":347,"x_min":-7,"x_max":313,"o":"m 313 1069 l 313 0 l 35 0 l 35 1069 l 313 1069 m 251 1150 l 243 1097 l -7 1117 l 10 1222 l 251 1150 z "},"Í":{"ha":347,"x_min":35,"x_max":353,"o":"m 313 1069 l 313 0 l 35 0 l 35 1069 l 313 1069 m 103 1097 l 94 1150 l 336 1222 l 353 1117 l 103 1097 z "},"Î":{"ha":347,"x_min":-74,"x_max":418,"o":"m 313 1069 l 313 0 l 35 0 l 35 1069 l 313 1069 m -65 1090 l -74 1143 l 172 1236 l 418 1143 l 410 1090 l 172 1142 l -65 1090 z "},"Ï":{"ha":347,"x_min":7,"x_max":340,"o":"m 313 1069 l 313 0 l 35 0 l 35 1069 l 313 1069 m 27 1110 q 17 1120 27 1110 q 7 1160 7 1131 q 27 1209 7 1189 q 76 1229 47 1229 q 126 1209 106 1229 q 146 1160 146 1189 q 126 1110 146 1131 q 76 1090 106 1090 q 27 1110 47 1090 m 222 1110 q 211 1120 222 1110 q 201 1160 201 1131 q 222 1209 201 1189 q 271 1229 242 1229 q 320 1209 300 1229 q 340 1160 340 1189 q 320 1110 340 1131 q 271 1090 300 1090 q 222 1110 242 1090 z "},"Ð":{"ha":1150,"x_min":11,"x_max":1136,"o":"m 988 919 q 1062 843 988 919 q 1136 535 1136 768 q 988 151 1136 301 q 615 0 839 0 l 150 0 l 150 444 l 11 444 l 11 653 l 150 653 l 150 1069 l 615 1069 q 988 919 839 1069 m 664 653 l 664 444 l 428 444 l 428 236 l 567 236 q 779 317 700 236 q 858 535 858 399 q 779 752 858 671 q 567 833 700 833 l 428 833 l 428 653 l 664 653 z "},"Ñ":{"ha":1069,"x_min":35,"x_max":1035,"o":"m 40 1083 l 771 514 l 757 1069 l 1035 1069 l 1035 -14 l 1029 -14 l 299 556 l 313 0 l 35 0 l 35 1083 l 40 1083 m 633 1178 q 711 1221 689 1178 l 767 1221 q 719 1127 754 1164 q 626 1090 683 1090 q 513 1120 581 1090 q 411 1150 446 1150 q 333 1107 356 1150 l 278 1107 q 326 1201 290 1164 q 418 1238 361 1238 q 531 1208 464 1238 q 633 1178 599 1178 z "},"Ò":{"ha":1153,"x_min":14,"x_max":1139,"o":"m 783 317 q 822 357 783 317 q 861 535 861 397 q 783 753 861 672 q 576 833 706 833 q 369 753 447 833 q 292 535 292 672 q 369 317 292 397 q 576 236 447 236 q 783 317 706 236 m 983 938 q 1061 861 983 938 q 1139 535 1139 785 q 983 132 1139 285 q 576 -21 828 -21 q 169 132 325 -21 q 14 535 14 285 q 169 938 14 785 q 576 1090 325 1090 q 983 938 828 1090 m 656 1150 l 647 1097 l 397 1117 l 414 1222 l 656 1150 z "},"Ó":{"ha":1153,"x_min":14,"x_max":1139,"o":"m 783 317 q 822 357 783 317 q 861 535 861 397 q 783 753 861 672 q 576 833 706 833 q 369 753 447 833 q 292 535 292 672 q 369 317 292 397 q 576 236 447 236 q 783 317 706 236 m 983 938 q 1061 861 983 938 q 1139 535 1139 785 q 983 132 1139 285 q 576 -21 828 -21 q 169 132 325 -21 q 14 535 14 285 q 169 938 14 785 q 576 1090 325 1090 q 983 938 828 1090 m 507 1097 l 499 1150 l 740 1222 l 757 1117 l 507 1097 z "},"Ô":{"ha":1153,"x_min":14,"x_max":1139,"o":"m 983 938 q 1061 861 983 938 q 1139 535 1139 785 q 983 132 1139 285 q 576 -21 828 -21 q 169 132 325 -21 q 14 535 14 285 q 169 938 14 785 q 576 1090 325 1090 q 983 938 828 1090 m 783 317 q 822 357 783 317 q 861 535 861 397 q 783 753 861 672 q 576 833 706 833 q 369 753 447 833 q 292 535 292 672 q 369 317 292 397 q 576 236 447 236 q 783 317 706 236 m 339 1090 l 331 1143 l 576 1236 l 822 1143 l 814 1090 l 576 1142 l 339 1090 z "},"Õ":{"ha":1153,"x_min":14,"x_max":1139,"o":"m 783 317 q 822 357 783 317 q 861 535 861 397 q 783 753 861 672 q 576 833 706 833 q 369 753 447 833 q 292 535 292 672 q 369 317 292 397 q 576 236 447 236 q 783 317 706 236 m 983 938 q 1061 861 983 938 q 1139 535 1139 785 q 983 132 1139 285 q 576 -21 828 -21 q 169 132 325 -21 q 14 535 14 285 q 169 938 14 785 q 576 1090 325 1090 q 983 938 828 1090 m 689 1178 q 767 1221 744 1178 l 822 1221 q 774 1127 810 1164 q 682 1090 739 1090 q 569 1120 636 1090 q 467 1150 501 1150 q 389 1107 411 1150 l 333 1107 q 381 1201 346 1164 q 474 1238 417 1238 q 587 1208 519 1238 q 689 1178 654 1178 z "},"Ö":{"ha":1153,"x_min":14,"x_max":1139,"o":"m 783 317 q 822 357 783 317 q 861 535 861 397 q 783 753 861 672 q 576 833 706 833 q 369 753 447 833 q 292 535 292 672 q 369 317 292 397 q 576 236 447 236 q 783 317 706 236 m 983 938 q 1061 861 983 938 q 1139 535 1139 785 q 983 132 1139 285 q 576 -21 828 -21 q 169 132 325 -21 q 14 535 14 285 q 169 938 14 785 q 576 1090 325 1090 q 983 938 828 1090 m 390 1110 q 380 1120 390 1110 q 369 1160 369 1131 q 390 1209 369 1189 q 439 1229 410 1229 q 488 1209 468 1229 q 508 1160 508 1189 q 488 1110 508 1131 q 439 1090 468 1090 q 390 1110 410 1090 m 667 1110 q 657 1120 667 1110 q 647 1160 647 1131 q 667 1209 647 1189 q 717 1229 688 1229 q 766 1209 746 1229 q 786 1160 786 1189 q 766 1110 786 1131 q 717 1090 746 1090 q 667 1110 688 1090 z "},"×":{"ha":758,"x_min":31,"x_max":728,"o":"m 594 186 l 379 401 l 164 186 l 31 319 l 246 535 l 31 750 l 164 883 l 379 668 l 594 883 l 728 750 l 513 535 l 728 319 l 594 186 z "},"Ø":{"ha":1153,"x_min":14,"x_max":1139,"o":"m 1097 1069 l 986 935 q 1139 535 1139 782 q 983 132 1139 285 q 576 -21 828 -21 q 260 61 396 -21 l 208 0 l 56 0 l 167 133 q 14 535 14 286 q 169 938 14 785 q 576 1090 325 1090 q 893 1007 758 1090 l 944 1069 l 1097 1069 m 861 535 q 808 722 861 646 l 432 269 q 576 236 494 236 q 783 317 706 236 q 861 535 861 397 m 292 535 q 344 347 292 421 l 719 800 q 576 833 656 833 q 369 753 447 833 q 292 535 292 672 z "},"Ù":{"ha":925,"x_min":32,"x_max":893,"o":"m 773 93 q 713 36 773 93 q 463 -21 653 -21 q 152 93 272 -21 q 32 401 32 207 l 32 1069 l 310 1069 l 310 389 q 351 276 310 317 q 463 236 393 236 q 574 276 532 236 q 615 389 615 317 l 615 1069 l 893 1069 l 893 401 q 773 93 893 207 m 542 1150 l 533 1097 l 283 1117 l 300 1222 l 542 1150 z "},"Ú":{"ha":925,"x_min":32,"x_max":893,"o":"m 773 93 q 713 36 773 93 q 463 -21 653 -21 q 152 93 272 -21 q 32 401 32 207 l 32 1069 l 310 1069 l 310 389 q 351 276 310 317 q 463 236 393 236 q 574 276 532 236 q 615 389 615 317 l 615 1069 l 893 1069 l 893 401 q 773 93 893 207 m 393 1097 l 385 1150 l 626 1222 l 643 1117 l 393 1097 z "},"Û":{"ha":925,"x_min":32,"x_max":893,"o":"m 773 93 q 713 36 773 93 q 463 -21 653 -21 q 152 93 272 -21 q 32 401 32 207 l 32 1069 l 310 1069 l 310 389 q 351 276 310 317 q 463 236 393 236 q 574 276 532 236 q 615 389 615 317 l 615 1069 l 893 1069 l 893 401 q 773 93 893 207 m 225 1090 l 217 1143 l 463 1236 l 708 1143 l 700 1090 l 463 1142 l 225 1090 z "},"Ü":{"ha":925,"x_min":32,"x_max":893,"o":"m 773 93 q 713 36 773 93 q 463 -21 653 -21 q 152 93 272 -21 q 32 401 32 207 l 32 1069 l 310 1069 l 310 389 q 351 276 310 317 q 463 236 393 236 q 574 276 532 236 q 615 389 615 317 l 615 1069 l 893 1069 l 893 401 q 773 93 893 207 m 276 1110 q 266 1120 276 1110 q 256 1160 256 1131 q 276 1209 256 1189 q 325 1229 296 1229 q 374 1209 354 1229 q 394 1160 394 1189 q 374 1110 394 1131 q 325 1090 354 1090 q 276 1110 296 1090 m 553 1110 q 543 1120 553 1110 q 533 1160 533 1131 q 553 1209 533 1189 q 603 1229 574 1229 q 652 1209 632 1229 q 672 1160 672 1189 q 652 1110 672 1131 q 603 1090 632 1090 q 553 1110 574 1090 z "},"Ý":{"ha":1056,"x_min":-18,"x_max":1079,"o":"m 269 1069 l 531 592 l 792 1069 l 1079 1069 l 669 375 l 669 0 l 392 0 l 392 375 l -18 1069 l 269 1069 m 461 1097 l 453 1150 l 694 1222 l 711 1117 l 461 1097 z "},"Þ":{"ha":864,"x_min":35,"x_max":854,"o":"m 751 799 q 802 748 751 799 q 854 549 854 696 q 751 298 854 401 q 500 194 647 194 l 313 194 l 313 0 l 35 0 l 35 1069 l 313 1069 l 313 903 l 500 903 q 751 799 647 903 m 458 667 l 313 667 l 313 431 l 458 431 q 542 465 507 431 q 576 549 576 500 q 542 632 576 597 q 458 667 507 667 z "},"ß":{"ha":846,"x_min":18,"x_max":836,"o":"m 317 32 l 394 232 q 458 215 422 215 q 537 251 504 215 q 569 351 569 286 q 414 497 569 497 l 363 497 l 363 682 l 407 682 q 487 710 457 682 q 517 790 517 739 q 483 869 517 838 q 393 901 449 901 q 301 868 333 901 q 268 771 268 835 l 268 0 l 18 0 l 18 782 q 122 1033 18 949 q 396 1117 225 1117 q 578 1085 493 1117 q 720 983 663 1054 q 778 815 778 913 q 747 693 778 747 q 661 610 715 639 q 836 324 836 528 q 736 79 836 169 q 506 -11 636 -11 q 397 1 451 -11 q 317 32 343 14 z "},"à":{"ha":922,"x_min":13,"x_max":904,"o":"m 127 103 q 70 164 127 103 q 13 396 13 224 q 127 688 13 568 q 411 808 242 808 q 658 738 547 808 l 658 792 l 904 792 l 904 0 l 660 0 l 660 56 q 411 -17 550 -17 q 127 103 242 -17 m 601 253 q 630 283 601 253 q 660 396 660 313 q 601 538 660 479 q 458 597 542 597 q 315 540 372 597 q 257 396 257 482 q 315 252 257 310 q 458 194 372 194 q 601 253 542 194 m 465 876 l 444 840 l 188 917 l 264 1050 l 465 876 z "},"á":{"ha":922,"x_min":13,"x_max":904,"o":"m 127 103 q 70 164 127 103 q 13 396 13 224 q 127 688 13 568 q 411 808 242 808 q 658 738 547 808 l 658 792 l 904 792 l 904 0 l 660 0 l 660 56 q 411 -17 550 -17 q 127 103 242 -17 m 601 253 q 630 283 601 253 q 660 396 660 313 q 601 538 660 479 q 458 597 542 597 q 315 540 372 597 q 257 396 257 482 q 315 252 257 310 q 458 194 372 194 q 601 253 542 194 m 444 840 l 424 876 l 625 1050 l 701 917 l 444 840 z "},"â":{"ha":922,"x_min":13,"x_max":904,"o":"m 127 103 q 70 164 127 103 q 13 396 13 224 q 127 688 13 568 q 411 808 242 808 q 658 738 547 808 l 658 792 l 904 792 l 904 0 l 660 0 l 660 56 q 411 -17 550 -17 q 127 103 242 -17 m 601 253 q 630 283 601 253 q 660 396 660 313 q 601 538 660 479 q 458 597 542 597 q 315 540 372 597 q 257 396 257 482 q 315 252 257 310 q 458 194 372 194 q 601 253 542 194 m 264 840 l 243 876 l 444 1050 l 646 876 l 625 840 l 444 913 l 264 840 z "},"ã":{"ha":922,"x_min":13,"x_max":904,"o":"m 127 103 q 70 164 127 103 q 13 396 13 224 q 127 688 13 568 q 411 808 242 808 q 658 738 547 808 l 658 792 l 904 792 l 904 0 l 660 0 l 660 56 q 411 -17 550 -17 q 127 103 242 -17 m 601 253 q 630 283 601 253 q 660 396 660 313 q 601 538 660 479 q 458 597 542 597 q 315 540 372 597 q 257 396 257 482 q 315 252 257 310 q 458 194 372 194 q 601 253 542 194 m 324 1043 q 460 1005 386 1043 q 571 967 533 967 q 657 1026 642 967 l 721 1026 q 670 897 711 942 q 565 851 629 851 q 429 890 503 851 q 318 928 356 928 q 232 868 247 928 l 168 868 q 219 998 178 953 q 324 1043 260 1043 z "},"ä":{"ha":922,"x_min":13,"x_max":904,"o":"m 127 103 q 70 164 127 103 q 13 396 13 224 q 127 688 13 568 q 411 808 242 808 q 658 738 547 808 l 658 792 l 904 792 l 904 0 l 660 0 l 660 56 q 411 -17 550 -17 q 127 103 242 -17 m 601 253 q 630 283 601 253 q 660 396 660 313 q 601 538 660 479 q 458 597 542 597 q 315 540 372 597 q 257 396 257 482 q 315 252 257 310 q 458 194 372 194 q 601 253 542 194 m 527 877 q 507 898 527 877 q 486 975 486 918 q 527 1073 486 1032 q 625 1114 568 1114 q 723 1073 682 1114 q 764 975 764 1032 q 723 877 764 918 q 625 836 682 836 q 527 877 568 836 m 166 877 q 145 898 166 877 q 125 975 125 918 q 166 1073 125 1032 q 264 1114 207 1114 q 362 1073 321 1114 q 403 975 403 1032 q 362 877 403 918 q 264 836 321 836 q 166 877 207 836 z "},"å":{"ha":922,"x_min":13,"x_max":904,"o":"m 127 103 q 70 164 127 103 q 13 396 13 224 q 127 688 13 568 q 411 808 242 808 q 658 738 547 808 l 658 792 l 904 792 l 904 0 l 660 0 l 660 56 q 411 -17 550 -17 q 127 103 242 -17 m 601 253 q 630 283 601 253 q 660 396 660 313 q 601 538 660 479 q 458 597 542 597 q 315 540 372 597 q 257 396 257 482 q 315 252 257 310 q 458 194 372 194 q 601 253 542 194 m 357 872 q 339 890 357 872 q 321 960 321 908 q 357 1047 321 1011 q 444 1083 393 1083 q 532 1047 496 1083 q 568 960 568 1011 q 532 872 568 908 q 444 836 496 836 q 357 872 393 836 m 492 912 q 502 922 492 912 q 513 960 513 932 q 492 1008 513 988 q 444 1028 472 1028 q 397 1008 417 1028 q 376 960 376 988 q 397 912 376 932 q 444 892 417 892 q 492 912 472 892 z "},"æ":{"ha":1382,"x_min":13,"x_max":1369,"o":"m 989 189 q 1231 286 1146 189 l 1369 149 q 982 -17 1236 -17 q 665 107 779 -17 q 351 -17 544 -17 q 111 46 210 -17 q 13 232 13 108 q 99 413 13 347 q 329 479 185 479 l 546 479 q 499 573 540 543 q 364 603 457 603 q 178 526 239 603 l 39 664 q 388 808 153 808 q 692 704 588 808 q 969 808 806 808 q 1260 690 1151 808 q 1369 396 1369 571 l 1369 313 l 801 313 q 989 189 838 189 m 965 603 q 799 479 831 603 l 1119 479 q 965 603 1096 603 m 367 189 q 539 313 507 189 l 375 313 q 316 297 339 313 q 293 253 293 281 q 367 189 293 189 z "},"ç":{"ha":758,"x_min":13,"x_max":750,"o":"m 422 -224 q 489 -181 489 -224 q 360 -108 489 -126 l 386 -14 q 116 114 219 1 q 13 396 13 226 q 131 693 13 578 q 438 808 250 808 q 750 678 644 808 l 582 510 q 438 583 536 583 q 306 533 356 583 q 257 396 257 483 q 306 258 257 308 q 438 208 356 208 q 582 282 536 208 l 750 114 q 438 -17 644 -17 l 432 -40 q 559 -91 513 -56 q 606 -175 606 -126 q 555 -262 606 -233 q 429 -292 504 -292 q 272 -249 329 -292 l 296 -197 q 422 -224 353 -224 z "},"è":{"ha":847,"x_min":13,"x_max":835,"o":"m 454 189 q 696 286 611 189 l 835 149 q 447 -17 701 -17 q 128 103 243 -17 q 13 396 13 222 q 132 687 13 565 q 435 808 251 808 q 726 690 617 808 q 835 396 835 571 l 835 313 l 267 313 q 454 189 303 189 m 431 603 q 264 479 296 603 l 585 479 q 431 603 561 603 m 456 876 l 435 840 l 178 917 l 254 1050 l 456 876 z "},"é":{"ha":847,"x_min":13,"x_max":835,"o":"m 454 189 q 696 286 611 189 l 835 149 q 447 -17 701 -17 q 128 103 243 -17 q 13 396 13 222 q 132 687 13 565 q 435 808 251 808 q 726 690 617 808 q 835 396 835 571 l 835 313 l 267 313 q 454 189 303 189 m 431 603 q 264 479 296 603 l 585 479 q 431 603 561 603 m 435 840 l 414 876 l 615 1050 l 692 917 l 435 840 z "},"ê":{"ha":847,"x_min":13,"x_max":835,"o":"m 454 189 q 696 286 611 189 l 835 149 q 447 -17 701 -17 q 128 103 243 -17 q 13 396 13 222 q 132 687 13 565 q 435 808 251 808 q 726 690 617 808 q 835 396 835 571 l 835 313 l 267 313 q 454 189 303 189 m 254 840 l 233 876 l 435 1050 l 636 876 l 615 840 l 435 913 l 254 840 m 431 603 q 264 479 296 603 l 585 479 q 431 603 561 603 z "},"ë":{"ha":847,"x_min":13,"x_max":835,"o":"m 454 189 q 696 286 611 189 l 835 149 q 447 -17 701 -17 q 128 103 243 -17 q 13 396 13 222 q 132 687 13 565 q 435 808 251 808 q 726 690 617 808 q 835 396 835 571 l 835 313 l 267 313 q 454 189 303 189 m 156 877 q 136 898 156 877 q 115 975 115 918 q 156 1073 115 1032 q 254 1114 197 1114 q 352 1073 311 1114 q 393 975 393 1032 q 352 877 393 918 q 254 836 311 836 q 156 877 197 836 m 517 877 q 497 898 517 877 q 476 975 476 918 q 517 1073 476 1032 q 615 1114 558 1114 q 713 1073 672 1114 q 754 975 754 1032 q 713 877 754 918 q 615 836 672 836 q 517 877 558 836 m 431 603 q 264 479 296 603 l 585 479 q 431 603 561 603 z "},"ì":{"ha":306,"x_min":-104,"x_max":278,"o":"m 278 792 l 278 0 l 28 0 l 28 792 l 278 792 m 174 876 l 153 840 l -104 917 l -28 1050 l 174 876 z "},"í":{"ha":306,"x_min":28,"x_max":410,"o":"m 278 792 l 278 0 l 28 0 l 28 792 l 278 792 m 153 840 l 132 876 l 333 1050 l 410 917 l 153 840 z "},"î":{"ha":306,"x_min":-49,"x_max":354,"o":"m 278 792 l 278 0 l 28 0 l 28 792 l 278 792 m -28 840 l -49 876 l 153 1050 l 354 876 l 333 840 l 153 913 l -28 840 z "},"ï":{"ha":306,"x_min":-139,"x_max":444,"o":"m 278 792 l 278 0 l 28 0 l 28 792 l 278 792 m -98 877 q -118 898 -98 877 q -139 975 -139 918 q -98 1073 -139 1032 q 0 1114 -57 1114 q 98 1073 57 1114 q 139 975 139 1032 q 98 877 139 918 q 0 836 57 836 q -98 877 -57 836 m 208 877 q 187 898 208 877 q 167 975 167 918 q 208 1073 167 1032 q 306 1114 249 1114 q 403 1073 363 1114 q 444 975 444 1032 q 403 877 444 918 q 306 836 363 836 q 208 877 249 836 z "},"ð":{"ha":875,"x_min":13,"x_max":863,"o":"m 863 396 q 744 99 863 214 q 438 -17 625 -17 q 131 99 250 -17 q 13 396 13 214 q 130 692 13 575 q 410 808 247 808 q 440 807 431 808 q 300 883 379 850 l 56 764 l 56 861 l 183 924 q 104 943 153 932 q 42 958 56 954 l 201 1117 q 426 1043 332 1085 l 604 1131 l 604 1033 l 525 994 q 863 396 863 796 m 306 533 q 282 508 306 533 q 257 396 257 483 q 306 258 257 308 q 438 208 356 208 q 569 258 519 208 q 618 396 618 308 q 569 533 618 483 q 438 583 519 583 q 306 533 356 583 z "},"ñ":{"ha":790,"x_min":18,"x_max":774,"o":"m 524 0 l 524 499 q 490 576 524 546 q 407 606 457 606 q 308 574 347 606 q 268 489 269 543 l 268 0 l 18 0 l 18 792 l 263 792 l 263 728 q 497 808 350 808 q 693 738 613 808 q 774 550 774 667 l 774 0 l 524 0 m 274 1043 q 409 1005 335 1043 q 521 967 483 967 q 607 1026 592 967 l 671 1026 q 620 897 661 942 q 515 851 579 851 q 379 890 453 851 q 268 928 306 928 q 182 868 197 928 l 118 868 q 169 998 128 953 q 274 1043 210 1043 z "},"ò":{"ha":875,"x_min":13,"x_max":863,"o":"m 744 693 q 803 635 744 693 q 863 396 863 578 q 744 99 863 214 q 438 -17 625 -17 q 131 99 250 -17 q 13 396 13 214 q 131 693 13 578 q 438 808 250 808 q 744 693 625 808 m 306 533 q 282 508 306 533 q 257 396 257 483 q 306 258 257 308 q 438 208 356 208 q 569 258 519 208 q 618 396 618 308 q 569 533 618 483 q 438 583 519 583 q 306 533 356 583 m 458 876 l 438 840 l 181 917 l 257 1050 l 458 876 z "},"ó":{"ha":875,"x_min":13,"x_max":863,"o":"m 744 693 q 803 635 744 693 q 863 396 863 578 q 744 99 863 214 q 438 -17 625 -17 q 131 99 250 -17 q 13 396 13 214 q 131 693 13 578 q 438 808 250 808 q 744 693 625 808 m 306 533 q 282 508 306 533 q 257 396 257 483 q 306 258 257 308 q 438 208 356 208 q 569 258 519 208 q 618 396 618 308 q 569 533 618 483 q 438 583 519 583 q 306 533 356 583 m 438 840 l 417 876 l 618 1050 l 694 917 l 438 840 z "},"ô":{"ha":875,"x_min":13,"x_max":863,"o":"m 744 693 q 803 635 744 693 q 863 396 863 578 q 744 99 863 214 q 438 -17 625 -17 q 131 99 250 -17 q 13 396 13 214 q 131 693 13 578 q 438 808 250 808 q 744 693 625 808 m 306 533 q 282 508 306 533 q 257 396 257 483 q 306 258 257 308 q 438 208 356 208 q 569 258 519 208 q 618 396 618 308 q 569 533 618 483 q 438 583 519 583 q 306 533 356 583 m 257 840 l 236 876 l 438 1050 l 639 876 l 618 840 l 438 913 l 257 840 z "},"õ":{"ha":875,"x_min":13,"x_max":863,"o":"m 744 693 q 803 635 744 693 q 863 396 863 578 q 744 99 863 214 q 438 -17 625 -17 q 131 99 250 -17 q 13 396 13 214 q 131 693 13 578 q 438 808 250 808 q 744 693 625 808 m 306 533 q 282 508 306 533 q 257 396 257 483 q 306 258 257 308 q 438 208 356 208 q 569 258 519 208 q 618 396 618 308 q 569 533 618 483 q 438 583 519 583 q 306 533 356 583 m 317 1043 q 453 1005 378 1043 q 564 967 528 967 q 650 1026 635 967 l 714 1026 q 663 897 704 942 q 558 851 622 851 q 422 890 497 851 q 311 928 347 928 q 225 868 240 928 l 161 868 q 212 998 171 953 q 317 1043 253 1043 z "},"ö":{"ha":875,"x_min":13,"x_max":863,"o":"m 744 693 q 803 635 744 693 q 863 396 863 578 q 744 99 863 214 q 438 -17 625 -17 q 131 99 250 -17 q 13 396 13 214 q 131 693 13 578 q 438 808 250 808 q 744 693 625 808 m 306 533 q 282 508 306 533 q 257 396 257 483 q 306 258 257 308 q 438 208 356 208 q 569 258 519 208 q 618 396 618 308 q 569 533 618 483 q 438 583 519 583 q 306 533 356 583 m 159 877 q 139 898 159 877 q 118 975 118 918 q 159 1073 118 1032 q 257 1114 200 1114 q 355 1073 314 1114 q 396 975 396 1032 q 355 877 396 918 q 257 836 314 836 q 159 877 200 836 m 520 877 q 500 898 520 877 q 479 975 479 918 q 520 1073 479 1032 q 618 1114 561 1114 q 716 1073 675 1114 q 757 975 757 1032 q 716 877 757 918 q 618 836 675 836 q 520 877 561 836 z "},"÷":{"ha":750,"x_min":35,"x_max":715,"o":"m 35 629 l 715 629 l 715 440 l 35 440 l 35 629 m 277 722 q 257 742 277 722 q 236 819 236 763 q 277 917 236 876 q 375 958 318 958 q 473 917 432 958 q 514 819 514 876 q 473 722 514 763 q 375 681 432 681 q 277 722 318 681 m 277 152 q 257 173 277 152 q 236 250 236 193 q 277 348 236 307 q 375 389 318 389 q 473 348 432 389 q 514 250 514 307 q 473 152 514 193 q 375 111 432 111 q 277 152 318 111 z "},"ø":{"ha":875,"x_min":13,"x_max":863,"o":"m 836 792 l 749 688 q 863 396 863 574 q 744 99 863 214 q 438 -17 625 -17 q 210 39 308 -17 l 178 0 l 39 0 l 125 104 q 13 396 13 219 q 131 693 13 578 q 438 808 250 808 q 664 751 563 808 l 697 792 l 836 792 m 618 396 q 593 500 618 456 l 361 221 q 438 208 394 208 q 569 258 519 208 q 618 396 618 308 m 257 396 q 281 292 257 335 l 513 569 q 438 583 481 583 q 306 533 356 583 q 257 396 257 483 z "},"ù":{"ha":790,"x_min":17,"x_max":772,"o":"m 267 792 l 267 293 q 300 216 267 246 q 383 186 333 186 q 483 219 444 186 q 522 308 522 251 l 522 792 l 772 792 l 772 0 l 528 0 l 528 64 q 293 -17 443 -17 q 97 54 178 -17 q 17 242 17 125 l 17 792 l 267 792 m 414 876 l 393 840 l 136 917 l 213 1050 l 414 876 z "},"ú":{"ha":790,"x_min":17,"x_max":772,"o":"m 267 792 l 267 293 q 300 216 267 246 q 383 186 333 186 q 483 219 444 186 q 522 308 522 251 l 522 792 l 772 792 l 772 0 l 528 0 l 528 64 q 293 -17 443 -17 q 97 54 178 -17 q 17 242 17 125 l 17 792 l 267 792 m 393 840 l 372 876 l 574 1050 l 650 917 l 393 840 z "},"û":{"ha":790,"x_min":17,"x_max":772,"o":"m 267 792 l 267 288 q 301 214 268 242 q 383 186 333 186 q 482 217 443 186 q 522 303 521 249 l 522 792 l 772 792 l 772 0 l 528 0 l 528 64 q 293 -17 443 -17 q 97 54 178 -17 q 17 242 17 125 l 17 792 l 267 792 m 213 840 l 192 876 l 393 1050 l 594 876 l 574 840 l 393 913 l 213 840 z "},"ü":{"ha":790,"x_min":17,"x_max":772,"o":"m 267 792 l 267 293 q 300 216 267 246 q 383 186 333 186 q 483 219 444 186 q 522 308 522 251 l 522 792 l 772 792 l 772 0 l 528 0 l 528 64 q 293 -17 443 -17 q 97 54 178 -17 q 17 242 17 125 l 17 792 l 267 792 m 476 877 q 455 898 476 877 q 435 975 435 918 q 476 1073 435 1032 q 574 1114 517 1114 q 672 1073 631 1114 q 713 975 713 1032 q 672 877 713 918 q 574 836 631 836 q 476 877 517 836 m 115 877 q 94 898 115 877 q 74 975 74 918 q 115 1073 74 1032 q 213 1114 156 1114 q 310 1073 269 1114 q 351 975 351 1032 q 310 877 351 918 q 213 836 269 836 q 115 877 156 836 z "},"ý":{"ha":961,"x_min":3,"x_max":957,"o":"m 456 -292 l 161 -292 l 318 38 l 3 792 l 286 792 l 463 342 l 665 792 l 957 792 l 456 -292 m 479 840 l 458 876 l 660 1050 l 736 917 l 479 840 z "},"þ":{"ha":922,"x_min":18,"x_max":910,"o":"m 795 688 q 852 628 795 688 q 910 396 910 568 q 795 103 910 224 q 511 -17 681 -17 q 268 51 372 -17 l 268 -292 l 18 -292 l 18 1097 l 268 1097 l 268 740 q 511 808 375 808 q 795 688 681 808 m 322 538 q 292 509 322 538 q 263 396 263 479 q 322 253 263 313 q 464 194 381 194 q 608 252 550 194 q 665 396 665 310 q 608 540 665 482 q 464 597 550 597 q 322 538 381 597 z "},"ÿ":{"ha":961,"x_min":3,"x_max":957,"o":"m 456 -292 l 161 -292 l 318 38 l 3 792 l 286 792 l 463 342 l 665 792 l 957 792 l 456 -292 m 562 877 q 541 898 562 877 q 521 975 521 918 q 562 1073 521 1032 q 660 1114 603 1114 q 758 1073 717 1114 q 799 975 799 1032 q 758 877 799 918 q 660 836 717 836 q 562 877 603 836 m 201 877 q 180 898 201 877 q 160 975 160 918 q 201 1073 160 1032 q 299 1114 242 1114 q 397 1073 356 1114 q 438 975 438 1032 q 397 877 438 918 q 299 836 356 836 q 201 877 242 836 z "},"Ā":{"ha":1125,"x_min":0,"x_max":1125,"o":"m 835 0 l 767 139 l 357 139 l 290 0 l 0 0 l 560 1083 l 565 1083 l 1125 0 l 835 0 m 563 558 l 472 375 l 651 375 l 563 558 m 758 1221 l 758 1107 l 369 1107 l 369 1221 l 758 1221 z "},"ā":{"ha":922,"x_min":13,"x_max":904,"o":"m 127 103 q 70 164 127 103 q 13 396 13 224 q 127 688 13 568 q 411 808 242 808 q 658 738 547 808 l 658 792 l 904 792 l 904 0 l 660 0 l 660 56 q 411 -17 550 -17 q 127 103 242 -17 m 601 253 q 630 283 601 253 q 660 396 660 313 q 601 538 660 479 q 458 597 542 597 q 315 540 372 597 q 257 396 257 482 q 315 252 257 310 q 458 194 372 194 q 601 253 542 194 m 639 990 l 639 876 l 250 876 l 250 990 l 639 990 z "},"Ă":{"ha":1125,"x_min":0,"x_max":1125,"o":"m 835 0 l 767 139 l 357 139 l 290 0 l 0 0 l 560 1083 l 565 1083 l 1125 0 l 835 0 m 563 558 l 472 375 l 651 375 l 563 558 m 722 1126 q 688 1108 722 1126 q 564 1090 654 1090 q 406 1126 474 1090 q 321 1238 339 1163 l 407 1238 q 463 1192 417 1207 q 564 1178 508 1178 q 665 1192 619 1178 q 721 1238 711 1207 l 807 1238 q 722 1126 789 1163 z "},"ă":{"ha":922,"x_min":13,"x_max":904,"o":"m 127 103 q 70 164 127 103 q 13 396 13 224 q 127 688 13 568 q 411 808 242 808 q 658 738 547 808 l 658 792 l 904 792 l 904 0 l 660 0 l 660 56 q 411 -17 550 -17 q 127 103 242 -17 m 601 253 q 630 283 601 253 q 660 396 660 313 q 601 538 660 479 q 458 597 542 597 q 315 540 372 597 q 257 396 257 482 q 315 252 257 310 q 458 194 372 194 q 601 253 542 194 m 599 898 q 566 873 599 898 q 444 847 533 847 q 290 898 356 847 q 215 1029 225 949 l 301 1029 q 350 972 308 992 q 444 953 392 953 q 539 972 497 953 q 588 1029 581 992 l 674 1029 q 599 898 664 949 z "},"Ą":{"ha":1163,"x_min":0,"x_max":1186,"o":"m 1053 -224 q 1163 -197 1114 -224 l 1186 -249 q 1036 -292 1124 -292 q 888 -256 944 -292 q 832 -151 832 -219 q 865 -62 832 -104 l 767 139 l 357 139 l 290 0 l 0 0 l 560 1083 l 565 1083 l 1125 0 q 954 -142 954 -36 q 981 -202 954 -181 q 1053 -224 1007 -224 m 563 558 l 472 375 l 651 375 l 563 558 z "},"ą":{"ha":922,"x_min":13,"x_max":965,"o":"m 832 -224 q 942 -197 893 -224 l 965 -249 q 815 -292 903 -292 q 667 -256 724 -292 q 611 -151 611 -219 q 660 -46 611 -94 l 660 56 q 411 -17 550 -17 q 127 103 242 -17 q 13 396 13 224 q 127 688 13 568 q 411 808 242 808 q 658 738 547 808 l 658 792 l 904 792 l 904 0 q 733 -142 733 -36 q 760 -202 733 -181 q 832 -224 786 -224 m 601 253 q 630 283 601 253 q 660 396 660 313 q 601 538 660 479 q 458 597 542 597 q 315 540 372 597 q 257 396 257 482 q 315 252 257 310 q 458 194 372 194 q 601 253 542 194 z "},"Ć":{"ha":996,"x_min":14,"x_max":989,"o":"m 169 132 q 92 208 169 132 q 14 535 14 285 q 169 938 14 785 q 576 1090 325 1090 q 988 932 832 1090 l 794 739 q 576 833 715 833 q 369 753 447 833 q 292 535 292 672 q 369 317 292 397 q 576 236 447 236 q 794 331 717 236 l 989 136 q 576 -21 832 -21 q 169 132 325 -21 m 507 1097 l 499 1150 l 740 1222 l 757 1117 l 507 1097 z "},"ć":{"ha":758,"x_min":13,"x_max":750,"o":"m 306 533 q 282 508 306 533 q 257 396 257 483 q 306 258 257 308 q 438 208 356 208 q 582 282 536 208 l 750 114 q 438 -17 644 -17 q 131 99 250 -17 q 13 396 13 214 q 131 693 13 578 q 438 808 250 808 q 750 678 644 808 l 582 510 q 438 583 536 583 q 306 533 356 583 m 417 840 l 396 876 l 597 1050 l 674 917 l 417 840 z "},"Ĉ":{"ha":996,"x_min":14,"x_max":989,"o":"m 169 132 q 92 208 169 132 q 14 535 14 285 q 169 938 14 785 q 576 1090 325 1090 q 988 932 832 1090 l 794 739 q 576 833 715 833 q 369 753 447 833 q 292 535 292 672 q 369 317 292 397 q 576 236 447 236 q 794 331 717 236 l 989 136 q 576 -21 832 -21 q 169 132 325 -21 m 339 1090 l 331 1143 l 576 1236 l 822 1143 l 814 1090 l 576 1142 l 339 1090 z "},"ĉ":{"ha":758,"x_min":13,"x_max":750,"o":"m 306 533 q 282 508 306 533 q 257 396 257 483 q 306 258 257 308 q 438 208 356 208 q 582 282 536 208 l 750 114 q 438 -17 644 -17 q 131 99 250 -17 q 13 396 13 214 q 131 693 13 578 q 438 808 250 808 q 750 678 644 808 l 582 510 q 438 583 536 583 q 306 533 356 583 m 236 840 l 215 876 l 417 1050 l 618 876 l 597 840 l 417 913 l 236 840 z "},"Ċ":{"ha":996,"x_min":14,"x_max":989,"o":"m 169 132 q 92 208 169 132 q 14 535 14 285 q 169 938 14 785 q 576 1090 325 1090 q 988 932 832 1090 l 794 739 q 576 833 715 833 q 369 753 447 833 q 292 535 292 672 q 369 317 292 397 q 576 236 447 236 q 794 331 717 236 l 989 136 q 576 -21 832 -21 q 169 132 325 -21 m 527 1117 q 517 1127 527 1117 q 507 1167 507 1138 q 527 1216 507 1196 q 576 1236 547 1236 q 626 1216 606 1236 q 646 1167 646 1196 q 626 1117 646 1138 q 576 1097 606 1097 q 527 1117 547 1097 z "},"ċ":{"ha":758,"x_min":13,"x_max":750,"o":"m 306 533 q 282 508 306 533 q 257 396 257 483 q 306 258 257 308 q 438 208 356 208 q 582 282 536 208 l 750 114 q 438 -17 644 -17 q 131 99 250 -17 q 13 396 13 214 q 131 693 13 578 q 438 808 250 808 q 750 678 644 808 l 582 510 q 438 583 536 583 q 306 533 356 583 m 319 877 q 298 898 319 877 q 278 975 278 918 q 319 1073 278 1032 q 417 1114 360 1114 q 515 1073 474 1114 q 556 975 556 1032 q 515 877 556 918 q 417 836 474 836 q 319 877 360 836 z "},"Č":{"ha":996,"x_min":14,"x_max":989,"o":"m 169 132 q 92 208 169 132 q 14 535 14 285 q 169 938 14 785 q 576 1090 325 1090 q 988 932 832 1090 l 794 739 q 576 833 715 833 q 369 753 447 833 q 292 535 292 672 q 369 317 292 397 q 576 236 447 236 q 794 331 717 236 l 989 136 q 576 -21 832 -21 q 169 132 325 -21 m 814 1243 l 822 1190 l 576 1097 l 331 1190 l 339 1243 l 576 1190 l 814 1243 z "},"č":{"ha":758,"x_min":13,"x_max":750,"o":"m 306 533 q 282 508 306 533 q 257 396 257 483 q 306 258 257 308 q 438 208 356 208 q 582 282 536 208 l 750 114 q 438 -17 644 -17 q 131 99 250 -17 q 13 396 13 214 q 131 693 13 578 q 438 808 250 808 q 750 678 644 808 l 582 510 q 438 583 536 583 q 306 533 356 583 m 215 1011 l 236 1047 l 417 974 l 597 1047 l 618 1011 l 417 838 l 215 1011 z "},"Ď":{"ha":1035,"x_min":35,"x_max":1021,"o":"m 872 919 q 947 843 872 919 q 1021 535 1021 768 q 872 151 1021 301 q 500 0 724 0 l 35 0 l 35 1069 l 500 1069 q 872 919 724 1069 m 451 833 l 313 833 l 313 236 l 451 236 q 664 317 585 236 q 743 535 743 399 q 664 752 743 671 q 451 833 585 833 m 703 1243 l 711 1190 l 465 1097 l 219 1190 l 228 1243 l 465 1190 l 703 1243 z "},"ď":{"ha":950,"x_min":13,"x_max":1097,"o":"m 127 103 q 70 164 127 103 q 13 396 13 224 q 127 688 13 568 q 411 808 242 808 q 654 740 547 808 l 654 1097 l 904 1097 l 904 0 l 660 0 l 660 56 q 411 -17 550 -17 q 127 103 242 -17 m 601 253 q 630 283 601 253 q 660 396 660 313 q 601 538 660 479 q 458 597 542 597 q 315 540 372 597 q 257 396 257 482 q 315 252 257 310 q 458 194 372 194 q 601 253 542 194 m 983 1097 l 1097 1097 l 1056 861 l 974 861 l 983 1097 z "},"Đ":{"ha":1150,"x_min":11,"x_max":1136,"o":"m 988 919 q 1062 843 988 919 q 1136 535 1136 768 q 988 151 1136 301 q 615 0 839 0 l 150 0 l 150 444 l 11 444 l 11 653 l 150 653 l 150 1069 l 615 1069 q 988 919 839 1069 m 664 653 l 664 444 l 428 444 l 428 236 l 567 236 q 779 317 700 236 q 858 535 858 399 q 779 752 858 671 q 567 833 700 833 l 428 833 l 428 653 l 664 653 z "},"đ":{"ha":976,"x_min":13,"x_max":993,"o":"m 993 1028 l 993 847 l 904 847 l 904 0 l 660 0 l 660 56 q 411 -17 550 -17 q 127 103 242 -17 q 13 396 13 224 q 127 688 13 568 q 411 808 242 808 q 654 740 547 808 l 654 847 l 493 847 l 493 1028 l 654 1028 l 654 1097 l 904 1097 l 904 1028 l 993 1028 m 601 253 q 630 283 601 253 q 660 396 660 313 q 601 538 660 479 q 458 597 542 597 q 315 540 372 597 q 257 396 257 482 q 315 252 257 310 q 458 194 372 194 q 601 253 542 194 z "},"Ē":{"ha":803,"x_min":35,"x_max":785,"o":"m 785 236 l 785 0 l 35 0 l 35 1069 l 785 1069 l 785 833 l 313 833 l 313 667 l 701 667 l 701 431 l 313 431 l 313 236 l 785 236 m 606 1221 l 606 1107 l 217 1107 l 217 1221 l 606 1221 z "},"ē":{"ha":847,"x_min":13,"x_max":835,"o":"m 454 189 q 696 286 611 189 l 835 149 q 447 -17 701 -17 q 128 103 243 -17 q 13 396 13 222 q 132 687 13 565 q 435 808 251 808 q 726 690 617 808 q 835 396 835 571 l 835 313 l 267 313 q 454 189 303 189 m 431 603 q 264 479 296 603 l 585 479 q 431 603 561 603 m 629 990 l 629 876 l 240 876 l 240 990 l 629 990 z "},"Ĕ":{"ha":803,"x_min":35,"x_max":785,"o":"m 785 236 l 785 0 l 35 0 l 35 1069 l 785 1069 l 785 833 l 313 833 l 313 667 l 701 667 l 701 431 l 313 431 l 313 236 l 785 236 m 569 1126 q 535 1108 569 1126 q 411 1090 501 1090 q 253 1126 321 1090 q 168 1238 186 1163 l 254 1238 q 310 1192 264 1207 q 411 1178 356 1178 q 513 1192 467 1178 q 568 1238 558 1207 l 654 1238 q 569 1126 636 1163 z "},"ĕ":{"ha":847,"x_min":13,"x_max":835,"o":"m 454 189 q 696 286 611 189 l 835 149 q 447 -17 701 -17 q 128 103 243 -17 q 13 396 13 222 q 132 687 13 565 q 435 808 251 808 q 726 690 617 808 q 835 396 835 571 l 835 313 l 267 313 q 454 189 303 189 m 431 603 q 264 479 296 603 l 585 479 q 431 603 561 603 m 589 898 q 556 873 589 898 q 435 847 524 847 q 281 898 346 847 q 206 1029 215 949 l 292 1029 q 340 972 299 992 q 435 953 382 953 q 529 972 488 953 q 578 1029 571 992 l 664 1029 q 589 898 654 949 z "},"Ė":{"ha":803,"x_min":35,"x_max":785,"o":"m 785 236 l 785 0 l 35 0 l 35 1069 l 785 1069 l 785 833 l 313 833 l 313 667 l 701 667 l 701 431 l 313 431 l 313 236 l 785 236 m 362 1110 q 352 1120 362 1110 q 342 1160 342 1131 q 362 1209 342 1189 q 411 1229 382 1229 q 460 1209 440 1229 q 481 1160 481 1189 q 460 1110 481 1131 q 411 1090 440 1090 q 362 1110 382 1090 z "},"ė":{"ha":847,"x_min":13,"x_max":835,"o":"m 454 189 q 696 286 611 189 l 835 149 q 447 -17 701 -17 q 128 103 243 -17 q 13 396 13 222 q 132 687 13 565 q 435 808 251 808 q 726 690 617 808 q 835 396 835 571 l 835 313 l 267 313 q 454 189 303 189 m 337 877 q 316 898 337 877 q 296 975 296 918 q 337 1073 296 1032 q 435 1114 378 1114 q 533 1073 492 1114 q 574 975 574 1032 q 533 877 574 918 q 435 836 492 836 q 337 877 378 836 m 431 603 q 264 479 296 603 l 585 479 q 431 603 561 603 z "},"Ę":{"ha":840,"x_min":35,"x_max":846,"o":"m 713 -224 q 822 -197 774 -224 l 846 -249 q 696 -292 783 -292 q 548 -256 604 -292 q 492 -151 492 -219 q 608 0 492 -57 l 35 0 l 35 1069 l 785 1069 l 785 833 l 313 833 l 313 667 l 701 667 l 701 431 l 313 431 l 313 236 l 785 236 l 785 0 q 614 -142 614 -36 q 640 -202 614 -181 q 713 -224 667 -224 z "},"ę":{"ha":847,"x_min":13,"x_max":835,"o":"m 519 -224 q 629 -197 581 -224 l 653 -249 q 503 -292 590 -292 q 355 -256 411 -292 q 299 -151 299 -219 q 390 -14 299 -69 q 112 119 211 3 q 13 396 13 235 q 132 687 13 565 q 435 808 251 808 q 726 690 617 808 q 835 396 835 571 l 835 313 l 267 313 q 454 189 303 189 q 696 286 611 189 l 835 149 q 569 -6 735 26 q 421 -142 421 -43 q 447 -202 421 -181 q 519 -224 474 -224 m 431 603 q 264 479 296 603 l 585 479 q 431 603 561 603 z "},"Ě":{"ha":803,"x_min":35,"x_max":785,"o":"m 785 236 l 785 0 l 35 0 l 35 1069 l 785 1069 l 785 833 l 313 833 l 313 667 l 701 667 l 701 431 l 313 431 l 313 236 l 785 236 m 647 1236 l 656 1183 l 410 1090 l 164 1183 l 172 1236 l 410 1183 l 647 1236 z "},"ě":{"ha":847,"x_min":13,"x_max":835,"o":"m 454 189 q 696 286 611 189 l 835 149 q 447 -17 701 -17 q 128 103 243 -17 q 13 396 13 222 q 132 687 13 565 q 435 808 251 808 q 726 690 617 808 q 835 396 835 571 l 835 313 l 267 313 q 454 189 303 189 m 233 1011 l 254 1047 l 435 974 l 615 1047 l 636 1011 l 435 838 l 233 1011 m 431 603 q 264 479 296 603 l 585 479 q 431 603 561 603 z "},"Ĝ":{"ha":1097,"x_min":14,"x_max":1083,"o":"m 583 389 l 583 625 l 1083 625 l 1083 535 q 948 122 1083 264 q 560 -21 813 -21 q 169 133 325 -21 q 14 535 14 288 q 169 938 14 785 q 576 1090 325 1090 q 988 932 832 1090 l 794 739 q 576 833 715 833 q 369 753 447 833 q 292 535 292 672 q 369 317 292 399 q 568 236 447 236 q 717 272 663 236 q 793 389 772 308 l 583 389 m 325 1090 l 317 1143 l 563 1236 l 808 1143 l 800 1090 l 563 1142 l 325 1090 z "},"ĝ":{"ha":883,"x_min":4,"x_max":865,"o":"m 865 54 l 864 54 q 727 -213 858 -115 q 399 -311 596 -311 q 4 -136 133 -311 l 150 11 q 250 -72 186 -39 q 393 -106 314 -106 q 555 -60 494 -106 q 615 54 615 -15 l 615 106 q 406 39 522 39 q 138 149 246 39 q 29 424 29 260 q 138 698 29 588 q 406 808 246 808 q 621 738 522 808 l 621 792 l 865 792 l 865 54 m 572 299 q 596 323 572 299 q 621 424 621 347 q 572 549 621 500 q 447 597 522 597 q 322 549 371 597 q 274 424 274 500 q 322 299 274 347 q 447 250 371 250 q 572 299 522 250 m 246 840 l 225 876 l 426 1050 l 628 876 l 607 840 l 426 913 l 246 840 z "},"Ğ":{"ha":1097,"x_min":14,"x_max":1083,"o":"m 722 1133 q 688 1115 722 1133 q 564 1097 654 1097 q 406 1133 474 1097 q 321 1244 339 1169 l 407 1244 q 463 1199 417 1214 q 564 1185 508 1185 q 665 1199 619 1185 q 721 1244 711 1214 l 807 1244 q 722 1133 789 1169 m 583 389 l 583 625 l 1083 625 l 1083 535 q 948 122 1083 264 q 560 -21 813 -21 q 169 133 325 -21 q 14 535 14 288 q 169 938 14 785 q 576 1090 325 1090 q 988 932 832 1090 l 794 739 q 576 833 715 833 q 369 753 447 833 q 292 535 292 672 q 369 317 292 399 q 568 236 447 236 q 717 272 663 236 q 793 389 772 308 l 583 389 z "},"ğ":{"ha":883,"x_min":4,"x_max":865,"o":"m 865 54 l 864 54 q 727 -213 858 -115 q 399 -311 596 -311 q 4 -136 133 -311 l 150 11 q 250 -72 186 -39 q 393 -106 314 -106 q 555 -60 494 -106 q 615 54 615 -15 l 615 106 q 406 39 522 39 q 138 149 246 39 q 29 424 29 260 q 138 698 29 588 q 406 808 246 808 q 621 738 522 808 l 621 792 l 865 792 l 865 54 m 572 299 q 596 323 572 299 q 621 424 621 347 q 572 549 621 500 q 447 597 522 597 q 322 549 371 597 q 274 424 274 500 q 322 299 274 347 q 447 250 371 250 q 572 299 522 250 m 581 898 q 548 873 581 898 q 426 847 515 847 q 272 898 338 847 q 197 1029 207 949 l 283 1029 q 332 972 290 992 q 426 953 374 953 q 521 972 479 953 q 569 1029 563 992 l 656 1029 q 581 898 646 949 z "},"Ġ":{"ha":1097,"x_min":14,"x_max":1083,"o":"m 515 1117 q 505 1127 515 1117 q 494 1167 494 1138 q 515 1216 494 1196 q 564 1236 535 1236 q 613 1216 593 1236 q 633 1167 633 1196 q 613 1117 633 1138 q 564 1097 593 1097 q 515 1117 535 1097 m 583 389 l 583 625 l 1083 625 l 1083 535 q 948 122 1083 264 q 560 -21 813 -21 q 169 133 325 -21 q 14 535 14 288 q 169 938 14 785 q 576 1090 325 1090 q 988 932 832 1090 l 794 739 q 576 833 715 833 q 369 753 447 833 q 292 535 292 672 q 369 317 292 399 q 568 236 447 236 q 717 272 663 236 q 793 389 772 308 l 583 389 z "},"ġ":{"ha":883,"x_min":4,"x_max":865,"o":"m 865 54 l 864 54 q 727 -213 858 -115 q 399 -311 596 -311 q 4 -136 133 -311 l 150 11 q 250 -72 186 -39 q 393 -106 314 -106 q 551 -62 490 -106 q 615 47 613 -19 l 615 106 q 406 39 522 39 q 138 149 246 39 q 29 424 29 260 q 138 698 29 588 q 406 808 246 808 q 621 738 522 808 l 621 792 l 865 792 l 865 54 m 572 299 q 596 323 572 299 q 621 424 621 347 q 572 549 621 500 q 447 597 522 597 q 322 549 371 597 q 274 424 274 500 q 322 299 274 347 q 447 250 371 250 q 572 299 522 250 m 328 877 q 308 898 328 877 q 288 975 288 918 q 328 1073 288 1032 q 426 1114 369 1114 q 524 1073 483 1114 q 565 975 565 1032 q 524 877 565 918 q 426 836 483 836 q 328 877 369 836 z "},"Ģ":{"ha":1097,"x_min":14,"x_max":1083,"o":"m 603 -292 l 429 -292 l 458 -56 l 671 -56 l 603 -292 m 583 389 l 583 625 l 1083 625 l 1083 535 q 948 122 1083 264 q 560 -21 813 -21 q 169 133 325 -21 q 14 535 14 288 q 169 938 14 785 q 576 1090 325 1090 q 988 932 832 1090 l 794 739 q 576 833 715 833 q 369 753 447 833 q 292 535 292 672 q 369 317 292 399 q 568 236 447 236 q 717 272 663 236 q 793 389 772 308 l 583 389 z "},"ģ":{"ha":883,"x_min":4,"x_max":865,"o":"m 865 54 l 864 54 q 727 -213 858 -115 q 399 -311 596 -311 q 4 -136 133 -311 l 150 11 q 250 -72 186 -39 q 393 -106 314 -106 q 555 -60 494 -106 q 615 54 615 -15 l 615 106 q 406 39 522 39 q 138 149 246 39 q 29 424 29 260 q 138 698 29 588 q 406 808 246 808 q 621 738 522 808 l 621 792 l 865 792 l 865 54 m 572 299 q 596 323 572 299 q 621 424 621 347 q 572 549 621 500 q 447 597 522 597 q 322 549 371 597 q 274 424 274 500 q 322 299 274 347 q 447 250 371 250 q 572 299 522 250 m 483 847 l 369 847 l 404 1043 l 492 1043 l 483 847 z "},"Ĥ":{"ha":1042,"x_min":35,"x_max":1007,"o":"m 1007 1069 l 1007 0 l 729 0 l 729 431 l 313 431 l 313 0 l 35 0 l 35 1069 l 313 1069 l 313 667 l 729 667 l 729 1069 l 1007 1069 m 283 1090 l 275 1143 l 521 1236 l 767 1143 l 758 1090 l 521 1142 l 283 1090 z "},"ĥ":{"ha":790,"x_min":-103,"x_max":774,"o":"m -94 1118 l -103 1171 l 143 1264 l 389 1171 l 381 1118 l 143 1169 l -94 1118 m 268 1097 l 268 732 q 497 808 354 808 q 693 738 613 808 q 774 550 774 667 l 774 0 l 524 0 l 524 503 q 489 577 522 549 q 407 606 456 606 q 307 573 346 606 q 268 483 268 540 l 268 0 l 18 0 l 18 1097 l 268 1097 z "},"Ħ":{"ha":1042,"x_min":35,"x_max":1007,"o":"m 1007 1069 l 1007 0 l 729 0 l 729 431 l 313 431 l 313 0 l 35 0 l 35 1069 l 313 1069 l 313 975 l 729 975 l 729 1069 l 1007 1069 m 313 767 l 313 667 l 729 667 l 729 767 l 313 767 z "},"ħ":{"ha":844,"x_min":-17,"x_max":828,"o":"m 322 1097 l 322 1028 l 483 1028 l 483 847 l 322 847 l 322 732 q 551 808 408 808 q 747 738 667 808 q 828 550 828 667 l 828 0 l 578 0 l 578 503 q 543 577 576 549 q 461 606 510 606 q 363 574 401 606 q 322 489 324 543 l 322 0 l 72 0 l 72 847 l -17 847 l -17 1028 l 72 1028 l 72 1097 l 322 1097 z "},"Ĩ":{"ha":347,"x_min":-71,"x_max":418,"o":"m 313 1069 l 313 0 l 35 0 l 35 1069 l 313 1069 m 285 1178 q 363 1221 340 1178 l 418 1221 q 370 1127 406 1164 q 278 1090 335 1090 q 165 1120 232 1090 q 63 1150 97 1150 q -15 1107 7 1150 l -71 1107 q -23 1201 -58 1164 q 69 1238 13 1238 q 183 1208 115 1238 q 285 1178 250 1178 z "},"ĩ":{"ha":306,"x_min":-124,"x_max":429,"o":"m 278 792 l 278 0 l 28 0 l 28 792 l 278 792 m 32 1043 q 168 1005 94 1043 q 279 967 242 967 q 365 1026 350 967 l 429 1026 q 378 897 419 942 q 274 851 338 851 q 138 890 213 851 q 26 928 64 928 q -60 868 -44 928 l -124 868 q -73 998 -114 953 q 32 1043 -32 1043 z "},"Ī":{"ha":347,"x_min":-21,"x_max":368,"o":"m 313 1069 l 313 0 l 35 0 l 35 1069 l 313 1069 m 368 1221 l 368 1107 l -21 1107 l -21 1221 l 368 1221 z "},"ī":{"ha":306,"x_min":-42,"x_max":347,"o":"m 278 792 l 278 0 l 28 0 l 28 792 l 278 792 m 347 990 l 347 876 l -42 876 l -42 990 l 347 990 z "},"Ĭ":{"ha":347,"x_min":-69,"x_max":417,"o":"m 313 1069 l 313 0 l 35 0 l 35 1069 l 313 1069 m 331 1126 q 298 1108 331 1126 q 174 1090 264 1090 q 16 1126 83 1090 q -69 1238 -51 1163 l 17 1238 q 72 1192 26 1207 q 174 1178 118 1178 q 275 1192 229 1178 q 331 1238 321 1207 l 417 1238 q 331 1126 399 1163 z "},"ĭ":{"ha":306,"x_min":-76,"x_max":382,"o":"m 278 792 l 278 0 l 28 0 l 28 792 l 278 792 m 307 898 q 274 873 307 898 q 153 847 242 847 q -1 898 64 847 q -76 1029 -67 949 l 10 1029 q 58 972 17 992 q 153 953 100 953 q 247 972 206 953 q 296 1029 289 992 l 382 1029 q 307 898 372 949 z "},"Į":{"ha":347,"x_min":19,"x_max":374,"o":"m 240 -224 q 350 -197 301 -224 l 374 -249 q 224 -292 311 -292 q 76 -256 132 -292 q 19 -151 19 -219 q 35 -90 19 -121 l 35 1069 l 313 1069 l 313 0 q 142 -142 142 -36 q 168 -202 142 -181 q 240 -224 194 -224 z "},"į":{"ha":306,"x_min":-15,"x_max":339,"o":"m 206 -224 q 315 -197 267 -224 l 339 -249 q 189 -292 276 -292 q 41 -256 97 -292 q -15 -151 -15 -219 q 28 -51 -15 -97 l 28 792 l 278 792 l 278 0 q 107 -142 107 -36 q 133 -202 107 -181 q 206 -224 160 -224 m 55 877 q 34 898 55 877 q 14 975 14 918 q 55 1073 14 1032 q 153 1114 96 1114 q 251 1073 210 1114 q 292 975 292 1032 q 251 877 292 918 q 153 836 210 836 q 55 877 96 836 z "},"İ":{"ha":347,"x_min":35,"x_max":313,"o":"m 313 1069 l 313 0 l 35 0 l 35 1069 l 313 1069 m 124 1110 q 114 1120 124 1110 q 104 1160 104 1131 q 124 1209 104 1189 q 174 1229 144 1229 q 223 1209 203 1229 q 243 1160 243 1189 q 223 1110 243 1131 q 174 1090 203 1090 q 124 1110 144 1090 z "},"ı":{"ha":306,"x_min":28,"x_max":278,"o":"m 278 792 l 278 0 l 28 0 l 28 792 l 278 792 z "},"Ĳ":{"ha":907,"x_min":35,"x_max":875,"o":"m 597 354 l 597 1069 l 875 1069 l 875 328 q 776 69 875 158 q 514 -21 678 -21 q 417 -7 468 -21 l 417 272 q 493 249 456 249 q 567 278 538 249 q 597 354 597 307 m 313 1069 l 313 0 l 35 0 l 35 1069 l 313 1069 z "},"ĳ":{"ha":611,"x_min":14,"x_max":597,"o":"m 333 -308 q 211 -288 264 -308 q 135 -246 158 -268 l 206 -64 q 264 -83 235 -83 q 312 -67 293 -83 q 333 -24 331 -50 l 333 792 l 583 792 l 583 -64 q 514 -239 583 -169 q 333 -308 444 -308 m 278 792 l 278 0 l 28 0 l 28 792 l 278 792 m 55 877 q 34 898 55 877 q 14 975 14 918 q 55 1073 14 1032 q 153 1114 96 1114 q 251 1073 210 1114 q 292 975 292 1032 q 251 877 292 918 q 153 836 210 836 q 55 877 96 836 m 360 877 q 340 898 360 877 q 319 975 319 918 q 360 1073 319 1032 q 458 1114 401 1114 q 556 1073 515 1114 q 597 975 597 1032 q 556 877 597 918 q 458 836 515 836 q 360 877 401 836 z "},"Ĵ":{"ha":696,"x_min":3,"x_max":769,"o":"m 386 354 l 386 1069 l 664 1069 l 664 328 q 565 69 664 158 q 303 -21 467 -21 q 118 20 200 -21 q 3 121 36 61 l 185 303 q 282 249 225 249 q 356 278 326 249 q 386 354 386 307 m 286 1090 l 278 1143 l 524 1236 l 769 1143 l 761 1090 l 524 1142 l 286 1090 z "},"ĵ":{"ha":306,"x_min":-171,"x_max":354,"o":"m 28 -308 q -94 -288 -42 -308 q -171 -246 -147 -268 l -100 -64 q -42 -83 -71 -83 q 6 -67 -12 -83 q 28 -24 25 -50 l 28 792 l 278 792 l 278 -64 q 208 -239 278 -169 q 28 -308 139 -308 m -28 840 l -49 876 l 153 1050 l 354 876 l 333 840 l 153 913 l -28 840 z "},"Ķ":{"ha":1063,"x_min":35,"x_max":1049,"o":"m 313 1069 l 313 685 l 654 1069 l 1007 1069 l 585 626 l 1049 0 l 696 0 l 393 425 l 313 340 l 313 0 l 35 0 l 35 1069 l 313 1069 m 438 -56 l 551 -56 l 510 -292 l 428 -292 l 438 -56 z "},"ķ":{"ha":815,"x_min":18,"x_max":813,"o":"m 268 1097 l 268 554 l 479 792 l 782 792 l 493 490 l 813 0 l 515 0 l 332 321 l 268 253 l 268 0 l 18 0 l 18 1097 l 268 1097 m 331 -56 l 444 -56 l 403 -292 l 321 -292 l 331 -56 z "},"ĸ":{"ha":815,"x_min":18,"x_max":813,"o":"m 268 792 l 268 554 l 479 792 l 782 792 l 493 490 l 813 0 l 515 0 l 332 321 l 268 253 l 268 0 l 18 0 l 18 792 l 268 792 z "},"Ĺ":{"ha":740,"x_min":35,"x_max":729,"o":"m 729 236 l 729 0 l 35 0 l 35 1069 l 313 1069 l 313 236 l 729 236 m 103 1097 l 94 1150 l 336 1222 l 353 1117 l 103 1097 z "},"ĺ":{"ha":286,"x_min":17,"x_max":275,"o":"m 18 0 l 18 1097 l 268 1097 l 268 0 l 18 0 m 25 1125 l 17 1178 l 258 1250 l 275 1144 l 25 1125 z "},"Ļ":{"ha":740,"x_min":35,"x_max":729,"o":"m 729 236 l 729 0 l 35 0 l 35 1069 l 313 1069 l 313 236 l 729 236 m 331 -56 l 444 -56 l 403 -292 l 321 -292 l 331 -56 z "},"ļ":{"ha":286,"x_min":18,"x_max":268,"o":"m 18 0 l 18 1097 l 268 1097 l 268 0 l 18 0 m 86 -56 l 200 -56 l 158 -292 l 76 -292 l 86 -56 z "},"Ľ":{"ha":740,"x_min":35,"x_max":729,"o":"m 729 236 l 729 0 l 35 0 l 35 1069 l 313 1069 l 313 236 l 729 236 m 475 1097 l 589 1097 l 547 861 l 465 861 l 475 1097 z "},"ľ":{"ha":314,"x_min":18,"x_max":461,"o":"m 18 0 l 18 1097 l 268 1097 l 268 0 l 18 0 m 347 1097 l 461 1097 l 419 861 l 338 861 l 347 1097 z "},"Ŀ":{"ha":740,"x_min":35,"x_max":729,"o":"m 729 236 l 729 0 l 35 0 l 35 1069 l 313 1069 l 313 236 l 729 236 m 667 633 q 688 612 667 633 q 708 535 708 592 q 667 437 708 478 q 569 396 626 396 q 472 437 513 396 q 431 535 431 478 q 472 633 431 592 q 569 674 513 674 q 667 633 626 674 z "},"ŀ":{"ha":556,"x_min":18,"x_max":560,"o":"m 18 0 l 18 1097 l 268 1097 l 268 0 l 18 0 m 519 659 q 539 639 519 659 q 560 561 560 618 q 519 463 560 504 q 421 422 478 422 q 323 463 364 422 q 282 561 282 504 q 323 659 282 618 q 421 700 364 700 q 519 659 478 700 z "},"Ł":{"ha":846,"x_min":8,"x_max":835,"o":"m 8 496 l 140 560 l 140 1069 l 418 1069 l 418 696 l 651 811 l 651 631 l 418 515 l 418 236 l 835 236 l 835 0 l 140 0 l 140 379 l 8 315 l 8 496 z "},"ł":{"ha":447,"x_min":8,"x_max":439,"o":"m 8 600 l 92 640 l 92 1097 l 342 1097 l 342 763 l 439 811 l 439 658 l 342 610 l 342 0 l 92 0 l 92 488 l 8 447 l 8 600 z "},"Ń":{"ha":1069,"x_min":35,"x_max":1035,"o":"m 40 1083 l 771 514 l 757 1069 l 1035 1069 l 1035 -14 l 1029 -14 l 299 556 l 313 0 l 35 0 l 35 1083 l 40 1083 m 451 1097 l 443 1150 l 685 1222 l 701 1117 l 451 1097 z "},"ń":{"ha":790,"x_min":18,"x_max":774,"o":"m 524 0 l 524 499 q 490 576 524 546 q 407 606 457 606 q 308 574 347 606 q 268 489 269 543 l 268 0 l 18 0 l 18 792 l 263 792 l 263 728 q 497 808 350 808 q 693 738 613 808 q 774 550 774 667 l 774 0 l 524 0 m 394 840 l 374 876 l 575 1050 l 651 917 l 394 840 z "},"Ņ":{"ha":1069,"x_min":35,"x_max":1035,"o":"m 40 1083 l 771 514 l 757 1069 l 1035 1069 l 1035 -14 l 1029 -14 l 299 556 l 313 0 l 35 0 l 35 1083 l 40 1083 m 496 -56 l 610 -56 l 568 -292 l 486 -292 l 496 -56 z "},"ņ":{"ha":790,"x_min":18,"x_max":774,"o":"m 524 0 l 524 499 q 490 576 524 546 q 407 606 457 606 q 308 574 347 606 q 268 489 269 543 l 268 0 l 18 0 l 18 792 l 263 792 l 263 728 q 497 808 350 808 q 693 738 613 808 q 774 550 774 667 l 774 0 l 524 0 m 338 -56 l 451 -56 l 410 -292 l 328 -292 l 338 -56 z "},"Ň":{"ha":1069,"x_min":35,"x_max":1035,"o":"m 40 1083 l 771 514 l 757 1069 l 1035 1069 l 1035 -14 l 1029 -14 l 299 556 l 313 0 l 35 0 l 35 1083 l 40 1083 m 758 1236 l 767 1183 l 521 1090 l 275 1183 l 283 1236 l 521 1183 l 758 1236 z "},"ň":{"ha":790,"x_min":18,"x_max":774,"o":"m 524 0 l 524 503 q 489 577 522 549 q 407 606 456 606 q 308 574 347 606 q 268 489 269 543 l 268 0 l 18 0 l 18 792 l 263 792 l 263 728 q 497 808 350 808 q 693 738 613 808 q 774 550 774 667 l 774 0 l 524 0 m 193 1011 l 214 1047 l 394 974 l 575 1047 l 596 1011 l 394 838 l 193 1011 z "},"Ŋ":{"ha":1069,"x_min":35,"x_max":1035,"o":"m 778 -308 q 652 -288 708 -308 q 572 -246 596 -268 l 643 -64 q 701 -83 672 -83 q 751 -65 732 -83 q 771 -18 771 -46 l 771 188 l 299 556 l 313 0 l 35 0 l 35 1083 l 40 1083 l 771 514 l 757 1069 l 1035 1069 l 1035 -57 q 962 -235 1035 -162 q 778 -308 889 -308 z "},"ŋ":{"ha":790,"x_min":18,"x_max":774,"o":"m 524 -308 q 401 -288 454 -308 q 325 -246 349 -268 l 396 -64 q 454 -83 425 -83 q 502 -67 483 -83 q 524 -24 521 -50 l 524 499 q 490 576 524 546 q 407 606 457 606 q 308 574 347 606 q 268 489 269 543 l 268 0 l 18 0 l 18 792 l 263 792 l 263 728 q 497 808 350 808 q 693 738 613 808 q 774 550 774 667 l 774 -64 q 704 -239 774 -169 q 524 -308 635 -308 z "},"Ō":{"ha":1153,"x_min":14,"x_max":1139,"o":"m 783 317 q 822 357 783 317 q 861 535 861 397 q 783 753 861 672 q 576 833 706 833 q 369 753 447 833 q 292 535 292 672 q 369 317 292 397 q 576 236 447 236 q 783 317 706 236 m 983 938 q 1061 861 983 938 q 1139 535 1139 785 q 983 132 1139 285 q 576 -21 828 -21 q 169 132 325 -21 q 14 535 14 285 q 169 938 14 785 q 576 1090 325 1090 q 983 938 828 1090 m 772 1221 l 772 1107 l 383 1107 l 383 1221 l 772 1221 z "},"ō":{"ha":875,"x_min":13,"x_max":863,"o":"m 744 693 q 803 635 744 693 q 863 396 863 578 q 744 99 863 214 q 438 -17 625 -17 q 131 99 250 -17 q 13 396 13 214 q 131 693 13 578 q 438 808 250 808 q 744 693 625 808 m 306 533 q 282 508 306 533 q 257 396 257 483 q 306 258 257 308 q 438 208 356 208 q 569 258 519 208 q 618 396 618 308 q 569 533 618 483 q 438 583 519 583 q 306 533 356 583 m 632 990 l 632 876 l 243 876 l 243 990 l 632 990 z "},"Ŏ":{"ha":1153,"x_min":14,"x_max":1139,"o":"m 783 317 q 822 357 783 317 q 861 535 861 397 q 783 753 861 672 q 576 833 706 833 q 369 753 447 833 q 292 535 292 672 q 369 317 292 397 q 576 236 447 236 q 783 317 706 236 m 983 938 q 1061 861 983 938 q 1139 535 1139 785 q 983 132 1139 285 q 576 -21 828 -21 q 169 132 325 -21 q 14 535 14 285 q 169 938 14 785 q 576 1090 325 1090 q 983 938 828 1090 m 735 1133 q 702 1115 735 1133 q 578 1097 668 1097 q 420 1133 488 1097 q 335 1244 353 1169 l 421 1244 q 476 1199 431 1214 q 578 1185 522 1185 q 679 1199 633 1185 q 735 1244 725 1214 l 821 1244 q 735 1133 803 1169 z "},"ŏ":{"ha":875,"x_min":13,"x_max":863,"o":"m 744 693 q 803 635 744 693 q 863 396 863 578 q 744 99 863 214 q 438 -17 625 -17 q 131 99 250 -17 q 13 396 13 214 q 131 693 13 578 q 438 808 250 808 q 744 693 625 808 m 306 533 q 282 508 306 533 q 257 396 257 483 q 306 258 257 308 q 438 208 356 208 q 569 258 519 208 q 618 396 618 308 q 569 533 618 483 q 438 583 519 583 q 306 533 356 583 m 592 898 q 559 873 592 898 q 438 847 526 847 q 283 898 349 847 q 208 1029 218 949 l 294 1029 q 343 972 301 992 q 438 953 385 953 q 532 972 490 953 q 581 1029 574 992 l 667 1029 q 592 898 657 949 z "},"Ő":{"ha":1153,"x_min":14,"x_max":1139,"o":"m 783 317 q 822 357 783 317 q 861 535 861 397 q 783 753 861 672 q 576 833 706 833 q 369 753 447 833 q 292 535 292 672 q 369 317 292 397 q 576 236 447 236 q 783 317 706 236 m 983 938 q 1061 861 983 938 q 1139 535 1139 785 q 983 132 1139 285 q 576 -21 828 -21 q 169 132 325 -21 q 14 535 14 285 q 169 938 14 785 q 576 1090 325 1090 q 983 938 828 1090 m 433 1090 l 411 1139 l 550 1236 l 593 1139 l 433 1090 m 642 1090 l 619 1139 l 758 1236 l 801 1139 l 642 1090 z "},"ő":{"ha":875,"x_min":13,"x_max":863,"o":"m 744 693 q 803 635 744 693 q 863 396 863 578 q 744 99 863 214 q 438 -17 625 -17 q 131 99 250 -17 q 13 396 13 214 q 131 693 13 578 q 438 808 250 808 q 744 693 625 808 m 306 533 q 282 508 306 533 q 257 396 257 483 q 306 258 257 308 q 438 208 356 208 q 569 258 519 208 q 618 396 618 308 q 569 533 618 483 q 438 583 519 583 q 306 533 356 583 m 354 840 l 318 861 l 383 1050 l 493 986 l 354 840 m 521 840 l 485 861 l 550 1050 l 660 986 l 521 840 z "},"Œ":{"ha":1433,"x_min":14,"x_max":1417,"o":"m 1417 236 l 1417 0 l 535 0 q 163 151 311 0 q 14 535 14 301 q 163 919 14 768 q 535 1069 311 1069 l 1417 1069 l 1417 833 l 944 833 l 944 667 l 1333 667 l 1333 431 l 944 431 l 944 236 l 1417 236 m 371 752 q 331 711 371 752 q 292 535 292 671 q 371 317 292 399 q 583 236 450 236 l 667 236 l 667 833 l 583 833 q 371 752 450 833 z "},"œ":{"ha":1453,"x_min":13,"x_max":1440,"o":"m 1060 189 q 1301 286 1217 189 l 1440 149 q 1053 -17 1307 -17 q 740 101 854 -17 q 438 -17 626 -17 q 131 99 250 -17 q 13 396 13 214 q 131 693 13 578 q 438 808 250 808 q 743 686 628 808 q 1040 808 858 808 q 1331 690 1222 808 q 1440 396 1440 571 l 1440 313 l 872 313 q 1060 189 908 189 m 306 533 q 282 508 306 533 q 257 396 257 483 q 306 258 257 308 q 438 208 356 208 q 569 258 519 208 q 618 396 618 308 q 569 533 618 483 q 438 583 519 583 q 306 533 356 583 m 1036 603 q 869 479 901 603 l 1190 479 q 1036 603 1167 603 z "},"Ŕ":{"ha":889,"x_min":35,"x_max":889,"o":"m 326 1097 l 318 1150 l 560 1222 l 576 1117 l 326 1097 m 854 715 q 805 535 854 617 q 674 406 756 453 l 889 0 l 611 0 l 419 361 l 313 361 l 313 0 l 35 0 l 35 1069 l 500 1069 q 751 966 647 1069 q 854 715 854 863 m 458 833 l 313 833 l 313 597 l 458 597 q 542 632 507 597 q 576 715 576 667 q 542 799 576 764 q 458 833 507 833 z "},"ŕ":{"ha":550,"x_min":18,"x_max":547,"o":"m 263 792 l 263 733 q 429 808 324 808 q 547 765 507 808 l 468 563 q 401 583 442 583 q 305 547 342 583 q 268 446 268 511 l 268 0 l 18 0 l 18 792 l 263 792 m 268 840 l 247 876 l 449 1050 l 525 917 l 268 840 z "},"Ŗ":{"ha":889,"x_min":35,"x_max":889,"o":"m 388 -56 l 501 -56 l 460 -292 l 378 -292 l 388 -56 m 854 715 q 805 535 854 617 q 674 406 756 453 l 889 0 l 611 0 l 419 361 l 313 361 l 313 0 l 35 0 l 35 1069 l 500 1069 q 751 966 647 1069 q 854 715 854 863 m 458 833 l 313 833 l 313 597 l 458 597 q 542 632 507 597 q 576 715 576 667 q 542 799 576 764 q 458 833 507 833 z "},"ŗ":{"ha":550,"x_min":18,"x_max":547,"o":"m 263 792 l 263 733 q 429 808 324 808 q 547 765 507 808 l 468 563 q 401 583 442 583 q 305 547 342 583 q 268 446 268 511 l 268 0 l 18 0 l 18 792 l 263 792 m 86 -56 l 200 -56 l 158 -292 l 76 -292 l 86 -56 z "},"Ř":{"ha":889,"x_min":35,"x_max":889,"o":"m 633 1236 l 642 1183 l 396 1090 l 150 1183 l 158 1236 l 396 1183 l 633 1236 m 854 715 q 805 535 854 617 q 674 406 756 453 l 889 0 l 611 0 l 419 361 l 313 361 l 313 0 l 35 0 l 35 1069 l 500 1069 q 751 966 647 1069 q 854 715 854 863 m 458 833 l 313 833 l 313 597 l 458 597 q 542 632 507 597 q 576 715 576 667 q 542 799 576 764 q 458 833 507 833 z "},"ř":{"ha":550,"x_min":18,"x_max":547,"o":"m 263 792 l 263 733 q 429 808 324 808 q 547 765 507 808 l 468 563 q 401 583 442 583 q 305 547 342 583 q 268 446 268 511 l 268 0 l 18 0 l 18 792 l 263 792 m 67 1011 l 88 1047 l 268 974 l 449 1047 l 469 1011 l 268 838 l 67 1011 z "},"Ś":{"ha":838,"x_min":7,"x_max":828,"o":"m 401 215 q 508 242 468 215 q 547 321 547 269 q 533 363 547 344 q 488 398 519 382 q 430 423 456 414 q 354 447 404 432 q 135 563 214 490 q 56 763 56 635 q 165 999 56 908 q 436 1089 275 1089 q 663 1037 567 1089 q 797 892 760 985 l 574 763 q 444 854 528 854 q 365 831 393 854 q 338 774 338 807 q 342 747 338 758 q 358 726 347 735 q 380 710 369 717 q 409 696 390 703 q 440 685 428 689 q 476 676 453 682 q 513 665 500 669 q 649 615 596 640 q 746 549 703 589 q 808 452 789 510 q 828 315 828 394 q 711 83 828 186 q 408 -19 594 -19 q 158 40 261 -19 q 7 210 56 99 l 229 339 q 401 215 275 215 m 367 1097 l 358 1150 l 600 1222 l 617 1117 l 367 1097 z "},"ś":{"ha":696,"x_min":8,"x_max":686,"o":"m 353 -17 q 8 125 124 -17 l 156 269 q 340 181 228 181 q 444 238 444 181 q 415 286 444 271 q 300 315 385 301 q 110 400 174 336 q 46 547 46 464 q 138 737 46 665 q 361 808 229 808 q 534 773 458 808 q 650 672 610 738 l 521 546 q 375 611 474 611 q 288 557 288 611 q 296 533 288 543 q 329 515 304 524 q 373 503 354 507 q 440 489 392 499 q 622 407 558 465 q 686 239 686 349 q 588 56 686 128 q 353 -17 490 -17 m 354 840 l 333 876 l 535 1050 l 611 917 l 354 840 z "},"Ŝ":{"ha":838,"x_min":7,"x_max":828,"o":"m 401 215 q 508 242 468 215 q 547 321 547 269 q 533 363 547 344 q 488 398 519 382 q 430 423 456 414 q 354 447 404 432 q 135 563 214 490 q 56 763 56 635 q 165 999 56 908 q 436 1089 275 1089 q 663 1037 567 1089 q 797 892 760 985 l 574 763 q 444 854 528 854 q 365 831 393 854 q 338 774 338 807 q 342 747 338 758 q 358 726 347 735 q 380 710 369 717 q 409 696 390 703 q 440 685 428 689 q 476 676 453 682 q 513 665 500 669 q 649 615 596 640 q 746 549 703 589 q 808 452 789 510 q 828 315 828 394 q 711 83 828 186 q 408 -19 594 -19 q 158 40 261 -19 q 7 210 56 99 l 229 339 q 401 215 275 215 m 199 1090 l 190 1143 l 436 1236 l 682 1143 l 674 1090 l 436 1142 l 199 1090 z "},"ŝ":{"ha":696,"x_min":8,"x_max":686,"o":"m 353 -17 q 8 125 124 -17 l 156 269 q 340 181 228 181 q 444 238 444 181 q 415 286 444 271 q 300 315 385 301 q 110 400 174 336 q 46 547 46 464 q 138 737 46 665 q 361 808 229 808 q 534 773 458 808 q 650 672 610 738 l 521 546 q 375 611 474 611 q 288 557 288 611 q 296 533 288 543 q 329 515 304 524 q 373 503 354 507 q 440 489 392 499 q 622 407 558 465 q 686 239 686 349 q 588 56 686 128 q 353 -17 490 -17 m 174 840 l 153 876 l 354 1050 l 556 876 l 535 840 l 354 913 l 174 840 z "},"Ş":{"ha":838,"x_min":7,"x_max":828,"o":"m 424 -224 q 490 -181 490 -224 q 361 -108 490 -126 l 386 -18 q 150 44 247 -14 q 7 210 53 103 l 229 339 q 401 215 275 215 q 508 242 468 215 q 547 321 547 269 q 533 363 547 344 q 488 398 519 382 q 430 423 456 414 q 354 447 404 432 q 135 563 214 490 q 56 763 56 635 q 165 999 56 908 q 436 1089 275 1089 q 663 1037 567 1089 q 797 892 760 985 l 574 763 q 444 854 528 854 q 365 831 393 854 q 338 774 338 807 q 342 747 338 758 q 358 726 347 735 q 380 710 369 717 q 409 696 390 703 q 440 685 428 689 q 476 676 453 682 q 513 665 500 669 q 649 615 596 640 q 746 549 703 589 q 808 452 789 510 q 828 315 828 394 q 720 91 828 192 q 439 -18 613 -10 l 433 -40 q 560 -91 514 -56 q 607 -175 607 -126 q 556 -262 607 -233 q 431 -292 506 -292 q 274 -249 331 -292 l 297 -197 q 424 -224 354 -224 z "},"ş":{"ha":696,"x_min":8,"x_max":686,"o":"m 361 -224 q 428 -181 428 -224 q 299 -108 428 -126 l 324 -15 q 8 125 118 -8 l 156 269 q 340 181 228 181 q 444 238 444 181 q 415 286 444 271 q 300 315 385 301 q 110 400 174 336 q 46 547 46 464 q 138 737 46 665 q 361 808 229 808 q 534 773 458 808 q 650 672 610 738 l 521 546 q 375 611 474 611 q 288 557 288 611 q 296 533 288 543 q 329 515 304 524 q 373 503 354 507 q 440 489 392 499 q 622 407 558 465 q 686 239 686 349 q 597 63 686 133 q 376 -15 507 -8 l 371 -40 q 498 -91 451 -56 q 544 -175 544 -126 q 494 -262 544 -233 q 368 -292 443 -292 q 211 -249 268 -292 l 235 -197 q 361 -224 292 -224 z "},"Š":{"ha":838,"x_min":7,"x_max":828,"o":"m 401 215 q 508 242 468 215 q 547 321 547 269 q 533 363 547 344 q 488 398 519 382 q 430 423 456 414 q 354 447 404 432 q 135 563 214 490 q 56 763 56 635 q 165 999 56 908 q 436 1089 275 1089 q 663 1037 567 1089 q 797 892 760 985 l 574 763 q 444 854 528 854 q 365 831 393 854 q 338 774 338 807 q 342 747 338 758 q 358 726 347 735 q 380 710 369 717 q 409 696 390 703 q 440 685 428 689 q 476 676 453 682 q 513 665 500 669 q 649 615 596 640 q 746 549 703 589 q 808 452 789 510 q 828 315 828 394 q 711 83 828 186 q 408 -19 594 -19 q 158 40 261 -19 q 7 210 56 99 l 229 339 q 401 215 275 215 m 674 1243 l 682 1190 l 436 1097 l 190 1190 l 199 1243 l 436 1190 l 674 1243 z "},"š":{"ha":696,"x_min":8,"x_max":686,"o":"m 353 -17 q 8 125 124 -17 l 156 269 q 340 181 228 181 q 444 238 444 181 q 415 286 444 271 q 300 315 385 301 q 110 400 174 336 q 46 547 46 464 q 138 737 46 665 q 361 808 229 808 q 534 773 458 808 q 650 672 610 738 l 521 546 q 375 611 474 611 q 288 557 288 611 q 296 533 288 543 q 329 515 304 524 q 373 503 354 507 q 440 489 392 499 q 622 407 558 465 q 686 239 686 349 q 588 56 686 128 q 353 -17 490 -17 m 153 1011 l 174 1047 l 354 974 l 535 1047 l 556 1011 l 354 838 l 153 1011 z "},"Ţ":{"ha":856,"x_min":11,"x_max":844,"o":"m 844 1069 l 844 833 l 567 833 l 567 0 l 289 0 l 289 833 l 11 833 l 11 1069 l 844 1069 m 371 -56 l 485 -56 l 443 -292 l 361 -292 l 371 -56 z "},"ţ":{"ha":594,"x_min":11,"x_max":571,"o":"m 372 -17 q 192 53 261 -17 q 122 228 122 122 l 122 597 l 11 597 l 11 792 l 122 792 l 122 975 l 372 975 l 372 792 l 553 792 l 553 597 l 372 597 l 372 274 q 392 227 372 246 q 442 208 411 208 q 500 228 471 208 l 571 46 q 494 3 547 24 q 372 -17 442 -17 m 288 -56 l 401 -56 l 360 -292 l 278 -292 l 288 -56 z "},"Ť":{"ha":856,"x_min":11,"x_max":844,"o":"m 844 1069 l 844 833 l 567 833 l 567 0 l 289 0 l 289 833 l 11 833 l 11 1069 l 844 1069 m 665 1236 l 674 1183 l 428 1090 l 182 1183 l 190 1236 l 428 1183 l 665 1236 z "},"ť":{"ha":594,"x_min":11,"x_max":571,"o":"m 372 -17 q 192 53 261 -17 q 122 228 122 122 l 122 597 l 11 597 l 11 792 l 122 792 l 122 975 l 372 975 l 372 792 l 553 792 l 553 597 l 372 597 l 372 268 q 394 225 375 242 q 442 208 413 208 q 500 228 471 208 l 571 46 q 494 3 547 24 q 372 -17 442 -17 m 451 1097 l 565 1097 l 524 861 l 442 861 l 451 1097 z "},"Ŧ":{"ha":856,"x_min":11,"x_max":844,"o":"m 706 653 l 706 444 l 567 444 l 567 0 l 289 0 l 289 444 l 150 444 l 150 653 l 289 653 l 289 833 l 11 833 l 11 1069 l 844 1069 l 844 833 l 567 833 l 567 653 l 706 653 z "},"ŧ":{"ha":594,"x_min":11,"x_max":571,"o":"m 11 326 l 11 507 l 122 507 l 122 597 l 11 597 l 11 792 l 122 792 l 122 975 l 372 975 l 372 792 l 553 792 l 553 597 l 372 597 l 372 507 l 511 507 l 511 326 l 372 326 l 372 274 q 392 227 372 246 q 442 208 411 208 q 500 228 471 208 l 571 46 q 494 3 547 24 q 372 -17 442 -17 q 192 53 261 -17 q 122 228 122 122 l 122 326 l 11 326 z "},"Ũ":{"ha":925,"x_min":32,"x_max":893,"o":"m 773 93 q 713 36 773 93 q 463 -21 653 -21 q 152 93 272 -21 q 32 401 32 207 l 32 1069 l 310 1069 l 310 389 q 351 276 310 317 q 463 236 393 236 q 574 276 532 236 q 615 389 615 317 l 615 1069 l 893 1069 l 893 401 q 773 93 893 207 m 575 1178 q 653 1221 631 1178 l 708 1221 q 660 1127 696 1164 q 568 1090 625 1090 q 455 1120 522 1090 q 353 1150 388 1150 q 275 1107 297 1150 l 219 1107 q 267 1201 232 1164 q 360 1238 303 1238 q 473 1208 406 1238 q 575 1178 540 1178 z "},"ũ":{"ha":790,"x_min":17,"x_max":772,"o":"m 267 792 l 267 293 q 300 216 267 246 q 383 186 333 186 q 483 219 444 186 q 522 308 522 251 l 522 792 l 772 792 l 772 0 l 528 0 l 528 64 q 293 -17 443 -17 q 97 54 178 -17 q 17 242 17 125 l 17 792 l 267 792 m 272 1043 q 408 1005 333 1043 q 519 967 483 967 q 606 1026 590 967 l 669 1026 q 619 897 660 942 q 514 851 578 851 q 378 890 453 851 q 267 928 303 928 q 181 868 196 928 l 117 868 q 167 998 126 953 q 272 1043 208 1043 z "},"Ū":{"ha":925,"x_min":32,"x_max":893,"o":"m 773 93 q 713 36 773 93 q 463 -21 653 -21 q 152 93 272 -21 q 32 401 32 207 l 32 1069 l 310 1069 l 310 389 q 351 276 310 317 q 463 236 393 236 q 574 276 532 236 q 615 389 615 317 l 615 1069 l 893 1069 l 893 401 q 773 93 893 207 m 658 1221 l 658 1107 l 269 1107 l 269 1221 l 658 1221 z "},"ū":{"ha":790,"x_min":17,"x_max":772,"o":"m 267 792 l 267 293 q 300 216 267 246 q 383 186 333 186 q 483 219 444 186 q 522 308 522 251 l 522 792 l 772 792 l 772 0 l 528 0 l 528 64 q 293 -17 443 -17 q 97 54 178 -17 q 17 242 17 125 l 17 792 l 267 792 m 588 990 l 588 876 l 199 876 l 199 990 l 588 990 z "},"Ŭ":{"ha":925,"x_min":32,"x_max":893,"o":"m 773 93 q 713 36 773 93 q 463 -21 653 -21 q 152 93 272 -21 q 32 401 32 207 l 32 1069 l 310 1069 l 310 389 q 351 276 310 317 q 463 236 393 236 q 574 276 532 236 q 615 389 615 317 l 615 1069 l 893 1069 l 893 401 q 773 93 893 207 m 622 1126 q 588 1108 622 1126 q 464 1090 554 1090 q 306 1126 374 1090 q 221 1238 239 1163 l 307 1238 q 363 1192 317 1207 q 464 1178 408 1178 q 565 1192 519 1178 q 621 1238 611 1207 l 707 1238 q 622 1126 689 1163 z "},"ŭ":{"ha":790,"x_min":17,"x_max":772,"o":"m 267 792 l 267 293 q 300 216 267 246 q 383 186 333 186 q 483 219 444 186 q 522 308 522 251 l 522 792 l 772 792 l 772 0 l 528 0 l 528 64 q 293 -17 443 -17 q 97 54 178 -17 q 17 242 17 125 l 17 792 l 267 792 m 547 898 q 515 873 547 898 q 393 847 482 847 q 239 898 304 847 q 164 1029 174 949 l 250 1029 q 299 972 257 992 q 393 953 340 953 q 488 972 446 953 q 536 1029 529 992 l 622 1029 q 547 898 613 949 z "},"Ů":{"ha":925,"x_min":32,"x_max":893,"o":"m 773 93 q 713 36 773 93 q 463 -21 653 -21 q 152 93 272 -21 q 32 401 32 207 l 32 1069 l 310 1069 l 310 389 q 351 276 310 317 q 463 236 393 236 q 574 276 532 236 q 615 389 615 317 l 615 1069 l 893 1069 l 893 401 q 773 93 893 207 m 376 1017 q 358 1035 376 1017 q 340 1104 340 1053 q 376 1192 340 1156 q 464 1228 413 1228 q 551 1192 515 1228 q 588 1104 588 1156 q 551 1017 588 1053 q 464 981 515 981 q 376 1017 413 981 m 512 1056 q 522 1066 512 1056 q 532 1104 532 1076 q 512 1152 532 1132 q 464 1172 492 1172 q 416 1152 436 1172 q 396 1104 396 1132 q 416 1056 396 1076 q 464 1036 436 1036 q 512 1056 492 1036 z "},"ů":{"ha":790,"x_min":17,"x_max":772,"o":"m 267 792 l 267 293 q 300 216 267 246 q 383 186 333 186 q 483 219 444 186 q 522 308 522 251 l 522 792 l 772 792 l 772 0 l 528 0 l 528 64 q 293 -17 443 -17 q 97 54 178 -17 q 17 242 17 125 l 17 792 l 267 792 m 306 872 q 288 890 306 872 q 269 960 269 908 q 306 1047 269 1011 q 393 1083 342 1083 q 481 1047 444 1083 q 517 960 517 1011 q 481 872 517 908 q 393 836 444 836 q 306 872 342 836 m 441 912 q 451 922 441 912 q 461 960 461 932 q 441 1008 461 988 q 393 1028 421 1028 q 345 1008 365 1028 q 325 960 325 988 q 345 912 325 932 q 393 892 365 892 q 441 912 421 892 z "},"Ű":{"ha":925,"x_min":32,"x_max":893,"o":"m 773 93 q 713 36 773 93 q 463 -21 653 -21 q 152 93 272 -21 q 32 401 32 207 l 32 1069 l 310 1069 l 310 389 q 351 276 310 317 q 463 236 393 236 q 574 276 532 236 q 615 389 615 317 l 615 1069 l 893 1069 l 893 401 q 773 93 893 207 m 319 1090 l 297 1139 l 436 1236 l 479 1139 l 319 1090 m 528 1090 l 506 1139 l 644 1236 l 688 1139 l 528 1090 z "},"ű":{"ha":790,"x_min":17,"x_max":772,"o":"m 267 792 l 267 293 q 300 216 267 246 q 383 186 333 186 q 483 219 444 186 q 522 308 522 251 l 522 792 l 772 792 l 772 0 l 528 0 l 528 64 q 293 -17 443 -17 q 97 54 178 -17 q 17 242 17 125 l 17 792 l 267 792 m 310 840 l 274 861 l 339 1050 l 449 986 l 310 840 m 476 840 l 440 861 l 506 1050 l 615 986 l 476 840 z "},"Ų":{"ha":925,"x_min":32,"x_max":893,"o":"m 538 -224 q 647 -197 599 -224 l 671 -249 q 521 -292 608 -292 q 373 -256 429 -292 q 317 -151 317 -219 q 403 -17 317 -74 q 133 112 235 0 q 32 401 32 224 l 32 1069 l 310 1069 l 310 389 q 351 276 310 317 q 463 236 393 236 q 574 276 532 236 q 615 389 615 317 l 615 1069 l 893 1069 l 893 401 q 804 127 893 236 q 565 -11 715 18 q 439 -142 439 -51 q 465 -202 439 -181 q 538 -224 492 -224 z "},"ų":{"ha":828,"x_min":17,"x_max":833,"o":"m 700 -224 q 810 -197 761 -224 l 833 -249 q 683 -292 771 -292 q 535 -256 592 -292 q 479 -151 479 -219 q 528 -46 479 -94 l 528 64 q 293 -17 443 -17 q 97 54 178 -17 q 17 242 17 125 l 17 792 l 267 792 l 267 293 q 300 216 267 246 q 383 186 333 186 q 483 219 444 186 q 522 308 522 251 l 522 792 l 772 792 l 772 0 q 601 -142 601 -36 q 628 -202 601 -181 q 700 -224 654 -224 z "},"Ŵ":{"ha":1617,"x_min":7,"x_max":1610,"o":"m 814 1069 l 1096 549 l 1311 1069 l 1610 1069 l 1140 -14 l 1128 -14 l 808 583 l 489 -14 l 476 -14 l 7 1069 l 306 1069 l 519 549 l 803 1069 l 814 1069 m 571 1090 l 563 1143 l 808 1236 l 1054 1143 l 1046 1090 l 808 1142 l 571 1090 z "},"ŵ":{"ha":1225,"x_min":8,"x_max":1217,"o":"m 615 800 l 838 438 l 972 792 l 1217 792 l 888 -17 l 882 -17 l 613 436 l 343 -17 l 338 -17 l 8 792 l 253 792 l 388 438 l 610 800 l 615 800 m 432 840 l 411 876 l 613 1050 l 814 876 l 793 840 l 613 913 l 432 840 z "},"Ŷ":{"ha":1056,"x_min":-18,"x_max":1079,"o":"m 269 1069 l 531 592 l 792 1069 l 1079 1069 l 669 375 l 669 0 l 392 0 l 392 375 l -18 1069 l 269 1069 m 293 1090 l 285 1143 l 531 1236 l 776 1143 l 768 1090 l 531 1142 l 293 1090 z "},"ŷ":{"ha":961,"x_min":3,"x_max":957,"o":"m 456 -292 l 161 -292 l 318 38 l 3 792 l 286 792 l 463 342 l 665 792 l 957 792 l 456 -292 m 299 840 l 278 876 l 479 1050 l 681 876 l 660 840 l 479 913 l 299 840 z "},"Ÿ":{"ha":1056,"x_min":-18,"x_max":1079,"o":"m 269 1069 l 531 592 l 792 1069 l 1079 1069 l 669 375 l 669 0 l 392 0 l 392 375 l -18 1069 l 269 1069 m 344 1110 q 334 1120 344 1110 q 324 1160 324 1131 q 344 1209 324 1189 q 393 1229 364 1229 q 442 1209 422 1229 q 463 1160 463 1189 q 442 1110 463 1131 q 393 1090 422 1090 q 344 1110 364 1090 m 622 1110 q 611 1120 622 1110 q 601 1160 601 1131 q 622 1209 601 1189 q 671 1229 642 1229 q 720 1209 700 1229 q 740 1160 740 1189 q 720 1110 740 1131 q 671 1090 700 1090 q 622 1110 642 1090 z "},"Ź":{"ha":922,"x_min":17,"x_max":906,"o":"m 17 6 l 492 833 l 72 833 l 72 1069 l 906 1069 l 906 1064 l 431 236 l 892 236 l 892 0 l 17 0 l 17 6 m 392 1097 l 383 1150 l 625 1222 l 642 1117 l 392 1097 z "},"ź":{"ha":758,"x_min":11,"x_max":747,"o":"m 11 11 l 389 603 l 53 603 l 53 792 l 747 792 l 747 781 l 369 189 l 747 189 l 747 0 l 11 0 l 11 11 m 379 840 l 358 876 l 560 1050 l 636 917 l 379 840 z "},"Ż":{"ha":922,"x_min":17,"x_max":906,"o":"m 17 6 l 492 833 l 72 833 l 72 1069 l 906 1069 l 906 1064 l 431 236 l 892 236 l 892 0 l 17 0 l 17 6 m 413 1110 q 403 1120 413 1110 q 393 1160 393 1131 q 413 1209 393 1189 q 463 1229 433 1229 q 512 1209 492 1229 q 532 1160 532 1189 q 512 1110 532 1131 q 463 1090 492 1090 q 413 1110 433 1090 z "},"ż":{"ha":758,"x_min":11,"x_max":747,"o":"m 11 11 l 389 603 l 53 603 l 53 792 l 747 792 l 747 781 l 369 189 l 747 189 l 747 0 l 11 0 l 11 11 m 281 877 q 261 898 281 877 q 240 975 240 918 q 281 1073 240 1032 q 379 1114 322 1114 q 477 1073 436 1114 q 518 975 518 1032 q 477 877 518 918 q 379 836 436 836 q 281 877 322 836 z "},"Ž":{"ha":922,"x_min":17,"x_max":906,"o":"m 17 6 l 492 833 l 72 833 l 72 1069 l 906 1069 l 906 1064 l 431 236 l 892 236 l 892 0 l 17 0 l 17 6 m 699 1236 l 707 1183 l 461 1090 l 215 1183 l 224 1236 l 461 1183 l 699 1236 z "},"ž":{"ha":758,"x_min":11,"x_max":747,"o":"m 11 11 l 389 603 l 53 603 l 53 792 l 747 792 l 747 781 l 369 189 l 747 189 l 747 0 l 11 0 l 11 11 m 178 1011 l 199 1047 l 379 974 l 560 1047 l 581 1011 l 379 838 l 178 1011 z "},"Ș":{"ha":838,"x_min":7,"x_max":828,"o":"m 401 215 q 508 242 468 215 q 547 321 547 269 q 533 363 547 344 q 488 398 519 382 q 430 423 456 414 q 354 447 404 432 q 135 563 214 490 q 56 763 56 635 q 165 999 56 908 q 436 1089 275 1089 q 663 1037 567 1089 q 797 892 760 985 l 574 763 q 444 854 528 854 q 365 831 393 854 q 338 774 338 807 q 342 747 338 758 q 358 726 347 735 q 380 710 369 717 q 409 696 390 703 q 440 685 428 689 q 476 676 453 682 q 513 665 500 669 q 649 615 596 640 q 746 549 703 589 q 808 452 789 510 q 828 315 828 394 q 711 83 828 186 q 408 -19 594 -19 q 158 40 261 -19 q 7 210 56 99 l 229 339 q 401 215 275 215 m 368 -56 l 482 -56 l 440 -292 l 358 -292 l 368 -56 z "},"ș":{"ha":696,"x_min":8,"x_max":686,"o":"m 353 -17 q 8 125 124 -17 l 156 269 q 340 181 228 181 q 444 238 444 181 q 415 286 444 271 q 300 315 385 301 q 110 400 174 336 q 46 547 46 464 q 138 737 46 665 q 361 808 229 808 q 534 773 458 808 q 650 672 610 738 l 521 546 q 375 611 474 611 q 288 557 288 611 q 296 533 288 543 q 329 515 304 524 q 373 503 354 507 q 440 489 392 499 q 622 407 558 465 q 686 239 686 349 q 588 56 686 128 q 353 -17 490 -17 m 299 -56 l 413 -56 l 371 -292 l 289 -292 l 299 -56 z "},"ȷ":{"ha":306,"x_min":-176,"x_max":278,"o":"m 28 -18 l 28 792 l 278 792 l 278 -47 q 205 -235 278 -162 q 14 -308 132 -308 q -176 -247 -104 -308 l -90 -68 q -42 -83 -67 -83 q 8 -65 -11 -83 q 28 -18 28 -47 z "},"ˆ":{"ha":603,"x_min":100,"x_max":503,"o":"m 121 840 l 100 876 l 301 1050 l 503 876 l 482 840 l 301 913 l 121 840 z "},"ˇ":{"ha":603,"x_min":100,"x_max":503,"o":"m 100 1011 l 121 1047 l 301 974 l 482 1047 l 503 1011 l 301 838 l 100 1011 z "},"˘":{"ha":636,"x_min":89,"x_max":547,"o":"m 472 898 q 440 873 472 898 q 318 847 407 847 q 164 898 229 847 q 89 1029 99 949 l 175 1029 q 224 972 182 992 q 318 953 265 953 q 413 972 371 953 q 461 1029 454 992 l 547 1029 q 472 898 538 949 z "},"˙":{"ha":522,"x_min":122,"x_max":400,"o":"m 163 877 q 143 898 163 877 q 122 975 122 918 q 163 1073 122 1032 q 261 1114 204 1114 q 359 1073 318 1114 q 400 975 400 1032 q 359 877 400 918 q 261 836 318 836 q 163 877 204 836 z "},"˚":{"ha":506,"x_min":129,"x_max":376,"o":"m 165 872 q 147 890 165 872 q 129 960 129 908 q 165 1047 129 1011 q 253 1083 201 1083 q 340 1047 304 1083 q 376 960 376 1011 q 340 872 376 908 q 253 836 304 836 q 165 872 201 836 m 301 912 q 311 922 301 912 q 321 960 321 932 q 301 1008 321 988 q 253 1028 281 1028 q 205 1008 225 1028 q 185 960 185 988 q 205 912 185 932 q 253 892 225 892 q 301 912 281 892 z "},"˛":{"ha":518,"x_min":174,"x_max":528,"o":"m 394 -224 q 504 -197 456 -224 l 528 -249 q 378 -292 465 -292 q 230 -256 286 -292 q 174 -151 174 -219 q 241 -31 174 -82 q 414 39 308 21 l 467 0 q 296 -142 296 -36 q 322 -202 296 -181 q 394 -224 349 -224 z "},"˜":{"ha":694,"x_min":71,"x_max":624,"o":"m 226 1043 q 363 1005 289 1043 q 474 967 436 967 q 560 1026 544 967 l 624 1026 q 573 897 614 942 q 468 851 532 851 q 333 890 407 851 q 221 928 258 928 q 135 868 150 928 l 71 868 q 122 998 81 953 q 226 1043 163 1043 z "},"˝":{"ha":564,"x_min":131,"x_max":472,"o":"m 167 840 l 131 861 l 196 1050 l 306 986 l 167 840 m 333 840 l 297 861 l 363 1050 l 472 986 l 333 840 z "},"Ẁ":{"ha":1617,"x_min":7,"x_max":1610,"o":"m 814 1069 l 1096 549 l 1311 1069 l 1610 1069 l 1140 -14 l 1128 -14 l 808 583 l 489 -14 l 476 -14 l 7 1069 l 306 1069 l 519 549 l 803 1069 l 814 1069 m 888 1150 l 879 1097 l 629 1117 l 646 1222 l 888 1150 z "},"ẁ":{"ha":1225,"x_min":8,"x_max":1217,"o":"m 615 800 l 838 438 l 972 792 l 1217 792 l 888 -17 l 882 -17 l 613 436 l 343 -17 l 338 -17 l 8 792 l 253 792 l 388 438 l 610 800 l 615 800 m 633 876 l 613 840 l 356 917 l 432 1050 l 633 876 z "},"Ẃ":{"ha":1617,"x_min":7,"x_max":1610,"o":"m 814 1069 l 1096 549 l 1311 1069 l 1610 1069 l 1140 -14 l 1128 -14 l 808 583 l 489 -14 l 476 -14 l 7 1069 l 306 1069 l 519 549 l 803 1069 l 814 1069 m 739 1097 l 731 1150 l 972 1222 l 989 1117 l 739 1097 z "},"ẃ":{"ha":1225,"x_min":8,"x_max":1217,"o":"m 615 800 l 838 438 l 972 792 l 1217 792 l 888 -17 l 882 -17 l 613 436 l 343 -17 l 338 -17 l 8 792 l 253 792 l 388 438 l 610 800 l 615 800 m 613 840 l 592 876 l 793 1050 l 869 917 l 613 840 z "},"Ẅ":{"ha":1617,"x_min":7,"x_max":1610,"o":"m 814 1069 l 1096 549 l 1311 1069 l 1610 1069 l 1140 -14 l 1128 -14 l 808 583 l 489 -14 l 476 -14 l 7 1069 l 306 1069 l 519 549 l 803 1069 l 814 1069 m 622 1110 q 611 1120 622 1110 q 601 1160 601 1131 q 622 1209 601 1189 q 671 1229 642 1229 q 720 1209 700 1229 q 740 1160 740 1189 q 720 1110 740 1131 q 671 1090 700 1090 q 622 1110 642 1090 m 899 1110 q 889 1120 899 1110 q 879 1160 879 1131 q 899 1209 879 1189 q 949 1229 919 1229 q 998 1209 978 1229 q 1018 1160 1018 1189 q 998 1110 1018 1131 q 949 1090 978 1090 q 899 1110 919 1090 z "},"ẅ":{"ha":1225,"x_min":8,"x_max":1217,"o":"m 615 800 l 838 438 l 972 792 l 1217 792 l 888 -17 l 882 -17 l 613 436 l 343 -17 l 338 -17 l 8 792 l 253 792 l 388 438 l 610 800 l 615 800 m 334 877 q 314 898 334 877 q 293 975 293 918 q 334 1073 293 1032 q 432 1114 375 1114 q 530 1073 489 1114 q 571 975 571 1032 q 530 877 571 918 q 432 836 489 836 q 334 877 375 836 m 695 877 q 675 898 695 877 q 654 975 654 918 q 695 1073 654 1032 q 793 1114 736 1114 q 891 1073 850 1114 q 932 975 932 1032 q 891 877 932 918 q 793 836 850 836 q 695 877 736 836 z "},"–":{"ha":597,"x_min":29,"x_max":568,"o":"m 568 658 l 568 464 l 29 464 l 29 658 l 568 658 z "},"—":{"ha":1292,"x_min":29,"x_max":1263,"o":"m 1263 658 l 1263 464 l 29 464 l 29 658 l 1263 658 z "},"‘":{"ha":297,"x_min":13,"x_max":286,"o":"m 83 1097 l 286 1097 l 260 792 l 13 792 l 83 1097 z "},"’":{"ha":297,"x_min":11,"x_max":285,"o":"m 214 792 l 11 792 l 38 1097 l 285 1097 l 214 792 z "},"‚":{"ha":297,"x_min":11,"x_max":285,"o":"m 214 -111 l 11 -111 l 38 194 l 285 194 l 214 -111 z "},"“":{"ha":575,"x_min":13,"x_max":564,"o":"m 83 1097 l 286 1097 l 260 792 l 13 792 l 83 1097 m 361 1097 l 564 1097 l 538 792 l 290 792 l 361 1097 z "},"”":{"ha":575,"x_min":11,"x_max":563,"o":"m 214 792 l 11 792 l 38 1097 l 285 1097 l 214 792 m 492 792 l 289 792 l 315 1097 l 563 1097 l 492 792 z "},"„":{"ha":575,"x_min":11,"x_max":563,"o":"m 214 -111 l 11 -111 l 38 194 l 285 194 l 214 -111 m 492 -111 l 289 -111 l 315 194 l 563 194 l 492 -111 z "},"†":{"ha":467,"x_min":14,"x_max":453,"o":"m 139 389 l 139 714 l 14 714 l 14 903 l 139 903 l 139 1069 l 328 1069 l 328 903 l 453 903 l 453 714 l 328 714 l 328 389 l 139 389 z "},"‡":{"ha":467,"x_min":14,"x_max":453,"o":"m 139 153 l 139 478 l 14 478 l 14 667 l 139 667 l 139 714 l 14 714 l 14 903 l 139 903 l 139 1069 l 328 1069 l 328 903 l 453 903 l 453 714 l 328 714 l 328 667 l 453 667 l 453 478 l 328 478 l 328 153 l 139 153 z "},"•":{"ha":417,"x_min":21,"x_max":396,"o":"m 76 319 q 48 346 76 319 q 21 451 21 374 q 76 584 21 529 q 208 639 131 639 q 341 584 286 639 q 396 451 396 529 q 341 319 396 374 q 208 264 286 264 q 76 319 131 264 z "},"…":{"ha":1286,"x_min":32,"x_max":1254,"o":"m 73 27 q 52 48 73 27 q 32 125 32 68 q 73 223 32 182 q 171 264 114 264 q 269 223 228 264 q 310 125 310 182 q 269 27 310 68 q 171 -14 228 -14 q 73 27 114 -14 m 545 27 q 525 48 545 27 q 504 125 504 68 q 545 223 504 182 q 643 264 586 264 q 741 223 700 264 q 782 125 782 182 q 741 27 782 68 q 643 -14 700 -14 q 545 27 586 -14 m 1017 27 q 997 48 1017 27 q 976 125 976 68 q 1017 223 976 182 q 1115 264 1058 264 q 1213 223 1172 264 q 1254 125 1254 182 q 1213 27 1254 68 q 1115 -14 1172 -14 q 1017 27 1058 -14 z "},"‰":{"ha":1906,"x_min":31,"x_max":1875,"o":"m 108 641 q 69 680 108 641 q 31 826 31 718 q 108 1012 31 935 q 293 1089 185 1089 q 478 1012 401 1089 q 556 826 556 935 q 478 641 556 718 q 293 564 401 564 q 108 641 185 564 m 222 901 q 208 887 222 901 q 193 826 193 872 q 222 751 193 781 q 293 722 251 722 q 364 751 335 722 q 393 826 393 781 q 364 901 393 872 q 293 931 335 931 q 222 901 251 931 m 1071 1069 l 450 0 l 251 0 l 872 1069 l 1071 1069 m 1215 428 q 1253 390 1215 428 q 1292 243 1292 351 q 1215 58 1292 135 q 1029 -19 1138 -19 q 844 58 921 -19 q 767 243 767 135 q 844 428 767 351 q 1029 506 921 506 q 1215 428 1138 506 m 1100 168 q 1115 183 1100 168 q 1129 243 1129 197 q 1100 318 1129 289 q 1029 347 1071 347 q 958 318 988 347 q 929 243 929 289 q 958 168 929 197 q 1029 139 988 139 q 1100 168 1071 139 m 1798 428 q 1836 390 1798 428 q 1875 243 1875 351 q 1798 58 1875 135 q 1613 -19 1721 -19 q 1427 58 1504 -19 q 1350 243 1350 135 q 1427 428 1350 351 q 1613 506 1504 506 q 1798 428 1721 506 m 1683 168 q 1698 183 1683 168 q 1713 243 1713 197 q 1683 318 1713 289 q 1613 347 1654 347 q 1542 318 1571 347 q 1513 243 1513 289 q 1542 168 1513 197 q 1613 139 1571 139 q 1683 168 1654 139 z "},"‹":{"ha":346,"x_min":29,"x_max":307,"o":"m 307 611 l 144 451 l 307 292 l 307 125 l 29 326 l 29 576 l 307 778 l 307 611 z "},"›":{"ha":346,"x_min":39,"x_max":317,"o":"m 201 451 l 39 611 l 39 778 l 317 576 l 317 326 l 39 125 l 39 292 l 201 451 z "},"⁄":{"ha":589,"x_min":-94,"x_max":683,"o":"m 683 1069 l 63 0 l -94 0 l 526 1069 l 683 1069 z "},"⁰":{"ha":453,"x_min":14,"x_max":438,"o":"m 226 960 q 186 960 226 960 q 146 801 146 960 q 226 643 146 643 q 307 801 307 643 q 226 960 307 960 m 226 1079 q 438 801 438 1079 q 226 524 438 524 q 67 595 121 524 q 14 801 14 667 q 226 1079 14 1079 z "},"⁴":{"ha":449,"x_min":13,"x_max":436,"o":"m 375 1076 l 375 747 l 436 747 l 436 629 l 375 629 l 375 535 l 236 535 l 236 629 l 13 629 l 13 719 l 283 1076 l 375 1076 m 176 747 l 236 747 l 236 829 l 176 747 z "},"⁵":{"ha":447,"x_min":11,"x_max":433,"o":"m 406 951 l 181 951 l 181 889 q 246 900 211 900 q 383 847 332 900 q 433 713 433 794 q 378 576 433 629 q 214 524 322 524 q 11 639 61 524 l 122 704 q 214 643 147 643 q 294 713 294 643 q 273 762 294 743 q 214 781 251 781 q 143 758 163 781 l 42 821 l 42 1069 l 406 1069 l 406 951 z "},"⁶":{"ha":439,"x_min":14,"x_max":424,"o":"m 343 1069 l 243 904 q 374 843 325 896 q 424 715 424 790 q 367 578 424 633 q 219 524 311 524 q 70 578 126 524 q 14 715 14 633 q 44 821 14 772 l 190 1069 l 343 1069 m 293 715 q 272 765 293 744 q 219 786 250 786 q 167 765 189 786 q 146 715 146 744 q 167 664 146 685 q 219 643 189 643 q 272 664 250 643 q 293 715 293 685 z "},"⁷":{"ha":464,"x_min":14,"x_max":451,"o":"m 67 535 l 258 958 l 14 958 l 14 1069 l 451 1069 l 451 1068 l 213 535 l 67 535 z "},"⁸":{"ha":422,"x_min":17,"x_max":406,"o":"m 354 570 q 328 547 354 570 q 211 524 303 524 q 68 570 119 524 q 17 692 17 617 q 81 817 17 765 q 32 924 32 858 q 77 1035 32 990 q 211 1079 122 1079 q 345 1035 300 1079 q 390 924 390 990 q 340 817 390 860 q 406 692 406 765 q 354 570 406 617 m 165 659 q 173 651 165 659 q 211 643 182 643 q 257 659 240 643 q 274 701 274 675 q 257 742 274 726 q 211 758 240 758 q 165 742 182 758 q 147 701 147 726 q 165 659 147 675 m 258 915 q 246 947 258 935 q 211 960 233 960 q 176 947 189 960 q 163 915 163 935 q 176 883 163 896 q 211 869 189 869 q 246 882 233 869 q 258 915 258 894 z "},"⁹":{"ha":439,"x_min":14,"x_max":424,"o":"m 96 535 l 194 699 q 63 759 113 706 q 14 889 14 813 q 70 1024 14 969 q 219 1079 126 1079 q 367 1024 311 1079 q 424 889 424 969 q 400 794 424 838 l 249 535 l 96 535 m 146 889 q 167 838 146 858 q 219 817 189 817 q 272 838 250 817 q 293 889 293 858 q 272 939 293 918 q 219 960 250 960 q 167 939 189 960 q 146 889 146 918 z "},"₀":{"ha":453,"x_min":14,"x_max":438,"o":"m 226 425 q 186 425 226 425 q 146 267 146 425 q 226 108 146 108 q 307 267 307 108 q 226 425 307 425 m 226 544 q 438 267 438 544 q 226 -11 438 -11 q 67 60 121 -11 q 14 267 14 132 q 226 544 14 544 z "},"₁":{"ha":258,"x_min":13,"x_max":238,"o":"m 99 0 l 99 417 l 13 417 l 67 535 l 238 535 l 238 0 l 99 0 z "},"₂":{"ha":449,"x_min":18,"x_max":433,"o":"m 224 544 q 372 499 318 544 q 426 386 426 454 q 415 326 426 357 q 390 278 403 296 q 354 231 378 261 l 256 111 l 433 111 l 433 0 l 18 0 l 18 1 l 235 274 q 274 365 274 321 q 256 407 274 389 q 213 425 239 425 q 132 365 157 425 l 21 429 q 224 544 71 544 z "},"₃":{"ha":447,"x_min":11,"x_max":433,"o":"m 218 108 q 301 168 301 108 q 226 225 301 225 l 135 225 l 135 333 l 228 333 q 286 379 286 333 q 225 425 286 425 q 143 378 168 425 l 31 443 q 101 517 51 490 q 222 544 151 544 q 369 499 319 544 q 418 386 418 453 q 363 281 418 317 q 433 160 433 235 q 376 36 433 83 q 214 -11 318 -11 q 11 104 61 -11 l 122 169 q 218 108 147 108 z "},"₄":{"ha":449,"x_min":13,"x_max":436,"o":"m 375 542 l 375 213 l 436 213 l 436 94 l 375 94 l 375 0 l 236 0 l 236 94 l 13 94 l 13 185 l 283 542 l 375 542 m 176 213 l 236 213 l 236 294 l 176 213 z "},"₅":{"ha":447,"x_min":11,"x_max":433,"o":"m 406 417 l 181 417 l 181 354 q 246 365 211 365 q 383 313 332 365 q 433 178 433 260 q 378 42 433 94 q 214 -11 322 -11 q 11 104 61 -11 l 122 169 q 214 108 147 108 q 294 178 294 108 q 273 227 294 208 q 214 246 251 246 q 143 224 163 246 l 42 286 l 42 535 l 406 535 l 406 417 z "},"₆":{"ha":439,"x_min":14,"x_max":424,"o":"m 343 535 l 243 369 q 374 308 325 361 q 424 181 424 256 q 367 44 424 99 q 219 -11 311 -11 q 70 44 126 -11 q 14 181 14 99 q 44 286 14 238 l 190 535 l 343 535 m 293 181 q 272 231 293 210 q 219 251 250 251 q 167 231 189 251 q 146 181 146 210 q 167 129 146 150 q 219 108 189 108 q 272 129 250 108 q 293 181 293 150 z "},"₇":{"ha":464,"x_min":14,"x_max":451,"o":"m 67 0 l 258 424 l 14 424 l 14 535 l 451 535 l 451 533 l 213 0 l 67 0 z "},"₈":{"ha":422,"x_min":17,"x_max":406,"o":"m 354 35 q 328 12 354 35 q 211 -11 303 -11 q 68 35 119 -11 q 17 157 17 81 q 81 282 17 231 q 32 389 32 324 q 77 500 32 456 q 211 544 122 544 q 345 500 300 544 q 390 389 390 456 q 340 282 390 325 q 406 157 406 231 q 354 35 406 81 m 165 124 q 173 116 165 124 q 211 108 182 108 q 257 124 240 108 q 274 167 274 140 q 257 208 274 192 q 211 224 240 224 q 165 208 182 224 q 147 167 147 192 q 165 124 147 140 m 246 348 q 252 355 246 348 q 258 381 258 361 q 246 413 258 400 q 211 425 233 425 q 176 413 189 425 q 163 381 163 400 q 176 348 163 361 q 211 335 189 335 q 246 348 233 335 z "},"₉":{"ha":439,"x_min":14,"x_max":424,"o":"m 96 0 l 194 164 q 63 224 113 171 q 14 354 14 278 q 70 490 14 435 q 219 544 126 544 q 367 490 311 544 q 424 354 424 435 q 400 260 424 303 l 249 0 l 96 0 m 146 354 q 167 303 146 324 q 219 282 189 282 q 272 303 250 282 q 293 354 293 324 q 272 404 293 383 q 219 425 250 425 q 167 404 189 425 q 146 354 146 383 z "},"€":{"ha":1011,"x_min":14,"x_max":996,"o":"m 572 361 l 435 361 q 604 236 489 236 q 760 347 714 236 l 996 208 q 849 34 944 89 q 604 -21 754 -21 q 301 76 422 -21 q 143 361 181 174 l 14 361 l 14 493 l 129 493 q 128 535 128 507 q 129 576 128 563 l 14 576 l 14 708 l 143 708 q 301 993 181 896 q 604 1090 422 1090 q 849 1035 754 1090 q 996 861 944 981 l 760 722 q 604 833 714 833 q 435 708 489 833 l 700 708 l 639 576 l 407 576 q 406 535 406 563 q 407 493 406 506 l 633 493 l 572 361 z "},"℠":{"ha":871,"x_min":15,"x_max":850,"o":"m 739 669 l 743 842 l 624 708 l 621 708 l 500 842 l 506 669 l 394 669 l 394 1103 l 397 1103 l 622 856 l 847 1103 l 850 1103 l 850 669 l 739 669 m 172 756 q 231 797 231 756 q 212 826 231 815 q 154 849 193 838 q 67 894 99 865 q 35 975 35 924 q 78 1069 35 1033 q 186 1106 122 1106 q 276 1084 238 1106 q 331 1026 315 1063 l 242 975 q 190 1011 224 1011 q 158 1001 169 1011 q 147 979 147 992 q 151 965 147 971 q 163 954 154 958 q 177 948 172 950 q 197 942 182 946 q 217 936 213 938 q 313 886 283 915 q 343 796 343 857 q 297 703 343 744 q 175 661 250 661 q 15 753 54 661 l 104 806 q 172 756 121 756 z "},"™":{"ha":875,"x_min":13,"x_max":854,"o":"m 743 669 l 747 842 l 628 708 l 625 708 l 504 842 l 510 669 l 399 669 l 399 1103 l 401 1103 l 626 856 l 851 1103 l 854 1103 l 854 669 l 743 669 m 346 1097 l 346 1003 l 235 1003 l 235 669 l 124 669 l 124 1003 l 13 1003 l 13 1097 l 346 1097 z "},"⅓":{"ha":1036,"x_min":13,"x_max":1022,"o":"m 821 1069 l 200 0 l 43 0 l 664 1069 l 821 1069 m 807 108 q 890 168 890 108 q 815 225 890 225 l 724 225 l 724 333 l 817 333 q 875 379 875 333 q 814 425 875 425 q 732 378 757 425 l 619 443 q 690 517 640 490 q 811 544 740 544 q 958 499 908 544 q 1007 386 1007 453 q 951 281 1007 317 q 1022 160 1022 235 q 965 36 1022 83 q 803 -11 907 -11 q 600 104 650 -11 l 711 169 q 807 108 736 108 m 99 535 l 99 951 l 13 951 l 67 1069 l 238 1069 l 238 535 l 99 535 z "},"⅔":{"ha":1215,"x_min":18,"x_max":1201,"o":"m 1000 1069 l 379 0 l 222 0 l 843 1069 l 1000 1069 m 986 108 q 1069 168 1069 108 q 994 225 1069 225 l 903 225 l 903 333 l 996 333 q 1054 379 1054 333 q 993 425 1054 425 q 911 378 936 425 l 799 443 q 869 517 819 490 q 990 544 919 544 q 1137 499 1088 544 q 1186 386 1186 453 q 1131 281 1186 317 q 1201 160 1201 235 q 1144 36 1201 83 q 982 -11 1086 -11 q 779 104 829 -11 l 890 169 q 986 108 915 108 m 224 1079 q 372 1034 318 1079 q 426 921 426 989 q 415 861 426 892 q 390 813 403 831 q 354 765 378 796 l 256 646 l 433 646 l 433 535 l 18 535 l 18 536 l 235 808 q 274 900 274 856 q 256 942 274 924 q 213 960 239 960 q 132 900 157 960 l 21 964 q 224 1079 71 1079 z "},"⅕":{"ha":1036,"x_min":13,"x_max":1022,"o":"m 821 1069 l 200 0 l 43 0 l 664 1069 l 821 1069 m 994 417 l 769 417 l 769 354 q 835 365 800 365 q 972 313 921 365 q 1022 178 1022 260 q 967 42 1022 94 q 803 -11 911 -11 q 600 104 650 -11 l 711 169 q 803 108 736 108 q 883 178 883 108 q 862 227 883 208 q 803 246 840 246 q 732 224 751 246 l 631 286 l 631 535 l 994 535 l 994 417 m 99 535 l 99 951 l 13 951 l 67 1069 l 238 1069 l 238 535 l 99 535 z "},"⅖":{"ha":1215,"x_min":18,"x_max":1201,"o":"m 1000 1069 l 379 0 l 222 0 l 843 1069 l 1000 1069 m 1174 417 l 949 417 l 949 354 q 1014 365 979 365 q 1151 313 1100 365 q 1201 178 1201 260 q 1146 42 1201 94 q 982 -11 1090 -11 q 779 104 829 -11 l 890 169 q 982 108 915 108 q 1063 178 1063 108 q 1041 227 1063 208 q 982 246 1019 246 q 911 224 931 246 l 810 286 l 810 535 l 1174 535 l 1174 417 m 224 1079 q 372 1034 318 1079 q 426 921 426 989 q 415 861 426 892 q 390 813 403 831 q 354 765 378 796 l 256 646 l 433 646 l 433 535 l 18 535 l 18 536 l 235 808 q 274 900 274 856 q 256 942 274 924 q 213 960 239 960 q 132 900 157 960 l 21 964 q 224 1079 71 1079 z "},"⅗":{"ha":1211,"x_min":11,"x_max":1197,"o":"m 996 1069 l 375 0 l 218 0 l 839 1069 l 996 1069 m 1169 417 l 944 417 l 944 354 q 1010 365 975 365 q 1147 313 1096 365 q 1197 178 1197 260 q 1142 42 1197 94 q 978 -11 1086 -11 q 775 104 825 -11 l 886 169 q 978 108 911 108 q 1058 178 1058 108 q 1037 227 1058 208 q 978 246 1015 246 q 907 224 926 246 l 806 286 l 806 535 l 1169 535 l 1169 417 m 218 643 q 301 703 301 643 q 226 760 301 760 l 135 760 l 135 868 l 228 868 q 286 914 286 868 q 225 960 286 960 q 143 913 168 960 l 31 978 q 101 1052 51 1025 q 222 1079 151 1079 q 369 1033 319 1079 q 418 921 418 988 q 363 815 418 851 q 433 694 433 769 q 376 571 433 618 q 214 524 318 524 q 11 639 61 524 l 122 704 q 218 643 147 643 z "},"⅘":{"ha":1211,"x_min":13,"x_max":1197,"o":"m 996 1069 l 375 0 l 218 0 l 839 1069 l 996 1069 m 1169 417 l 944 417 l 944 354 q 1010 365 975 365 q 1147 313 1096 365 q 1197 178 1197 260 q 1142 42 1197 94 q 978 -11 1086 -11 q 775 104 825 -11 l 886 169 q 978 108 911 108 q 1058 178 1058 108 q 1037 227 1058 208 q 978 246 1015 246 q 907 224 926 246 l 806 286 l 806 535 l 1169 535 l 1169 417 m 375 1076 l 375 747 l 436 747 l 436 629 l 375 629 l 375 535 l 236 535 l 236 629 l 13 629 l 13 719 l 283 1076 l 375 1076 m 176 747 l 236 747 l 236 829 l 176 747 z "},"⅙":{"ha":1033,"x_min":13,"x_max":1018,"o":"m 821 1069 l 200 0 l 43 0 l 664 1069 l 821 1069 m 938 535 l 838 369 q 969 308 919 361 q 1018 181 1018 256 q 962 44 1018 99 q 814 -11 906 -11 q 665 44 721 -11 q 608 181 608 99 q 639 286 608 238 l 785 535 l 938 535 m 99 535 l 99 951 l 13 951 l 67 1069 l 238 1069 l 238 535 l 99 535 m 888 181 q 866 231 888 210 q 814 251 844 251 q 762 231 783 251 q 740 181 740 210 q 762 129 740 150 q 814 108 783 108 q 866 129 844 108 q 888 181 888 150 z "},"⅚":{"ha":1208,"x_min":11,"x_max":1193,"o":"m 996 1069 l 375 0 l 218 0 l 839 1069 l 996 1069 m 406 951 l 181 951 l 181 889 q 246 900 211 900 q 383 847 332 900 q 433 713 433 794 q 378 576 433 629 q 214 524 322 524 q 11 639 61 524 l 122 704 q 214 643 147 643 q 294 713 294 643 q 273 762 294 743 q 214 781 251 781 q 143 758 163 781 l 42 821 l 42 1069 l 406 1069 l 406 951 m 1113 535 l 1013 369 q 1144 308 1094 361 q 1193 181 1193 256 q 1137 44 1193 99 q 989 -11 1081 -11 q 840 44 896 -11 q 783 181 783 99 q 814 286 783 238 l 960 535 l 1113 535 m 1063 181 q 1041 231 1063 210 q 989 251 1019 251 q 937 231 958 251 q 915 181 915 210 q 937 129 915 150 q 989 108 958 108 q 1041 129 1019 108 q 1063 181 1063 150 z "},"⅛":{"ha":1018,"x_min":13,"x_max":1001,"o":"m 950 35 q 924 12 950 35 q 807 -11 899 -11 q 664 35 715 -11 q 613 157 613 81 q 676 282 613 231 q 628 389 628 324 q 673 500 628 456 q 807 544 718 544 q 941 500 896 544 q 986 389 986 456 q 936 282 986 325 q 1001 157 1001 231 q 950 35 1001 81 m 821 1069 l 200 0 l 43 0 l 664 1069 l 821 1069 m 99 535 l 99 951 l 13 951 l 67 1069 l 238 1069 l 238 535 l 99 535 m 760 124 q 769 116 760 124 q 807 108 778 108 q 853 124 836 108 q 869 167 869 140 q 853 208 869 192 q 807 224 836 224 q 760 208 778 224 q 743 167 743 192 q 760 124 743 140 m 841 348 q 848 355 841 348 q 854 381 854 361 q 842 413 854 400 q 807 425 829 425 q 772 413 785 425 q 758 381 758 400 q 772 348 758 361 q 807 335 785 335 q 841 348 828 335 z "},"⅜":{"ha":1193,"x_min":11,"x_max":1176,"o":"m 1125 35 q 1099 12 1125 35 q 982 -11 1074 -11 q 839 35 890 -11 q 788 157 788 81 q 851 282 788 231 q 803 389 803 324 q 848 500 803 456 q 982 544 893 544 q 1116 500 1071 544 q 1161 389 1161 456 q 1111 282 1161 325 q 1176 157 1176 231 q 1125 35 1176 81 m 996 1069 l 375 0 l 218 0 l 839 1069 l 996 1069 m 218 643 q 301 703 301 643 q 226 760 301 760 l 135 760 l 135 868 l 228 868 q 286 914 286 868 q 225 960 286 960 q 143 913 168 960 l 31 978 q 101 1052 51 1025 q 222 1079 151 1079 q 369 1033 319 1079 q 418 921 418 988 q 363 815 418 851 q 433 694 433 769 q 376 571 433 618 q 214 524 318 524 q 11 639 61 524 l 122 704 q 218 643 147 643 m 935 124 q 944 116 935 124 q 982 108 953 108 q 1028 124 1011 108 q 1044 167 1044 140 q 1028 208 1044 192 q 982 224 1011 224 q 935 208 953 224 q 918 167 918 192 q 935 124 918 140 m 1016 348 q 1023 355 1016 348 q 1029 381 1029 361 q 1017 413 1029 400 q 982 425 1004 425 q 947 413 960 425 q 933 381 933 400 q 947 348 933 361 q 982 335 960 335 q 1016 348 1003 335 z "},"⅝":{"ha":1193,"x_min":11,"x_max":1176,"o":"m 1125 35 q 1099 12 1125 35 q 982 -11 1074 -11 q 839 35 890 -11 q 788 157 788 81 q 851 282 788 231 q 803 389 803 324 q 848 500 803 456 q 982 544 893 544 q 1116 500 1071 544 q 1161 389 1161 456 q 1111 282 1161 325 q 1176 157 1176 231 q 1125 35 1176 81 m 996 1069 l 375 0 l 218 0 l 839 1069 l 996 1069 m 406 951 l 181 951 l 181 889 q 246 900 211 900 q 383 847 332 900 q 433 713 433 794 q 378 576 433 629 q 214 524 322 524 q 11 639 61 524 l 122 704 q 214 643 147 643 q 294 713 294 643 q 273 762 294 743 q 214 781 251 781 q 143 758 163 781 l 42 821 l 42 1069 l 406 1069 l 406 951 m 935 124 q 944 116 935 124 q 982 108 953 108 q 1028 124 1011 108 q 1044 167 1044 140 q 1028 208 1044 192 q 982 224 1011 224 q 935 208 953 224 q 918 167 918 192 q 935 124 918 140 m 1016 348 q 1023 355 1016 348 q 1029 381 1029 361 q 1017 413 1029 400 q 982 425 1004 425 q 947 413 960 425 q 933 381 933 400 q 947 348 933 361 q 982 335 960 335 q 1016 348 1003 335 z "},"⅞":{"ha":1153,"x_min":14,"x_max":1136,"o":"m 1085 35 q 1059 12 1085 35 q 942 -11 1033 -11 q 799 35 850 -11 q 747 157 747 81 q 811 282 747 231 q 763 389 763 324 q 808 500 763 456 q 942 544 853 544 q 1076 500 1031 544 q 1121 389 1121 456 q 1071 282 1121 325 q 1136 157 1136 231 q 1085 35 1136 81 m 956 1069 l 335 0 l 178 0 l 799 1069 l 956 1069 m 67 535 l 258 958 l 14 958 l 14 1069 l 451 1069 l 451 1068 l 213 535 l 67 535 m 895 124 q 904 116 895 124 q 942 108 913 108 q 988 124 971 108 q 1004 167 1004 140 q 988 208 1004 192 q 942 224 971 224 q 895 208 913 224 q 878 167 878 192 q 895 124 878 140 m 976 348 q 983 355 976 348 q 989 381 989 361 q 976 413 989 400 q 942 425 964 425 q 906 413 919 425 q 893 381 893 400 q 906 348 893 361 q 942 335 919 335 q 976 348 964 335 z "},"⅟":{"ha":726,"x_min":13,"x_max":821,"o":"m 821 1069 l 200 0 l 43 0 l 664 1069 l 821 1069 m 99 535 l 99 951 l 13 951 l 67 1069 l 238 1069 l 238 535 l 99 535 z "},"←":{"ha":1115,"x_min":11,"x_max":1094,"o":"m 11 538 l 706 1089 l 706 793 l 508 653 l 1094 653 l 1094 417 l 508 417 l 706 276 l 706 -19 l 11 532 l 11 538 z "},"↑":{"ha":1131,"x_min":11,"x_max":1118,"o":"m 568 1083 l 1118 389 l 824 389 l 683 586 l 683 0 l 447 0 l 447 586 l 307 389 l 11 389 l 563 1083 l 568 1083 z "},"→":{"ha":1115,"x_min":21,"x_max":1104,"o":"m 1104 532 l 410 -19 l 410 276 l 607 417 l 21 417 l 21 653 l 607 653 l 410 793 l 410 1089 l 1104 538 l 1104 532 z "},"↓":{"ha":1131,"x_min":11,"x_max":1119,"o":"m 563 -14 l 11 681 l 307 681 l 447 483 l 447 1069 l 683 1069 l 683 483 l 824 681 l 1119 681 l 568 -14 l 563 -14 z "},"−":{"ha":750,"x_min":35,"x_max":715,"o":"m 35 629 l 715 629 l 715 440 l 35 440 l 35 629 z "},"≈":{"ha":769,"x_min":28,"x_max":742,"o":"m 667 801 l 742 649 q 733 638 739 644 q 709 613 728 631 q 669 581 690 594 q 613 556 647 567 q 540 544 578 544 q 374 583 463 544 q 229 622 286 622 q 103 560 165 622 l 28 713 q 36 724 31 717 q 60 749 42 731 q 101 781 79 767 q 157 806 122 794 q 229 817 192 817 q 395 778 307 817 q 540 739 483 739 q 667 801 604 739 m 667 510 l 742 357 q 733 346 739 353 q 709 321 728 339 q 669 289 690 303 q 613 264 647 275 q 540 253 578 253 q 374 292 463 253 q 229 331 286 331 q 103 268 165 331 l 28 421 q 36 432 31 425 q 60 457 42 439 q 101 489 79 475 q 157 514 122 503 q 229 525 192 525 q 395 486 307 525 q 540 447 483 447 q 667 510 604 447 z "},"≠":{"ha":750,"x_min":35,"x_max":715,"o":"m 35 775 l 419 775 l 524 954 l 664 874 l 607 775 l 715 775 l 715 586 l 497 586 l 439 483 l 715 483 l 715 294 l 329 294 l 226 115 l 86 196 l 143 294 l 35 294 l 35 483 l 251 483 l 311 586 l 35 586 l 35 775 z "},"≤":{"ha":749,"x_min":29,"x_max":710,"o":"m 29 706 l 710 932 l 710 708 l 383 626 l 710 556 l 710 332 l 29 544 l 29 706 m 710 138 l 29 350 l 29 490 l 710 278 l 710 138 z "},"≥":{"ha":749,"x_min":39,"x_max":719,"o":"m 39 932 l 719 706 l 719 544 l 39 332 l 39 556 l 364 626 l 39 708 l 39 932 m 719 350 l 39 138 l 39 278 l 719 490 l 719 350 z "},"■":{"ha":1089,"x_min":10,"x_max":1079,"o":"m 1079 1069 l 1079 0 l 10 0 l 10 1069 l 1079 1069 z "},"□":{"ha":1117,"x_min":24,"x_max":1093,"o":"m 1093 1069 l 1093 0 l 24 0 l 24 1069 l 1093 1069 m 274 825 l 274 244 l 843 244 l 843 825 l 274 825 z "},"▪":{"ha":839,"x_min":24,"x_max":815,"o":"m 815 792 l 815 0 l 24 0 l 24 792 l 815 792 z "},"▫":{"ha":839,"x_min":24,"x_max":815,"o":"m 815 792 l 815 0 l 24 0 l 24 792 l 815 792 m 274 547 l 274 244 l 565 244 l 565 547 l 274 547 z "},"▲":{"ha":1267,"x_min":8,"x_max":1258,"o":"m 633 1083 l 1258 0 l 8 0 l 633 1083 z "},"►":{"ha":979,"x_min":18,"x_max":968,"o":"m 968 535 l 18 -14 l 18 1083 l 968 535 z "},"▼":{"ha":1267,"x_min":8,"x_max":1258,"o":"m 633 -14 l 8 1069 l 1258 1069 l 633 -14 z "},"◄":{"ha":979,"x_min":11,"x_max":961,"o":"m 961 -14 l 11 535 l 961 1083 l 961 -14 z "},"●":{"ha":1142,"x_min":17,"x_max":1125,"o":"m 179 143 q 98 224 179 143 q 17 535 17 306 q 179 926 17 764 q 571 1089 342 1089 q 963 926 800 1089 q 1125 535 1125 764 q 963 143 1125 306 q 571 -19 800 -19 q 179 143 342 -19 z "},"〈":{"ha":457,"x_min":25,"x_max":453,"o":"m 453 1153 l 276 451 l 453 -250 l 200 -250 l 25 451 l 200 1153 l 453 1153 z "},"〉":{"ha":457,"x_min":4,"x_max":432,"o":"m 181 451 l 4 1153 l 257 1153 l 432 451 l 257 -250 l 4 -250 l 181 451 z "},"":{"ha":879,"x_min":11,"x_max":865,"o":"m 518 792 l 518 597 l 365 597 l 365 0 l 115 0 l 115 597 l 11 597 l 11 792 l 115 792 l 115 853 q 188 1041 115 968 q 379 1114 261 1114 q 569 1053 497 1114 l 483 874 q 435 889 461 889 q 385 871 404 889 q 365 824 365 853 l 365 792 l 518 792 m 851 792 l 851 0 l 601 0 l 601 792 l 851 792 m 628 877 q 608 898 628 877 q 588 975 588 918 q 628 1073 588 1032 q 726 1114 669 1114 q 824 1073 783 1114 q 865 975 865 1032 q 824 877 865 918 q 726 836 783 836 q 628 877 669 836 z "},"":{"ha":869,"x_min":11,"x_max":851,"o":"m 518 792 l 518 597 l 365 597 l 365 0 l 115 0 l 115 597 l 11 597 l 11 792 l 115 792 l 115 853 q 188 1041 115 968 q 379 1114 261 1114 q 569 1053 497 1114 l 483 874 q 435 889 461 889 q 385 871 404 889 q 365 824 365 853 l 365 792 l 518 792 m 601 0 l 601 1097 l 851 1097 l 851 0 l 601 0 z "},"":{"ha":201,"x_min":147,"x_max":271,"o":"m 157 1097 l 271 1097 l 229 861 l 147 861 l 157 1097 z "},"":{"ha":219,"x_min":57,"x_max":181,"o":"m 67 -56 l 181 -56 l 139 -292 l 57 -292 l 67 -56 z "},"":{"ha":446,"x_min":131,"x_max":367,"o":"m 165 -257 q 148 -240 165 -257 q 131 -174 131 -222 q 165 -90 131 -125 q 249 -56 200 -56 q 332 -90 297 -56 q 367 -174 367 -125 q 332 -257 367 -222 q 249 -292 297 -292 q 165 -257 200 -292 z "},"":{"ha":458,"x_min":81,"x_max":339,"o":"m 339 1150 l 331 1097 l 81 1117 l 97 1222 l 339 1150 z "},"":{"ha":460,"x_min":119,"x_max":378,"o":"m 128 1097 l 119 1150 l 361 1222 l 378 1117 l 128 1097 z "},"":{"ha":604,"x_min":56,"x_max":547,"o":"m 64 1090 l 56 1143 l 301 1236 l 547 1143 l 539 1090 l 301 1142 l 64 1090 z "},"":{"ha":603,"x_min":57,"x_max":546,"o":"m 413 1178 q 490 1221 468 1178 l 546 1221 q 498 1127 533 1164 q 406 1090 463 1090 q 292 1120 360 1090 q 190 1150 225 1150 q 113 1107 135 1150 l 57 1107 q 105 1201 69 1164 q 197 1238 140 1238 q 310 1208 243 1238 q 413 1178 378 1178 z "},"":{"ha":542,"x_min":76,"x_max":465,"o":"m 465 1221 l 465 1107 l 76 1107 l 76 1221 l 465 1221 z "},"":{"ha":603,"x_min":58,"x_max":544,"o":"m 459 1126 q 425 1108 459 1126 q 301 1090 392 1090 q 144 1126 211 1090 q 58 1238 76 1163 l 144 1238 q 200 1192 154 1207 q 301 1178 246 1178 q 403 1192 357 1178 q 458 1238 449 1207 l 544 1238 q 459 1126 526 1163 z "},"":{"ha":383,"x_min":122,"x_max":261,"o":"m 142 1110 q 132 1120 142 1110 q 122 1160 122 1131 q 142 1209 122 1189 q 192 1229 163 1229 q 241 1209 221 1229 q 261 1160 261 1189 q 241 1110 261 1131 q 192 1090 221 1090 q 142 1110 163 1090 z "},"":{"ha":558,"x_min":71,"x_max":488,"o":"m 91 1110 q 81 1120 91 1110 q 71 1160 71 1131 q 91 1209 71 1189 q 140 1229 111 1229 q 190 1209 169 1229 q 210 1160 210 1189 q 190 1110 210 1131 q 140 1090 169 1090 q 91 1110 111 1090 m 369 1110 q 359 1120 369 1110 q 349 1160 349 1131 q 369 1209 349 1189 q 418 1229 389 1229 q 467 1209 447 1229 q 488 1160 488 1189 q 467 1110 488 1131 q 418 1090 447 1090 q 369 1110 389 1090 z "},"":{"ha":453,"x_min":103,"x_max":350,"o":"m 139 1017 q 121 1035 139 1017 q 103 1104 103 1053 q 139 1192 103 1156 q 226 1228 175 1228 q 314 1192 278 1228 q 350 1104 350 1156 q 314 1017 350 1053 q 226 981 278 981 q 139 1017 175 981 m 274 1056 q 284 1066 274 1056 q 294 1104 294 1076 q 274 1152 294 1132 q 226 1172 254 1172 q 178 1152 199 1172 q 158 1104 158 1132 q 178 1056 158 1076 q 226 1036 199 1036 q 274 1056 254 1036 z "},"":{"ha":542,"x_min":86,"x_max":476,"o":"m 108 1090 l 86 1139 l 225 1236 l 268 1139 l 108 1090 m 317 1090 l 294 1139 l 433 1236 l 476 1139 l 317 1090 z "},"":{"ha":604,"x_min":56,"x_max":547,"o":"m 539 1236 l 547 1183 l 301 1090 l 56 1183 l 64 1236 l 301 1183 l 539 1236 z "},"":{"ha":1153,"x_min":14,"x_max":1139,"o":"m 783 317 q 822 357 783 317 q 861 535 861 397 q 783 753 861 672 q 576 833 706 833 q 369 753 447 833 q 292 535 292 672 q 369 317 292 397 q 576 236 447 236 q 783 317 706 236 m 983 938 q 1061 861 983 938 q 1139 535 1139 785 q 983 132 1139 285 q 576 -21 828 -21 q 169 132 325 -21 q 14 535 14 285 q 169 938 14 785 q 576 1090 325 1090 q 983 938 828 1090 z "},"":{"ha":869,"x_min":11,"x_max":851,"o":"m 518 792 l 518 597 l 365 597 l 365 0 l 115 0 l 115 597 l 11 597 l 11 792 l 115 792 l 115 853 q 188 1041 115 968 q 379 1114 261 1114 q 569 1053 497 1114 l 483 874 q 435 889 461 889 q 385 871 404 889 q 365 824 365 853 l 365 792 l 518 792 m 851 792 l 851 0 l 601 0 l 601 792 l 851 792 z "},"":{"ha":306,"x_min":14,"x_max":292,"o":"m 278 792 l 278 0 l 28 0 l 28 792 l 278 792 m 55 877 q 34 898 55 877 q 14 975 14 918 q 55 1073 14 1032 q 153 1114 96 1114 q 251 1073 210 1114 q 292 975 292 1032 q 251 877 292 918 q 153 836 210 836 q 55 877 96 836 z "}}}
